<ttFont>
    <TTGlyph name="A" xMin="-800" yMin="-99" xMax="3480" yMax="1972">
      <contour>
        <pt x="2917" y="411" on="1"/>
        <pt x="2923" y="414" on="0"/>
        <pt x="2929" y="414" on="1"/>
        <pt x="2941" y="414" on="0"/>
        <pt x="2961" y="390" on="0"/>
        <pt x="2961" y="376" on="1"/>
        <pt x="2961" y="361" on="0"/>
        <pt x="2941" y="335" on="0"/>
        <pt x="2899" y="306" on="0"/>
        <pt x="2833" y="268" on="0"/>
        <pt x="2787" y="241" on="1"/>
        <pt x="2759" y="224" on="0"/>
        <pt x="2664" y="161" on="0"/>
        <pt x="2547" y="86" on="0"/>
        <pt x="2415" y="7" on="0"/>
        <pt x="2283" y="-58" on="0"/>
        <pt x="2159" y="-99" on="0"/>
        <pt x="2109" y="-99" on="1"/>
        <pt x="2078" y="-99" on="0"/>
        <pt x="2027" y="-81" on="0"/>
        <pt x="1991" y="-40" on="0"/>
        <pt x="1971" y="25" on="0"/>
        <pt x="1971" y="72" on="1"/>
        <pt x="1971" y="135" on="0"/>
        <pt x="2013" y="294" on="0"/>
        <pt x="2078" y="463" on="0"/>
        <pt x="2158" y="634" on="0"/>
        <pt x="2236" y="784" on="0"/>
        <pt x="2302" y="904" on="0"/>
        <pt x="2320" y="938" on="1"/>
        <pt x="2256" y="939" on="0"/>
        <pt x="2116" y="948" on="0"/>
        <pt x="1991" y="966" on="0"/>
        <pt x="1894" y="992" on="0"/>
        <pt x="1872" y="1010" on="1"/>
        <pt x="1778" y="896" on="0"/>
        <pt x="1545" y="655" on="0"/>
        <pt x="1280" y="428" on="0"/>
        <pt x="988" y="225" on="0"/>
        <pt x="683" y="74" on="0"/>
        <pt x="370" y="-15" on="0"/>
        <pt x="217" y="-15" on="1"/>
        <pt x="158" y="-15" on="0"/>
        <pt x="50" y="-7" on="0"/>
        <pt x="-50" y="13" on="0"/>
        <pt x="-142" y="49" on="0"/>
        <pt x="-185" y="77" on="1"/>
        <pt x="-202" y="88" on="0"/>
        <pt x="-238" y="112" on="0"/>
        <pt x="-267" y="136" on="0"/>
        <pt x="-286" y="159" on="0"/>
        <pt x="-287" y="169" on="1"/>
        <pt x="-266" y="169" on="1"/>
        <pt x="-265" y="169" on="0"/>
        <pt x="-220" y="153" on="0"/>
        <pt x="-146" y="129" on="0"/>
        <pt x="-50" y="100" on="0"/>
        <pt x="57" y="76" on="0"/>
        <pt x="168" y="60" on="0"/>
        <pt x="219" y="60" on="1"/>
        <pt x="347" y="60" on="0"/>
        <pt x="590" y="150" on="0"/>
        <pt x="823" y="305" on="0"/>
        <pt x="1048" y="512" on="0"/>
        <pt x="1268" y="744" on="0"/>
        <pt x="1483" y="989" on="0"/>
        <pt x="1697" y="1221" on="0"/>
        <pt x="1911" y="1428" on="0"/>
        <pt x="2128" y="1583" on="0"/>
        <pt x="2350" y="1673" on="0"/>
        <pt x="2464" y="1673" on="1"/>
        <pt x="2545" y="1673" on="0"/>
        <pt x="2651" y="1630" on="0"/>
        <pt x="2712" y="1558" on="0"/>
        <pt x="2737" y="1463" on="0"/>
        <pt x="2737" y="1411" on="1"/>
        <pt x="2737" y="1354" on="0"/>
        <pt x="2715" y="1234" on="0"/>
        <pt x="2687" y="1126" on="0"/>
        <pt x="2661" y="1039" on="0"/>
        <pt x="2657" y="1015" on="1"/>
        <pt x="2656" y="1007" on="1"/>
        <pt x="2828" y="1037" on="0"/>
        <pt x="3087" y="1138" on="0"/>
        <pt x="3261" y="1264" on="0"/>
        <pt x="3348" y="1407" on="0"/>
        <pt x="3348" y="1479" on="1"/>
        <pt x="3348" y="1562" on="0"/>
        <pt x="3230" y="1719" on="0"/>
        <pt x="2991" y="1840" on="0"/>
        <pt x="2630" y="1913" on="0"/>
        <pt x="2387" y="1913" on="1"/>
        <pt x="2282" y="1913" on="0"/>
        <pt x="2019" y="1890" on="0"/>
        <pt x="1720" y="1852" on="0"/>
        <pt x="1393" y="1804" on="0"/>
        <pt x="1053" y="1753" on="0"/>
        <pt x="709" y="1705" on="0"/>
        <pt x="376" y="1667" on="0"/>
        <pt x="62" y="1644" on="0"/>
        <pt x="-78" y="1644" on="1"/>
        <pt x="-190" y="1644" on="0"/>
        <pt x="-379" y="1665" on="0"/>
        <pt x="-451" y="1689" on="1"/>
        <pt x="-462" y="1692" on="0"/>
        <pt x="-522" y="1729" on="0"/>
        <pt x="-600" y="1783" on="0"/>
        <pt x="-684" y="1845" on="0"/>
        <pt x="-754" y="1901" on="0"/>
        <pt x="-800" y="1944" on="0"/>
        <pt x="-800" y="1951" on="1"/>
        <pt x="-800" y="1954" on="0"/>
        <pt x="-795" y="1954" on="1"/>
        <pt x="-788" y="1954" on="0"/>
        <pt x="-755" y="1941" on="0"/>
        <pt x="-725" y="1926" on="1"/>
        <pt x="-574" y="1849" on="0"/>
        <pt x="-171" y="1786" on="0"/>
        <pt x="89" y="1786" on="1"/>
        <pt x="227" y="1786" on="0"/>
        <pt x="575" y="1814" on="0"/>
        <pt x="973" y="1855" on="0"/>
        <pt x="1413" y="1903" on="0"/>
        <pt x="1874" y="1944" on="0"/>
        <pt x="2347" y="1972" on="0"/>
        <pt x="2580" y="1972" on="1"/>
        <pt x="2816" y="1972" on="0"/>
        <pt x="3156" y="1894" on="0"/>
        <pt x="3376" y="1763" on="0"/>
        <pt x="3480" y="1594" on="0"/>
        <pt x="3480" y="1503" on="1"/>
        <pt x="3480" y="1436" on="0"/>
        <pt x="3427" y="1302" on="0"/>
        <pt x="3324" y="1179" on="0"/>
        <pt x="3174" y="1069" on="0"/>
        <pt x="2981" y="986" on="0"/>
        <pt x="2748" y="932" on="0"/>
        <pt x="2613" y="925" on="1"/>
        <pt x="2604" y="906" on="0"/>
        <pt x="2551" y="820" on="0"/>
        <pt x="2477" y="703" on="0"/>
        <pt x="2388" y="566" on="0"/>
        <pt x="2298" y="424" on="0"/>
        <pt x="2214" y="286" on="0"/>
        <pt x="2149" y="170" on="0"/>
        <pt x="2110" y="85" on="0"/>
        <pt x="2110" y="66" on="1"/>
        <pt x="2110" y="33" on="0"/>
        <pt x="2138" y="4" on="0"/>
        <pt x="2164" y="4" on="1"/>
        <pt x="2196" y="4" on="0"/>
        <pt x="2294" y="44" on="0"/>
        <pt x="2414" y="111" on="0"/>
        <pt x="2552" y="196" on="0"/>
        <pt x="2698" y="287" on="0"/>
        <pt x="2846" y="375" on="0"/>
      </contour>
      <contour>
        <pt x="2361" y="1010" on="1"/>
        <pt x="2390" y="1071" on="0"/>
        <pt x="2461" y="1208" on="0"/>
        <pt x="2523" y="1343" on="0"/>
        <pt x="2565" y="1468" on="0"/>
        <pt x="2565" y="1516" on="1"/>
        <pt x="2565" y="1561" on="0"/>
        <pt x="2531" y="1599" on="0"/>
        <pt x="2502" y="1599" on="1"/>
        <pt x="2466" y="1599" on="0"/>
        <pt x="2365" y="1549" on="0"/>
        <pt x="2252" y="1465" on="0"/>
        <pt x="2136" y="1357" on="0"/>
        <pt x="2033" y="1241" on="0"/>
        <pt x="1951" y="1126" on="0"/>
        <pt x="1930" y="1077" on="1"/>
        <pt x="1942" y="1061" on="0"/>
        <pt x="2028" y="1036" on="0"/>
        <pt x="2150" y="1019" on="0"/>
        <pt x="2293" y="1010" on="0"/>
      </contour>
    </TTGlyph>
    <TTGlyph name="AE" xMin="-131" yMin="-270" xMax="4624" yMax="2726">
      <contour>
        <pt x="2257" y="26" on="1"/>
        <pt x="2248" y="11" on="0"/>
        <pt x="2213" y="-13" on="0"/>
        <pt x="2171" y="-31" on="0"/>
        <pt x="2125" y="-40" on="0"/>
        <pt x="2104" y="-40" on="1"/>
        <pt x="2077" y="-40" on="0"/>
        <pt x="2040" y="-22" on="0"/>
        <pt x="2040" y="-2" on="1"/>
        <pt x="2040" y="11" on="0"/>
        <pt x="2052" y="32" on="1"/>
        <pt x="2094" y="100" on="0"/>
        <pt x="2179" y="268" on="0"/>
        <pt x="2262" y="447" on="0"/>
        <pt x="2338" y="625" on="0"/>
        <pt x="2405" y="781" on="0"/>
        <pt x="2458" y="904" on="0"/>
        <pt x="2476" y="938" on="1"/>
        <pt x="2412" y="939" on="0"/>
        <pt x="2272" y="948" on="0"/>
        <pt x="2147" y="966" on="0"/>
        <pt x="2050" y="992" on="0"/>
        <pt x="2028" y="1010" on="1"/>
        <pt x="1934" y="896" on="0"/>
        <pt x="1701" y="655" on="0"/>
        <pt x="1436" y="428" on="0"/>
        <pt x="1144" y="225" on="0"/>
        <pt x="839" y="74" on="0"/>
        <pt x="527" y="-15" on="0"/>
        <pt x="373" y="-15" on="1"/>
        <pt x="314" y="-15" on="0"/>
        <pt x="206" y="-7" on="0"/>
        <pt x="106" y="13" on="0"/>
        <pt x="14" y="49" on="0"/>
        <pt x="-29" y="77" on="1"/>
        <pt x="-46" y="88" on="0"/>
        <pt x="-82" y="112" on="0"/>
        <pt x="-111" y="136" on="0"/>
        <pt x="-130" y="159" on="0"/>
        <pt x="-131" y="169" on="1"/>
        <pt x="-110" y="169" on="1"/>
        <pt x="-109" y="169" on="0"/>
        <pt x="-64" y="153" on="0"/>
        <pt x="10" y="129" on="0"/>
        <pt x="106" y="100" on="0"/>
        <pt x="213" y="76" on="0"/>
        <pt x="324" y="60" on="0"/>
        <pt x="375" y="60" on="1"/>
        <pt x="503" y="60" on="0"/>
        <pt x="746" y="150" on="0"/>
        <pt x="979" y="305" on="0"/>
        <pt x="1204" y="512" on="0"/>
        <pt x="1424" y="744" on="0"/>
        <pt x="1639" y="989" on="0"/>
        <pt x="1853" y="1221" on="0"/>
        <pt x="2067" y="1428" on="0"/>
        <pt x="2284" y="1583" on="0"/>
        <pt x="2506" y="1673" on="0"/>
        <pt x="2620" y="1673" on="1"/>
        <pt x="2681" y="1673" on="0"/>
        <pt x="2772" y="1648" on="0"/>
        <pt x="2835" y="1603" on="0"/>
        <pt x="2873" y="1542" on="0"/>
        <pt x="2882" y="1506" on="1"/>
        <pt x="2985" y="1581" on="0"/>
        <pt x="3233" y="1668" on="0"/>
        <pt x="3383" y="1668" on="1"/>
        <pt x="3437" y="1668" on="0"/>
        <pt x="3533" y="1661" on="0"/>
        <pt x="3576" y="1654" on="1"/>
        <pt x="3628" y="1768" on="0"/>
        <pt x="3763" y="1971" on="0"/>
        <pt x="3922" y="2123" on="0"/>
        <pt x="4104" y="2212" on="0"/>
        <pt x="4204" y="2212" on="1"/>
        <pt x="4276" y="2212" on="0"/>
        <pt x="4364" y="2150" on="0"/>
        <pt x="4389" y="2099" on="1"/>
        <pt x="4458" y="2184" on="0"/>
        <pt x="4521" y="2324" on="0"/>
        <pt x="4521" y="2381" on="1"/>
        <pt x="4521" y="2460" on="0"/>
        <pt x="4400" y="2570" on="0"/>
        <pt x="4177" y="2637" on="0"/>
        <pt x="3859" y="2667" on="0"/>
        <pt x="3662" y="2667" on="1"/>
        <pt x="3557" y="2667" on="0"/>
        <pt x="3294" y="2644" on="0"/>
        <pt x="2995" y="2606" on="0"/>
        <pt x="2668" y="2558" on="0"/>
        <pt x="2328" y="2507" on="0"/>
        <pt x="1984" y="2459" on="0"/>
        <pt x="1651" y="2421" on="0"/>
        <pt x="1337" y="2398" on="0"/>
        <pt x="1197" y="2398" on="1"/>
        <pt x="1085" y="2398" on="0"/>
        <pt x="896" y="2419" on="0"/>
        <pt x="824" y="2443" on="1"/>
        <pt x="813" y="2446" on="0"/>
        <pt x="753" y="2483" on="0"/>
        <pt x="675" y="2537" on="0"/>
        <pt x="591" y="2599" on="0"/>
        <pt x="521" y="2655" on="0"/>
        <pt x="475" y="2698" on="0"/>
        <pt x="475" y="2705" on="1"/>
        <pt x="475" y="2708" on="0"/>
        <pt x="480" y="2708" on="1"/>
        <pt x="487" y="2708" on="0"/>
        <pt x="520" y="2695" on="0"/>
        <pt x="550" y="2680" on="1"/>
        <pt x="701" y="2603" on="0"/>
        <pt x="1104" y="2540" on="0"/>
        <pt x="1364" y="2540" on="1"/>
        <pt x="1502" y="2540" on="0"/>
        <pt x="1850" y="2568" on="0"/>
        <pt x="2248" y="2609" on="0"/>
        <pt x="2688" y="2657" on="0"/>
        <pt x="3149" y="2698" on="0"/>
        <pt x="3622" y="2726" on="0"/>
        <pt x="3855" y="2726" on="1"/>
        <pt x="4042" y="2726" on="0"/>
        <pt x="4330" y="2677" on="0"/>
        <pt x="4524" y="2585" on="0"/>
        <pt x="4624" y="2454" on="0"/>
        <pt x="4624" y="2373" on="1"/>
        <pt x="4624" y="2292" on="0"/>
        <pt x="4525" y="2103" on="0"/>
        <pt x="4420" y="1997" on="1"/>
        <pt x="4424" y="1974" on="0"/>
        <pt x="4427" y="1926" on="0"/>
        <pt x="4427" y="1902" on="1"/>
        <pt x="4427" y="1837" on="0"/>
        <pt x="4401" y="1694" on="0"/>
        <pt x="4355" y="1572" on="0"/>
        <pt x="4291" y="1493" on="0"/>
        <pt x="4253" y="1493" on="1"/>
        <pt x="4233" y="1493" on="0"/>
        <pt x="4204" y="1513" on="0"/>
        <pt x="4186" y="1547" on="0"/>
        <pt x="4177" y="1592" on="0"/>
        <pt x="4177" y="1618" on="1"/>
        <pt x="4177" y="1657" on="0"/>
        <pt x="4202" y="1751" on="0"/>
        <pt x="4245" y="1856" on="0"/>
        <pt x="4306" y="1969" on="0"/>
        <pt x="4342" y="2027" on="1"/>
        <pt x="4325" y="2069" on="0"/>
        <pt x="4254" y="2124" on="0"/>
        <pt x="4191" y="2124" on="1"/>
        <pt x="4116" y="2124" on="0"/>
        <pt x="3979" y="2040" on="0"/>
        <pt x="3858" y="1899" on="0"/>
        <pt x="3754" y="1716" on="0"/>
        <pt x="3712" y="1618" on="1"/>
        <pt x="3842" y="1566" on="0"/>
        <pt x="3971" y="1338" on="0"/>
        <pt x="3971" y="1147" on="1"/>
        <pt x="3971" y="1096" on="0"/>
        <pt x="3962" y="987" on="0"/>
        <pt x="3954" y="926" on="1"/>
        <pt x="3916" y="656" on="0"/>
        <pt x="3752" y="390" on="0"/>
        <pt x="3640" y="390" on="1"/>
        <pt x="3586" y="390" on="0"/>
        <pt x="3500" y="462" on="0"/>
        <pt x="3440" y="593" on="0"/>
        <pt x="3408" y="777" on="0"/>
        <pt x="3408" y="890" on="1"/>
        <pt x="3408" y="965" on="0"/>
        <pt x="3423" y="1128" on="0"/>
        <pt x="3455" y="1301" on="0"/>
        <pt x="3505" y="1479" on="0"/>
        <pt x="3541" y="1569" on="1"/>
        <pt x="3503" y="1574" on="0"/>
        <pt x="3422" y="1579" on="0"/>
        <pt x="3379" y="1579" on="1"/>
        <pt x="3287" y="1579" on="0"/>
        <pt x="3127" y="1511" on="0"/>
        <pt x="2994" y="1392" on="0"/>
        <pt x="2890" y="1229" on="0"/>
        <pt x="2853" y="1133" on="1"/>
        <pt x="2842" y="1094" on="0"/>
        <pt x="2822" y="1033" on="0"/>
        <pt x="2813" y="1016" on="1"/>
        <pt x="2759" y="822" on="0"/>
        <pt x="2759" y="616" on="1"/>
        <pt x="2759" y="512" on="0"/>
        <pt x="2788" y="311" on="0"/>
        <pt x="2848" y="131" on="0"/>
        <pt x="2939" y="-21" on="0"/>
        <pt x="3061" y="-132" on="0"/>
        <pt x="3215" y="-194" on="0"/>
        <pt x="3309" y="-194" on="1"/>
        <pt x="3388" y="-194" on="0"/>
        <pt x="3568" y="-167" on="0"/>
        <pt x="3752" y="-105" on="0"/>
        <pt x="3934" y="-5" on="0"/>
        <pt x="4095" y="140" on="0"/>
        <pt x="4228" y="335" on="0"/>
        <pt x="4272" y="460" on="1"/>
        <pt x="4260" y="454" on="0"/>
        <pt x="4236" y="442" on="0"/>
        <pt x="4220" y="442" on="1"/>
        <pt x="4173" y="442" on="0"/>
        <pt x="4127" y="487" on="0"/>
        <pt x="4127" y="512" on="1"/>
        <pt x="4127" y="534" on="0"/>
        <pt x="4159" y="567" on="0"/>
        <pt x="4191" y="567" on="1"/>
        <pt x="4211" y="567" on="0"/>
        <pt x="4258" y="569" on="0"/>
        <pt x="4300" y="572" on="0"/>
        <pt x="4333" y="577" on="0"/>
        <pt x="4339" y="581" on="1"/>
        <pt x="4471" y="660" on="1"/>
        <pt x="4483" y="666" on="0"/>
        <pt x="4493" y="666" on="1"/>
        <pt x="4504" y="666" on="0"/>
        <pt x="4516" y="651" on="0"/>
        <pt x="4516" y="640" on="1"/>
        <pt x="4516" y="622" on="0"/>
        <pt x="4493" y="593" on="0"/>
        <pt x="4447" y="563" on="0"/>
        <pt x="4380" y="525" on="0"/>
        <pt x="4336" y="498" on="1"/>
        <pt x="4337" y="490" on="0"/>
        <pt x="4337" y="476" on="0"/>
        <pt x="4337" y="469" on="1"/>
        <pt x="4337" y="350" on="0"/>
        <pt x="4257" y="148" on="0"/>
        <pt x="4118" y="-17" on="0"/>
        <pt x="3929" y="-142" on="0"/>
        <pt x="3710" y="-227" on="0"/>
        <pt x="3471" y="-270" on="0"/>
        <pt x="3351" y="-270" on="1"/>
        <pt x="3244" y="-270" on="0"/>
        <pt x="3037" y="-235" on="0"/>
        <pt x="2852" y="-163" on="0"/>
        <pt x="2696" y="-55" on="0"/>
        <pt x="2582" y="92" on="0"/>
        <pt x="2518" y="277" on="0"/>
        <pt x="2518" y="390" on="1"/>
        <pt x="2518" y="426" on="0"/>
        <pt x="2524" y="501" on="0"/>
        <pt x="2532" y="543" on="1"/>
        <pt x="2496" y="462" on="0"/>
        <pt x="2413" y="299" on="0"/>
        <pt x="2336" y="158" on="0"/>
        <pt x="2273" y="51" on="0"/>
      </contour>
      <contour>
        <pt x="3904" y="934" on="1"/>
        <pt x="3911" y="983" on="0"/>
        <pt x="3917" y="1072" on="0"/>
        <pt x="3917" y="1112" on="1"/>
        <pt x="3917" y="1203" on="0"/>
        <pt x="3884" y="1342" on="0"/>
        <pt x="3823" y="1444" on="0"/>
        <pt x="3734" y="1514" on="0"/>
        <pt x="3678" y="1536" on="1"/>
        <pt x="3633" y="1418" on="0"/>
        <pt x="3576" y="1199" on="0"/>
        <pt x="3565" y="1120" on="1"/>
        <pt x="3554" y="1039" on="0"/>
        <pt x="3540" y="872" on="0"/>
        <pt x="3540" y="791" on="1"/>
        <pt x="3540" y="723" on="0"/>
        <pt x="3552" y="602" on="0"/>
        <pt x="3579" y="512" on="0"/>
        <pt x="3622" y="460" on="0"/>
        <pt x="3654" y="460" on="1"/>
        <pt x="3687" y="460" on="0"/>
        <pt x="3759" y="508" on="0"/>
        <pt x="3827" y="619" on="0"/>
        <pt x="3885" y="800" on="0"/>
      </contour>
      <contour>
        <pt x="2517" y="1010" on="1"/>
        <pt x="2546" y="1071" on="0"/>
        <pt x="2617" y="1208" on="0"/>
        <pt x="2679" y="1343" on="0"/>
        <pt x="2721" y="1468" on="0"/>
        <pt x="2721" y="1516" on="1"/>
        <pt x="2721" y="1561" on="0"/>
        <pt x="2687" y="1599" on="0"/>
        <pt x="2658" y="1599" on="1"/>
        <pt x="2622" y="1599" on="0"/>
        <pt x="2521" y="1549" on="0"/>
        <pt x="2408" y="1465" on="0"/>
        <pt x="2292" y="1357" on="0"/>
        <pt x="2189" y="1241" on="0"/>
        <pt x="2107" y="1126" on="0"/>
        <pt x="2086" y="1077" on="1"/>
        <pt x="2098" y="1061" on="0"/>
        <pt x="2184" y="1036" on="0"/>
        <pt x="2306" y="1019" on="0"/>
        <pt x="2449" y="1010" on="0"/>
      </contour>
      <contour>
        <pt x="4356" y="1786" on="1"/>
        <pt x="4359" y="1809" on="0"/>
        <pt x="4364" y="1866" on="0"/>
        <pt x="4364" y="1896" on="1"/>
        <pt x="4364" y="1918" on="1"/>
        <pt x="4307" y="1836" on="0"/>
        <pt x="4238" y="1681" on="0"/>
        <pt x="4238" y="1618" on="1"/>
        <pt x="4238" y="1595" on="0"/>
        <pt x="4250" y="1565" on="0"/>
        <pt x="4264" y="1565" on="1"/>
        <pt x="4280" y="1565" on="0"/>
        <pt x="4308" y="1603" on="0"/>
        <pt x="4332" y="1665" on="0"/>
        <pt x="4350" y="1745" on="0"/>
      </contour>
    </TTGlyph>
    <TTGlyph name="AEacute" xMin="25" yMin="-270" xMax="4780" yMax="2726">
      <component glyphName="AE" x="156" y="0" flags="0x204"/>
      <component glyphName="acute" x="2412" y="1733" flags="0x4"/>
    </TTGlyph>
    <TTGlyph name="Aacute" xMin="-644" yMin="-99" xMax="3636" yMax="2367">
      <component glyphName="A" x="156" y="0" flags="0x4"/>
      <component glyphName="acute" x="2050" y="1566" flags="0x4"/>
    </TTGlyph>
    <TTGlyph name="Abreve" xMin="0" yMin="-99" xMax="4280" yMax="2289">
      <component glyphName="A" x="800" y="0" flags="0x4"/>
      <component glyphName="breve" x="2964" y="1803" flags="0x4"/>
    </TTGlyph>
    <TTGlyph name="Acircumflex" xMin="-644" yMin="-99" xMax="3636" yMax="2220">
      <component glyphName="A" x="156" y="0" flags="0x4"/>
      <component glyphName="circumflex" x="1553" y="1640" flags="0x4"/>
    </TTGlyph>
    <TTGlyph name="Adieresis" xMin="-644" yMin="-99" xMax="3636" yMax="2231">
      <component glyphName="A" x="156" y="0" flags="0x4"/>
      <component glyphName="dieresis" x="2474" y="1915" flags="0x4"/>
    </TTGlyph>
    <TTGlyph name="Agrave" xMin="-644" yMin="-99" xMax="3636" yMax="2450">
      <component glyphName="A" x="156" y="0" flags="0x4"/>
      <component glyphName="grave" x="1998" y="1649" flags="0x4"/>
    </TTGlyph>
    <TTGlyph name="Amacron" xMin="0" yMin="-99" xMax="4280" yMax="2088">
      <component glyphName="A" x="800" y="0" flags="0x4"/>
      <component glyphName="macron" x="2902" y="1941" flags="0x4"/>
    </TTGlyph>
    <TTGlyph name="Aogonek" xMin="0" yMin="-688" xMax="4280" yMax="1972">
      <component glyphName="A" x="800" y="0" flags="0x4"/>
      <component glyphName="ogonek" x="2656" y="0" flags="0x4"/>
    </TTGlyph>
    <TTGlyph name="Aring" xMin="-644" yMin="-99" xMax="3636" yMax="2133">
      <component glyphName="A" x="156" y="0" flags="0x4"/>
      <component glyphName="ring" x="2224" y="1629" flags="0x4"/>
    </TTGlyph>
    <TTGlyph name="Atilde" xMin="-644" yMin="-99" xMax="3636" yMax="2245">
      <component glyphName="A" x="156" y="0" flags="0x4"/>
      <component glyphName="tilde" x="2387" y="1830" flags="0x4"/>
    </TTGlyph>
    <TTGlyph name="B" xMin="0" yMin="-636" xMax="3362" yMax="2020">
      <contour>
        <pt x="0" y="516" on="1"/>
        <pt x="0" y="630" on="0"/>
        <pt x="68" y="858" on="0"/>
        <pt x="199" y="1068" on="0"/>
        <pt x="387" y="1249" on="0"/>
        <pt x="628" y="1383" on="0"/>
        <pt x="916" y="1459" on="0"/>
        <pt x="1081" y="1459" on="1"/>
        <pt x="1228" y="1459" on="0"/>
        <pt x="1474" y="1412" on="0"/>
        <pt x="1671" y="1335" on="0"/>
        <pt x="1819" y="1240" on="0"/>
        <pt x="1867" y="1192" on="1"/>
        <pt x="1910" y="1311" on="0"/>
        <pt x="1999" y="1527" on="0"/>
        <pt x="2105" y="1711" on="0"/>
        <pt x="2236" y="1859" on="0"/>
        <pt x="2407" y="1964" on="0"/>
        <pt x="2625" y="2020" on="0"/>
        <pt x="2765" y="2020" on="1"/>
        <pt x="2863" y="2020" on="0"/>
        <pt x="3016" y="1959" on="0"/>
        <pt x="3122" y="1853" on="0"/>
        <pt x="3177" y="1709" on="0"/>
        <pt x="3177" y="1627" on="1"/>
        <pt x="3177" y="1543" on="0"/>
        <pt x="3117" y="1381" on="0"/>
        <pt x="2992" y="1224" on="0"/>
        <pt x="2800" y="1072" on="0"/>
        <pt x="2667" y="998" on="1"/>
        <pt x="2788" y="988" on="0"/>
        <pt x="2966" y="895" on="0"/>
        <pt x="3083" y="752" on="0"/>
        <pt x="3141" y="570" on="0"/>
        <pt x="3141" y="472" on="1"/>
        <pt x="3141" y="388" on="0"/>
        <pt x="3122" y="308" on="1"/>
        <pt x="3152" y="324" on="0"/>
        <pt x="3219" y="360" on="0"/>
        <pt x="3248" y="376" on="1"/>
        <pt x="3313" y="411" on="1"/>
        <pt x="3328" y="417" on="0"/>
        <pt x="3338" y="417" on="1"/>
        <pt x="3362" y="417" on="0"/>
        <pt x="3362" y="393" on="1"/>
        <pt x="3362" y="376" on="0"/>
        <pt x="3339" y="348" on="0"/>
        <pt x="3302" y="323" on="0"/>
        <pt x="3255" y="298" on="0"/>
        <pt x="3231" y="285" on="1"/>
        <pt x="3196" y="265" on="0"/>
        <pt x="3140" y="229" on="0"/>
        <pt x="3107" y="211" on="1"/>
        <pt x="3063" y="9" on="0"/>
        <pt x="2875" y="-306" on="0"/>
        <pt x="2615" y="-523" on="0"/>
        <pt x="2295" y="-636" on="0"/>
        <pt x="2120" y="-636" on="1"/>
        <pt x="2040" y="-636" on="0"/>
        <pt x="1883" y="-608" on="0"/>
        <pt x="1737" y="-559" on="0"/>
        <pt x="1605" y="-494" on="0"/>
        <pt x="1494" y="-420" on="0"/>
        <pt x="1408" y="-342" on="0"/>
        <pt x="1381" y="-305" on="1"/>
        <pt x="1178" y="-305" on="0"/>
        <pt x="816" y="-270" on="0"/>
        <pt x="510" y="-192" on="0"/>
        <pt x="264" y="-65" on="0"/>
        <pt x="92" y="117" on="0"/>
        <pt x="0" y="360" on="0"/>
      </contour>
      <contour>
        <pt x="1354" y="834" on="1"/>
        <pt x="1354" y="847" on="0"/>
        <pt x="1422" y="885" on="0"/>
        <pt x="1540" y="926" on="0"/>
        <pt x="1702" y="968" on="0"/>
        <pt x="1797" y="986" on="1"/>
        <pt x="1845" y="1131" on="1"/>
        <pt x="1798" y="1174" on="0"/>
        <pt x="1672" y="1246" on="0"/>
        <pt x="1494" y="1298" on="0"/>
        <pt x="1252" y="1328" on="0"/>
        <pt x="1090" y="1328" on="1"/>
        <pt x="929" y="1328" on="0"/>
        <pt x="656" y="1266" on="0"/>
        <pt x="433" y="1157" on="0"/>
        <pt x="262" y="1009" on="0"/>
        <pt x="146" y="836" on="0"/>
        <pt x="87" y="646" on="0"/>
        <pt x="87" y="551" on="1"/>
        <pt x="87" y="461" on="0"/>
        <pt x="149" y="287" on="0"/>
        <pt x="265" y="130" on="0"/>
        <pt x="433" y="-4" on="0"/>
        <pt x="644" y="-101" on="0"/>
        <pt x="896" y="-156" on="0"/>
        <pt x="1039" y="-156" on="1"/>
        <pt x="1045" y="-156" on="1"/>
        <pt x="1043" y="-142" on="0"/>
        <pt x="1041" y="-117" on="0"/>
        <pt x="1041" y="-105" on="1"/>
        <pt x="1041" y="-57" on="0"/>
        <pt x="1070" y="11" on="0"/>
        <pt x="1118" y="55" on="0"/>
        <pt x="1180" y="75" on="0"/>
        <pt x="1213" y="75" on="1"/>
        <pt x="1255" y="75" on="0"/>
        <pt x="1338" y="49" on="0"/>
        <pt x="1370" y="25" on="1"/>
        <pt x="1431" y="87" on="0"/>
        <pt x="1531" y="246" on="0"/>
        <pt x="1616" y="430" on="0"/>
        <pt x="1689" y="633" on="0"/>
        <pt x="1724" y="740" on="1"/>
        <pt x="1673" y="737" on="0"/>
        <pt x="1572" y="735" on="0"/>
        <pt x="1518" y="735" on="1"/>
        <pt x="1442" y="735" on="0"/>
        <pt x="1354" y="783" on="0"/>
      </contour>
      <contour>
        <pt x="1470" y="-208" on="1"/>
        <pt x="1633" y="-195" on="0"/>
        <pt x="1973" y="-137" on="0"/>
        <pt x="2325" y="-39" on="0"/>
        <pt x="2692" y="102" on="0"/>
        <pt x="2883" y="198" on="1"/>
        <pt x="2893" y="244" on="0"/>
        <pt x="2912" y="368" on="0"/>
        <pt x="2912" y="456" on="1"/>
        <pt x="2912" y="507" on="0"/>
        <pt x="2900" y="616" on="0"/>
        <pt x="2869" y="720" on="0"/>
        <pt x="2817" y="813" on="0"/>
        <pt x="2735" y="886" on="0"/>
        <pt x="2622" y="932" on="0"/>
        <pt x="2546" y="936" on="1"/>
        <pt x="2483" y="909" on="0"/>
        <pt x="2363" y="861" on="0"/>
        <pt x="2233" y="819" on="0"/>
        <pt x="2087" y="784" on="0"/>
        <pt x="1997" y="771" on="1"/>
        <pt x="1966" y="630" on="0"/>
        <pt x="1880" y="357" on="0"/>
        <pt x="1752" y="114" on="0"/>
        <pt x="1574" y="-87" on="0"/>
        <pt x="1453" y="-156" on="1"/>
        <pt x="1456" y="-169" on="0"/>
        <pt x="1465" y="-194" on="0"/>
      </contour>
      <contour>
        <pt x="2291" y="1044" on="1"/>
        <pt x="2396" y="1044" on="0"/>
        <pt x="2492" y="1032" on="1"/>
        <pt x="2760" y="1180" on="0"/>
        <pt x="3025" y="1497" on="0"/>
        <pt x="3025" y="1661" on="1"/>
        <pt x="3025" y="1721" on="0"/>
        <pt x="2986" y="1823" on="0"/>
        <pt x="2908" y="1897" on="0"/>
        <pt x="2789" y="1939" on="0"/>
        <pt x="2710" y="1939" on="1"/>
        <pt x="2581" y="1939" on="0"/>
        <pt x="2399" y="1875" on="0"/>
        <pt x="2271" y="1758" on="0"/>
        <pt x="2188" y="1593" on="0"/>
        <pt x="2128" y="1391" on="0"/>
        <pt x="2080" y="1157" on="0"/>
        <pt x="2053" y="1029" on="1"/>
        <pt x="2090" y="1032" on="0"/>
        <pt x="2146" y="1037" on="0"/>
        <pt x="2198" y="1042" on="0"/>
        <pt x="2254" y="1044" on="0"/>
      </contour>
      <contour>
        <pt x="2870" y="96" on="1"/>
        <pt x="2781" y="53" on="0"/>
        <pt x="2600" y="-39" on="0"/>
        <pt x="2404" y="-127" on="0"/>
        <pt x="2189" y="-206" on="0"/>
        <pt x="1944" y="-267" on="0"/>
        <pt x="1663" y="-304" on="0"/>
        <pt x="1500" y="-306" on="1"/>
        <pt x="1545" y="-349" on="0"/>
        <pt x="1676" y="-439" on="0"/>
        <pt x="1829" y="-513" on="0"/>
        <pt x="1997" y="-560" on="0"/>
        <pt x="2079" y="-560" on="1"/>
        <pt x="2245" y="-560" on="0"/>
        <pt x="2509" y="-457" on="0"/>
        <pt x="2706" y="-278" on="0"/>
        <pt x="2837" y="-39" on="0"/>
      </contour>
      <contour>
        <pt x="2033" y="933" on="1"/>
        <pt x="2029" y="914" on="0"/>
        <pt x="2023" y="877" on="0"/>
        <pt x="2017" y="859" on="1"/>
        <pt x="2072" y="868" on="0"/>
        <pt x="2157" y="890" on="0"/>
        <pt x="2234" y="917" on="0"/>
        <pt x="2309" y="948" on="0"/>
        <pt x="2356" y="966" on="1"/>
        <pt x="2347" y="967" on="0"/>
        <pt x="2333" y="967" on="0"/>
        <pt x="2324" y="967" on="1"/>
        <pt x="2282" y="964" on="0"/>
        <pt x="2214" y="958" on="0"/>
        <pt x="2149" y="950" on="0"/>
        <pt x="2078" y="940" on="0"/>
      </contour>
      <contour>
        <pt x="1523" y="836" on="1"/>
        <pt x="1568" y="832" on="0"/>
        <pt x="1656" y="829" on="0"/>
        <pt x="1699" y="829" on="1"/>
        <pt x="1744" y="829" on="1"/>
        <pt x="1748" y="840" on="0"/>
        <pt x="1754" y="860" on="0"/>
        <pt x="1758" y="870" on="1"/>
        <pt x="1686" y="856" on="0"/>
        <pt x="1569" y="836" on="0"/>
      </contour>
    </TTGlyph>
    <TTGlyph name="C" xMin="150" yMin="-67" xMax="2668" yMax="2200">
      <contour>
        <pt x="1459" y="2045" on="1"/>
        <pt x="1568" y="2045" on="0"/>
        <pt x="1732" y="2008" on="0"/>
        <pt x="1795" y="1976" on="1"/>
        <pt x="1889" y="2027" on="0"/>
        <pt x="2093" y="2110" on="0"/>
        <pt x="2303" y="2168" on="0"/>
        <pt x="2515" y="2200" on="0"/>
        <pt x="2617" y="2200" on="1"/>
        <pt x="2641" y="2200" on="0"/>
        <pt x="2668" y="2177" on="0"/>
        <pt x="2668" y="2163" on="1"/>
        <pt x="2668" y="2152" on="0"/>
        <pt x="2646" y="2134" on="0"/>
        <pt x="2623" y="2134" on="1"/>
        <pt x="2544" y="2134" on="0"/>
        <pt x="2358" y="2103" on="0"/>
        <pt x="2163" y="2047" on="0"/>
        <pt x="1968" y="1967" on="0"/>
        <pt x="1880" y="1918" on="1"/>
        <pt x="1947" y="1858" on="0"/>
        <pt x="2007" y="1698" on="0"/>
        <pt x="2007" y="1604" on="1"/>
        <pt x="2007" y="1496" on="0"/>
        <pt x="1944" y="1265" on="0"/>
        <pt x="1835" y="1042" on="0"/>
        <pt x="1687" y="842" on="0"/>
        <pt x="1518" y="692" on="0"/>
        <pt x="1336" y="603" on="0"/>
        <pt x="1247" y="603" on="1"/>
        <pt x="1176" y="603" on="0"/>
        <pt x="1074" y="639" on="0"/>
        <pt x="1008" y="704" on="0"/>
        <pt x="976" y="795" on="0"/>
        <pt x="976" y="851" on="1"/>
        <pt x="976" y="929" on="0"/>
        <pt x="1026" y="1111" on="0"/>
        <pt x="1119" y="1304" on="0"/>
        <pt x="1251" y="1502" on="0"/>
        <pt x="1416" y="1690" on="0"/>
        <pt x="1611" y="1863" on="0"/>
        <pt x="1719" y="1934" on="1"/>
        <pt x="1665" y="1959" on="0"/>
        <pt x="1529" y="1986" on="0"/>
        <pt x="1444" y="1986" on="1"/>
        <pt x="1308" y="1986" on="0"/>
        <pt x="1075" y="1910" on="0"/>
        <pt x="880" y="1777" on="0"/>
        <pt x="721" y="1595" on="0"/>
        <pt x="597" y="1382" on="0"/>
        <pt x="506" y="1147" on="0"/>
        <pt x="447" y="908" on="0"/>
        <pt x="418" y="674" on="0"/>
        <pt x="418" y="568" on="1"/>
        <pt x="418" y="460" on="0"/>
        <pt x="491" y="262" on="0"/>
        <pt x="629" y="109" on="0"/>
        <pt x="830" y="18" on="0"/>
        <pt x="958" y="18" on="1"/>
        <pt x="1014" y="18" on="0"/>
        <pt x="1152" y="60" on="0"/>
        <pt x="1303" y="127" on="0"/>
        <pt x="1460" y="212" on="0"/>
        <pt x="1609" y="299" on="0"/>
        <pt x="1743" y="381" on="0"/>
        <pt x="1796" y="411" on="1"/>
        <pt x="1800" y="414" on="0"/>
        <pt x="1806" y="414" on="1"/>
        <pt x="1817" y="414" on="0"/>
        <pt x="1833" y="394" on="0"/>
        <pt x="1833" y="380" on="1"/>
        <pt x="1833" y="367" on="0"/>
        <pt x="1816" y="339" on="0"/>
        <pt x="1796" y="328" on="1"/>
        <pt x="1726" y="289" on="0"/>
        <pt x="1582" y="201" on="0"/>
        <pt x="1433" y="113" on="0"/>
        <pt x="1279" y="32" on="0"/>
        <pt x="1120" y="-30" on="0"/>
        <pt x="955" y="-67" on="0"/>
        <pt x="870" y="-67" on="1"/>
        <pt x="682" y="-67" on="0"/>
        <pt x="411" y="35" on="0"/>
        <pt x="234" y="211" on="0"/>
        <pt x="150" y="447" on="0"/>
        <pt x="150" y="581" on="1"/>
        <pt x="150" y="739" on="0"/>
        <pt x="232" y="1079" on="0"/>
        <pt x="389" y="1404" on="0"/>
        <pt x="616" y="1696" on="0"/>
        <pt x="907" y="1916" on="0"/>
        <pt x="1258" y="2045" on="0"/>
      </contour>
      <contour>
        <pt x="1360" y="735" on="1"/>
        <pt x="1433" y="735" on="0"/>
        <pt x="1577" y="806" on="0"/>
        <pt x="1706" y="928" on="0"/>
        <pt x="1816" y="1091" on="0"/>
        <pt x="1897" y="1273" on="0"/>
        <pt x="1942" y="1467" on="0"/>
        <pt x="1942" y="1558" on="1"/>
        <pt x="1942" y="1652" on="0"/>
        <pt x="1880" y="1816" on="0"/>
        <pt x="1810" y="1876" on="1"/>
        <pt x="1717" y="1812" on="0"/>
        <pt x="1550" y="1656" on="0"/>
        <pt x="1408" y="1487" on="0"/>
        <pt x="1294" y="1310" on="0"/>
        <pt x="1214" y="1139" on="0"/>
        <pt x="1171" y="983" on="0"/>
        <pt x="1171" y="918" on="1"/>
        <pt x="1171" y="835" on="0"/>
        <pt x="1261" y="735" on="0"/>
      </contour>
    </TTGlyph>
    <TTGlyph name="Cacute" xMin="150" yMin="-67" xMax="2668" yMax="2833">
      <component glyphName="C" x="0" y="0" flags="0x204"/>
      <component glyphName="acute" x="803" y="2032" flags="0x4"/>
    </TTGlyph>
    <TTGlyph name="Ccaron" xMin="150" yMin="-67" xMax="2668" yMax="2460">
      <component glyphName="C" x="0" y="0" flags="0x204"/>
      <component glyphName="caron" x="283" y="1911" flags="0x4"/>
    </TTGlyph>
    <TTGlyph name="Ccedilla" xMin="-118" yMin="-472" xMax="2400" yMax="2200">
      <component glyphName="C" x="-268" y="0" flags="0x4"/>
      <component glyphName="cedilla" x="-203" y="-53" flags="0x4"/>
    </TTGlyph>
    <TTGlyph name="Ccircumflex" xMin="150" yMin="-67" xMax="2668" yMax="2574">
      <component glyphName="C" x="0" y="0" flags="0x204"/>
      <component glyphName="circumflex" x="258" y="1994" flags="0x4"/>
    </TTGlyph>
    <TTGlyph name="Cdotaccent" xMin="150" yMin="-67" xMax="2668" yMax="2441">
      <component glyphName="C" x="0" y="0" flags="0x204"/>
      <component glyphName="period" x="1273" y="1996" flags="0x4"/>
    </TTGlyph>
    <TTGlyph name="D" xMin="0" yMin="-43" xMax="2485" yMax="2148">
      <contour>
        <pt x="2046" y="1937" on="1"/>
        <pt x="2066" y="1937" on="0"/>
        <pt x="2087" y="1914" on="0"/>
        <pt x="2087" y="1898" on="1"/>
        <pt x="2087" y="1887" on="0"/>
        <pt x="2061" y="1864" on="0"/>
        <pt x="2022" y="1841" on="0"/>
        <pt x="1979" y="1818" on="0"/>
        <pt x="1961" y="1806" on="1"/>
        <pt x="2040" y="1729" on="0"/>
        <pt x="2165" y="1547" on="0"/>
        <pt x="2253" y="1337" on="0"/>
        <pt x="2300" y="1103" on="0"/>
        <pt x="2300" y="975" on="1"/>
        <pt x="2300" y="833" on="0"/>
        <pt x="2211" y="596" on="0"/>
        <pt x="2054" y="402" on="0"/>
        <pt x="1841" y="249" on="0"/>
        <pt x="1717" y="191" on="1"/>
        <pt x="1743" y="169" on="0"/>
        <pt x="1809" y="150" on="0"/>
        <pt x="1847" y="150" on="1"/>
        <pt x="1891" y="150" on="0"/>
        <pt x="1990" y="173" on="0"/>
        <pt x="2091" y="209" on="0"/>
        <pt x="2191" y="256" on="0"/>
        <pt x="2236" y="280" on="1"/>
        <pt x="2290" y="309" on="0"/>
        <pt x="2394" y="374" on="0"/>
        <pt x="2448" y="411" on="1"/>
        <pt x="2452" y="414" on="0"/>
        <pt x="2459" y="414" on="1"/>
        <pt x="2469" y="414" on="0"/>
        <pt x="2485" y="396" on="0"/>
        <pt x="2485" y="382" on="1"/>
        <pt x="2485" y="369" on="0"/>
        <pt x="2457" y="336" on="0"/>
        <pt x="2411" y="300" on="0"/>
        <pt x="2353" y="263" on="0"/>
        <pt x="2292" y="228" on="0"/>
        <pt x="2234" y="197" on="0"/>
        <pt x="2212" y="186" on="1"/>
        <pt x="2161" y="159" on="0"/>
        <pt x="2045" y="108" on="0"/>
        <pt x="1924" y="69" on="0"/>
        <pt x="1801" y="45" on="0"/>
        <pt x="1743" y="45" on="1"/>
        <pt x="1695" y="45" on="0"/>
        <pt x="1606" y="65" on="0"/>
        <pt x="1566" y="86" on="1"/>
        <pt x="1518" y="111" on="1"/>
        <pt x="1415" y="76" on="0"/>
        <pt x="1203" y="26" on="0"/>
        <pt x="996" y="-5" on="0"/>
        <pt x="801" y="-20" on="0"/>
        <pt x="715" y="-20" on="1"/>
        <pt x="643" y="-20" on="0"/>
        <pt x="497" y="8" on="0"/>
        <pt x="422" y="25" on="1"/>
        <pt x="350" y="-7" on="0"/>
        <pt x="200" y="-43" on="0"/>
        <pt x="119" y="-43" on="1"/>
        <pt x="99" y="-43" on="0"/>
        <pt x="57" y="-31" on="0"/>
        <pt x="22" y="-7" on="0"/>
        <pt x="0" y="29" on="0"/>
        <pt x="0" y="53" on="1"/>
        <pt x="0" y="81" on="0"/>
        <pt x="37" y="116" on="0"/>
        <pt x="90" y="135" on="0"/>
        <pt x="149" y="141" on="0"/>
        <pt x="172" y="141" on="1"/>
        <pt x="205" y="141" on="0"/>
        <pt x="271" y="136" on="0"/>
        <pt x="303" y="131" on="1"/>
        <pt x="416" y="211" on="0"/>
        <pt x="615" y="408" on="0"/>
        <pt x="797" y="628" on="0"/>
        <pt x="968" y="864" on="0"/>
        <pt x="1137" y="1104" on="0"/>
        <pt x="1309" y="1341" on="0"/>
        <pt x="1493" y="1560" on="0"/>
        <pt x="1696" y="1756" on="0"/>
        <pt x="1811" y="1835" on="1"/>
        <pt x="1692" y="1938" on="0"/>
        <pt x="1348" y="2060" on="0"/>
        <pt x="1122" y="2060" on="1"/>
        <pt x="1015" y="2060" on="0"/>
        <pt x="785" y="2024" on="0"/>
        <pt x="565" y="1948" on="0"/>
        <pt x="367" y="1831" on="0"/>
        <pt x="218" y="1669" on="0"/>
        <pt x="131" y="1460" on="0"/>
        <pt x="131" y="1331" on="1"/>
        <pt x="131" y="1251" on="0"/>
        <pt x="164" y="1141" on="0"/>
        <pt x="223" y="1072" on="0"/>
        <pt x="304" y="1041" on="0"/>
        <pt x="352" y="1041" on="1"/>
        <pt x="418" y="1041" on="0"/>
        <pt x="568" y="1093" on="0"/>
        <pt x="716" y="1180" on="0"/>
        <pt x="853" y="1293" on="0"/>
        <pt x="958" y="1414" on="0"/>
        <pt x="1020" y="1534" on="0"/>
        <pt x="1020" y="1585" on="1"/>
        <pt x="1020" y="1614" on="0"/>
        <pt x="1006" y="1645" on="1"/>
        <pt x="1003" y="1649" on="0"/>
        <pt x="1003" y="1654" on="1"/>
        <pt x="1003" y="1660" on="0"/>
        <pt x="1013" y="1670" on="0"/>
        <pt x="1026" y="1677" on="0"/>
        <pt x="1041" y="1681" on="0"/>
        <pt x="1047" y="1681" on="1"/>
        <pt x="1062" y="1681" on="0"/>
        <pt x="1086" y="1660" on="0"/>
        <pt x="1086" y="1640" on="1"/>
        <pt x="1086" y="1634" on="1"/>
        <pt x="1114" y="1565" on="0"/>
        <pt x="1114" y="1493" on="1"/>
        <pt x="1114" y="1420" on="0"/>
        <pt x="1056" y="1288" on="0"/>
        <pt x="957" y="1176" on="0"/>
        <pt x="824" y="1087" on="0"/>
        <pt x="675" y="1024" on="0"/>
        <pt x="516" y="990" on="0"/>
        <pt x="440" y="990" on="1"/>
        <pt x="362" y="990" on="0"/>
        <pt x="222" y="1029" on="0"/>
        <pt x="117" y="1111" on="0"/>
        <pt x="55" y="1241" on="0"/>
        <pt x="55" y="1331" on="1"/>
        <pt x="55" y="1461" on="0"/>
        <pt x="139" y="1683" on="0"/>
        <pt x="284" y="1865" on="0"/>
        <pt x="480" y="2004" on="0"/>
        <pt x="704" y="2099" on="0"/>
        <pt x="946" y="2148" on="0"/>
        <pt x="1065" y="2148" on="1"/>
        <pt x="1304" y="2148" on="0"/>
        <pt x="1714" y="2010" on="0"/>
        <pt x="1880" y="1878" on="1"/>
        <pt x="1917" y="1898" on="0"/>
        <pt x="1995" y="1929" on="0"/>
        <pt x="2040" y="1937" on="1"/>
      </contour>
      <contour>
        <pt x="1476" y="289" on="1"/>
        <pt x="1523" y="315" on="0"/>
        <pt x="1561" y="315" on="1"/>
        <pt x="1577" y="315" on="0"/>
        <pt x="1601" y="307" on="1"/>
        <pt x="1721" y="391" on="0"/>
        <pt x="1903" y="601" on="0"/>
        <pt x="2026" y="835" on="0"/>
        <pt x="2088" y="1083" on="0"/>
        <pt x="2088" y="1205" on="1"/>
        <pt x="2088" y="1361" on="0"/>
        <pt x="1991" y="1641" on="0"/>
        <pt x="1891" y="1756" on="1"/>
        <pt x="1803" y="1685" on="0"/>
        <pt x="1637" y="1495" on="0"/>
        <pt x="1475" y="1274" on="0"/>
        <pt x="1317" y="1032" on="0"/>
        <pt x="1157" y="787" on="0"/>
        <pt x="992" y="549" on="0"/>
        <pt x="819" y="334" on="0"/>
        <pt x="634" y="152" on="0"/>
        <pt x="534" y="87" on="1"/>
        <pt x="591" y="76" on="0"/>
        <pt x="704" y="61" on="0"/>
        <pt x="762" y="61" on="1"/>
        <pt x="954" y="61" on="0"/>
        <pt x="1275" y="133" on="0"/>
        <pt x="1414" y="199" on="1"/>
        <pt x="1411" y="206" on="0"/>
        <pt x="1411" y="216" on="1"/>
        <pt x="1411" y="233" on="0"/>
        <pt x="1441" y="269" on="0"/>
      </contour>
      <contour>
        <pt x="131" y="37" on="1"/>
        <pt x="166" y="37" on="0"/>
        <pt x="204" y="61" on="1"/>
        <pt x="189" y="61" on="1"/>
        <pt x="163" y="61" on="0"/>
        <pt x="112" y="55" on="0"/>
        <pt x="90" y="47" on="1"/>
        <pt x="100" y="41" on="0"/>
        <pt x="120" y="37" on="0"/>
      </contour>
    </TTGlyph>
    <TTGlyph name="Dcaron" xMin="0" yMin="-43" xMax="2485" yMax="2641">
      <component glyphName="D" x="0" y="0" flags="0x204"/>
      <component glyphName="caron" x="422" y="2092" flags="0x4"/>
    </TTGlyph>
    <TTGlyph name="Dcroat" xMin="0" yMin="-43" xMax="2485" yMax="2148">
      <component glyphName="D" x="0" y="0" flags="0x204"/>
      <component glyphName="macron" x="382" y="812" flags="0x4"/>
    </TTGlyph>
    <TTGlyph name="E" xMin="-83" yMin="-521" xMax="2153" yMax="2144">
      <contour>
        <pt x="1682" y="193" on="1"/>
        <pt x="1635" y="193" on="0"/>
        <pt x="1589" y="238" on="0"/>
        <pt x="1589" y="263" on="1"/>
        <pt x="1589" y="285" on="0"/>
        <pt x="1621" y="318" on="0"/>
        <pt x="1653" y="318" on="1"/>
        <pt x="1673" y="318" on="0"/>
        <pt x="1720" y="320" on="0"/>
        <pt x="1762" y="323" on="0"/>
        <pt x="1795" y="328" on="0"/>
        <pt x="1801" y="332" on="1"/>
        <pt x="1933" y="411" on="1"/>
        <pt x="1945" y="417" on="0"/>
        <pt x="1955" y="417" on="1"/>
        <pt x="1966" y="417" on="0"/>
        <pt x="1978" y="402" on="0"/>
        <pt x="1978" y="391" on="1"/>
        <pt x="1978" y="373" on="0"/>
        <pt x="1955" y="344" on="0"/>
        <pt x="1909" y="314" on="0"/>
        <pt x="1842" y="276" on="0"/>
        <pt x="1798" y="249" on="1"/>
        <pt x="1799" y="241" on="0"/>
        <pt x="1799" y="227" on="0"/>
        <pt x="1799" y="220" on="1"/>
        <pt x="1799" y="83" on="0"/>
        <pt x="1700" y="-133" on="0"/>
        <pt x="1532" y="-298" on="0"/>
        <pt x="1311" y="-414" on="0"/>
        <pt x="1068" y="-487" on="0"/>
        <pt x="818" y="-521" on="0"/>
        <pt x="704" y="-521" on="1"/>
        <pt x="569" y="-521" on="0"/>
        <pt x="347" y="-456" on="0"/>
        <pt x="172" y="-339" on="0"/>
        <pt x="43" y="-178" on="0"/>
        <pt x="-42" y="13" on="0"/>
        <pt x="-83" y="227" on="0"/>
        <pt x="-83" y="339" on="1"/>
        <pt x="-83" y="469" on="0"/>
        <pt x="-28" y="730" on="0"/>
        <pt x="79" y="970" on="0"/>
        <pt x="237" y="1178" on="0"/>
        <pt x="443" y="1331" on="0"/>
        <pt x="696" y="1419" on="0"/>
        <pt x="845" y="1419" on="1"/>
        <pt x="899" y="1419" on="0"/>
        <pt x="995" y="1412" on="0"/>
        <pt x="1038" y="1405" on="1"/>
        <pt x="1090" y="1519" on="0"/>
        <pt x="1225" y="1722" on="0"/>
        <pt x="1384" y="1874" on="0"/>
        <pt x="1566" y="1963" on="0"/>
        <pt x="1666" y="1963" on="1"/>
        <pt x="1738" y="1963" on="0"/>
        <pt x="1826" y="1901" on="0"/>
        <pt x="1851" y="1850" on="1"/>
        <pt x="1890" y="1909" on="0"/>
        <pt x="1968" y="2013" on="0"/>
        <pt x="2032" y="2093" on="0"/>
        <pt x="2078" y="2141" on="0"/>
        <pt x="2085" y="2144" on="1"/>
        <pt x="2092" y="2136" on="0"/>
        <pt x="2113" y="2116" on="0"/>
        <pt x="2133" y="2094" on="0"/>
        <pt x="2150" y="2071" on="0"/>
        <pt x="2153" y="2061" on="1"/>
        <pt x="2138" y="2044" on="0"/>
        <pt x="2080" y="1982" on="0"/>
        <pt x="2006" y="1899" on="0"/>
        <pt x="1922" y="1801" on="0"/>
        <pt x="1882" y="1748" on="1"/>
        <pt x="1886" y="1725" on="0"/>
        <pt x="1889" y="1677" on="0"/>
        <pt x="1889" y="1653" on="1"/>
        <pt x="1889" y="1588" on="0"/>
        <pt x="1863" y="1445" on="0"/>
        <pt x="1817" y="1323" on="0"/>
        <pt x="1753" y="1244" on="0"/>
        <pt x="1715" y="1244" on="1"/>
        <pt x="1695" y="1244" on="0"/>
        <pt x="1666" y="1264" on="0"/>
        <pt x="1648" y="1298" on="0"/>
        <pt x="1639" y="1343" on="0"/>
        <pt x="1639" y="1369" on="1"/>
        <pt x="1639" y="1408" on="0"/>
        <pt x="1664" y="1502" on="0"/>
        <pt x="1707" y="1607" on="0"/>
        <pt x="1768" y="1720" on="0"/>
        <pt x="1804" y="1778" on="1"/>
        <pt x="1787" y="1820" on="0"/>
        <pt x="1716" y="1875" on="0"/>
        <pt x="1653" y="1875" on="1"/>
        <pt x="1578" y="1875" on="0"/>
        <pt x="1441" y="1791" on="0"/>
        <pt x="1320" y="1650" on="0"/>
        <pt x="1216" y="1467" on="0"/>
        <pt x="1174" y="1369" on="1"/>
        <pt x="1304" y="1317" on="0"/>
        <pt x="1433" y="1089" on="0"/>
        <pt x="1433" y="898" on="1"/>
        <pt x="1433" y="847" on="0"/>
        <pt x="1424" y="738" on="0"/>
        <pt x="1416" y="677" on="1"/>
        <pt x="1378" y="407" on="0"/>
        <pt x="1214" y="141" on="0"/>
        <pt x="1102" y="141" on="1"/>
        <pt x="1048" y="141" on="0"/>
        <pt x="962" y="213" on="0"/>
        <pt x="902" y="344" on="0"/>
        <pt x="870" y="528" on="0"/>
        <pt x="870" y="641" on="1"/>
        <pt x="870" y="716" on="0"/>
        <pt x="885" y="879" on="0"/>
        <pt x="917" y="1052" on="0"/>
        <pt x="967" y="1230" on="0"/>
        <pt x="1003" y="1320" on="1"/>
        <pt x="965" y="1325" on="0"/>
        <pt x="884" y="1330" on="0"/>
        <pt x="841" y="1330" on="1"/>
        <pt x="741" y="1330" on="0"/>
        <pt x="572" y="1252" on="0"/>
        <pt x="434" y="1116" on="0"/>
        <pt x="329" y="931" on="0"/>
        <pt x="257" y="717" on="0"/>
        <pt x="221" y="484" on="0"/>
        <pt x="221" y="367" on="1"/>
        <pt x="221" y="263" on="0"/>
        <pt x="250" y="62" on="0"/>
        <pt x="310" y="-118" on="0"/>
        <pt x="401" y="-270" on="0"/>
        <pt x="523" y="-381" on="0"/>
        <pt x="677" y="-443" on="0"/>
        <pt x="771" y="-443" on="1"/>
        <pt x="850" y="-443" on="0"/>
        <pt x="1030" y="-416" on="0"/>
        <pt x="1214" y="-354" on="0"/>
        <pt x="1396" y="-254" on="0"/>
        <pt x="1557" y="-109" on="0"/>
        <pt x="1690" y="86" on="0"/>
        <pt x="1734" y="211" on="1"/>
        <pt x="1722" y="205" on="0"/>
        <pt x="1698" y="193" on="0"/>
      </contour>
      <contour>
        <pt x="1366" y="685" on="1"/>
        <pt x="1373" y="734" on="0"/>
        <pt x="1379" y="823" on="0"/>
        <pt x="1379" y="863" on="1"/>
        <pt x="1379" y="954" on="0"/>
        <pt x="1346" y="1093" on="0"/>
        <pt x="1285" y="1195" on="0"/>
        <pt x="1196" y="1265" on="0"/>
        <pt x="1140" y="1287" on="1"/>
        <pt x="1095" y="1169" on="0"/>
        <pt x="1038" y="950" on="0"/>
        <pt x="1027" y="871" on="1"/>
        <pt x="1016" y="790" on="0"/>
        <pt x="1002" y="623" on="0"/>
        <pt x="1002" y="542" on="1"/>
        <pt x="1002" y="474" on="0"/>
        <pt x="1014" y="353" on="0"/>
        <pt x="1041" y="263" on="0"/>
        <pt x="1084" y="211" on="0"/>
        <pt x="1116" y="211" on="1"/>
        <pt x="1149" y="211" on="0"/>
        <pt x="1221" y="259" on="0"/>
        <pt x="1289" y="370" on="0"/>
        <pt x="1347" y="551" on="0"/>
      </contour>
      <contour>
        <pt x="1818" y="1537" on="1"/>
        <pt x="1821" y="1560" on="0"/>
        <pt x="1826" y="1617" on="0"/>
        <pt x="1826" y="1647" on="1"/>
        <pt x="1826" y="1669" on="1"/>
        <pt x="1769" y="1587" on="0"/>
        <pt x="1700" y="1432" on="0"/>
        <pt x="1700" y="1369" on="1"/>
        <pt x="1700" y="1346" on="0"/>
        <pt x="1712" y="1316" on="0"/>
        <pt x="1726" y="1316" on="1"/>
        <pt x="1742" y="1316" on="0"/>
        <pt x="1770" y="1354" on="0"/>
        <pt x="1794" y="1416" on="0"/>
        <pt x="1812" y="1496" on="0"/>
      </contour>
    </TTGlyph>
    <TTGlyph name="Eacute" xMin="-9" yMin="-521" xMax="2227" yMax="2630">
      <component glyphName="E" x="74" y="0" flags="0x4"/>
      <component glyphName="acute" x="396" y="1829" flags="0x4"/>
    </TTGlyph>
    <TTGlyph name="Ebreve" xMin="-83" yMin="-521" xMax="2153" yMax="2497">
      <component glyphName="E" x="0" y="0" flags="0x204"/>
      <component glyphName="breve" x="866" y="2011" flags="0x4"/>
    </TTGlyph>
    <TTGlyph name="Ecaron" xMin="-83" yMin="-521" xMax="2153" yMax="2563">
      <component glyphName="E" x="0" y="0" flags="0x204"/>
      <component glyphName="caron" x="251" y="2014" flags="0x4"/>
    </TTGlyph>
    <TTGlyph name="Ecircumflex" xMin="-9" yMin="-521" xMax="2227" yMax="2544">
      <component glyphName="E" x="74" y="0" flags="0x4"/>
      <component glyphName="circumflex" x="326" y="1964" flags="0x4"/>
    </TTGlyph>
    <TTGlyph name="Edieresis" xMin="-9" yMin="-521" xMax="2227" yMax="2370">
      <component glyphName="E" x="74" y="0" flags="0x4"/>
      <component glyphName="dieresis" x="981" y="2054" flags="0x4"/>
    </TTGlyph>
    <TTGlyph name="Edotaccent" xMin="-83" yMin="-521" xMax="2153" yMax="2550">
      <component glyphName="E" x="0" y="0" flags="0x204"/>
      <component glyphName="period" x="1082" y="2105" flags="0x4"/>
    </TTGlyph>
    <TTGlyph name="Egrave" xMin="-9" yMin="-521" xMax="2227" yMax="2795">
      <component glyphName="E" x="74" y="0" flags="0x4"/>
      <component glyphName="grave" x="826" y="1994" flags="0x4"/>
    </TTGlyph>
    <TTGlyph name="Emacron" xMin="-83" yMin="-521" xMax="2153" yMax="2277">
      <component glyphName="E" x="0" y="0" flags="0x204"/>
      <component glyphName="macron" x="693" y="2130" flags="0x4"/>
    </TTGlyph>
    <TTGlyph name="Eng" xMin="-202" yMin="-1139" xMax="2584" yMax="1855">
      <contour>
        <pt x="2432" y="411" on="1"/>
        <pt x="2444" y="417" on="0"/>
        <pt x="2454" y="417" on="1"/>
        <pt x="2465" y="417" on="0"/>
        <pt x="2477" y="402" on="0"/>
        <pt x="2477" y="391" on="1"/>
        <pt x="2477" y="377" on="0"/>
        <pt x="2455" y="342" on="0"/>
        <pt x="2432" y="328" on="1"/>
        <pt x="2375" y="295" on="0"/>
        <pt x="2247" y="224" on="0"/>
        <pt x="2118" y="154" on="0"/>
        <pt x="1991" y="88" on="0"/>
        <pt x="1879" y="32" on="0"/>
        <pt x="1787" y="-11" on="0"/>
        <pt x="1757" y="-23" on="1"/>
        <pt x="1736" y="-68" on="0"/>
        <pt x="1683" y="-182" on="0"/>
        <pt x="1624" y="-311" on="0"/>
        <pt x="1559" y="-450" on="0"/>
        <pt x="1526" y="-520" on="1"/>
        <pt x="1457" y="-666" on="0"/>
        <pt x="1281" y="-896" on="0"/>
        <pt x="1088" y="-1055" on="0"/>
        <pt x="888" y="-1139" on="0"/>
        <pt x="794" y="-1139" on="1"/>
        <pt x="677" y="-1139" on="0"/>
        <pt x="497" y="-1056" on="0"/>
        <pt x="374" y="-924" on="0"/>
        <pt x="311" y="-758" on="0"/>
        <pt x="311" y="-674" on="1"/>
        <pt x="311" y="-598" on="0"/>
        <pt x="372" y="-470" on="0"/>
        <pt x="469" y="-379" on="0"/>
        <pt x="590" y="-328" on="0"/>
        <pt x="649" y="-328" on="1"/>
        <pt x="694" y="-328" on="0"/>
        <pt x="777" y="-361" on="0"/>
        <pt x="840" y="-431" on="0"/>
        <pt x="878" y="-541" on="0"/>
        <pt x="878" y="-617" on="1"/>
        <pt x="878" y="-645" on="0"/>
        <pt x="846" y="-682" on="0"/>
        <pt x="808" y="-682" on="1"/>
        <pt x="784" y="-682" on="0"/>
        <pt x="752" y="-671" on="0"/>
        <pt x="734" y="-653" on="0"/>
        <pt x="727" y="-633" on="0"/>
        <pt x="727" y="-624" on="1"/>
        <pt x="727" y="-582" on="0"/>
        <pt x="706" y="-522" on="0"/>
        <pt x="670" y="-483" on="0"/>
        <pt x="622" y="-464" on="0"/>
        <pt x="596" y="-464" on="1"/>
        <pt x="561" y="-464" on="0"/>
        <pt x="488" y="-496" on="0"/>
        <pt x="430" y="-555" on="0"/>
        <pt x="393" y="-640" on="0"/>
        <pt x="393" y="-693" on="1"/>
        <pt x="393" y="-755" on="0"/>
        <pt x="438" y="-882" on="0"/>
        <pt x="522" y="-984" on="0"/>
        <pt x="642" y="-1049" on="0"/>
        <pt x="718" y="-1049" on="1"/>
        <pt x="794" y="-1049" on="0"/>
        <pt x="970" y="-983" on="0"/>
        <pt x="1144" y="-864" on="0"/>
        <pt x="1303" y="-698" on="0"/>
        <pt x="1362" y="-599" on="1"/>
        <pt x="1401" y="-533" on="0"/>
        <pt x="1466" y="-398" on="0"/>
        <pt x="1525" y="-263" on="0"/>
        <pt x="1583" y="-127" on="0"/>
        <pt x="1615" y="-60" on="1"/>
        <pt x="1576" y="-60" on="0"/>
        <pt x="1513" y="-30" on="0"/>
        <pt x="1465" y="38" on="0"/>
        <pt x="1429" y="147" on="0"/>
        <pt x="1416" y="227" on="1"/>
        <pt x="1214" y="1397" on="1"/>
        <pt x="1082" y="1060" on="0"/>
        <pt x="871" y="513" on="0"/>
        <pt x="773" y="307" on="1"/>
        <pt x="862" y="286" on="0"/>
        <pt x="991" y="218" on="0"/>
        <pt x="1075" y="131" on="0"/>
        <pt x="1115" y="25" on="0"/>
        <pt x="1115" y="-33" on="1"/>
        <pt x="1115" y="-63" on="0"/>
        <pt x="1089" y="-93" on="0"/>
        <pt x="1072" y="-93" on="1"/>
        <pt x="1054" y="-93" on="0"/>
        <pt x="1024" y="-59" on="0"/>
        <pt x="1024" y="-26" on="1"/>
        <pt x="1024" y="22" on="0"/>
        <pt x="992" y="107" on="0"/>
        <pt x="923" y="176" on="0"/>
        <pt x="816" y="226" on="0"/>
        <pt x="740" y="240" on="1"/>
        <pt x="699" y="109" on="0"/>
        <pt x="546" y="-83" on="0"/>
        <pt x="360" y="-210" on="0"/>
        <pt x="159" y="-272" on="0"/>
        <pt x="70" y="-272" on="1"/>
        <pt x="12" y="-272" on="0"/>
        <pt x="-87" y="-246" on="0"/>
        <pt x="-160" y="-195" on="0"/>
        <pt x="-202" y="-120" on="0"/>
        <pt x="-202" y="-70" on="1"/>
        <pt x="-202" y="-27" on="0"/>
        <pt x="-154" y="68" on="0"/>
        <pt x="-68" y="160" on="0"/>
        <pt x="52" y="242" on="0"/>
        <pt x="196" y="304" on="0"/>
        <pt x="360" y="341" on="0"/>
        <pt x="447" y="341" on="1"/>
        <pt x="489" y="341" on="0"/>
        <pt x="565" y="337" on="0"/>
        <pt x="600" y="334" on="1"/>
        <pt x="657" y="448" on="0"/>
        <pt x="771" y="700" on="0"/>
        <pt x="883" y="956" on="0"/>
        <pt x="992" y="1208" on="0"/>
        <pt x="1097" y="1437" on="0"/>
        <pt x="1197" y="1632" on="0"/>
        <pt x="1289" y="1774" on="0"/>
        <pt x="1374" y="1855" on="0"/>
        <pt x="1412" y="1855" on="1"/>
        <pt x="1434" y="1855" on="0"/>
        <pt x="1464" y="1838" on="0"/>
        <pt x="1481" y="1811" on="0"/>
        <pt x="1488" y="1775" on="0"/>
        <pt x="1488" y="1757" on="1"/>
        <pt x="1488" y="1741" on="0"/>
        <pt x="1484" y="1710" on="0"/>
        <pt x="1480" y="1685" on="0"/>
        <pt x="1476" y="1668" on="0"/>
        <pt x="1476" y="1667" on="1"/>
        <pt x="1730" y="174" on="1"/>
        <pt x="2272" y="1542" on="1"/>
        <pt x="2287" y="1578" on="0"/>
        <pt x="2330" y="1659" on="0"/>
        <pt x="2382" y="1728" on="0"/>
        <pt x="2442" y="1774" on="0"/>
        <pt x="2475" y="1774" on="1"/>
        <pt x="2509" y="1774" on="0"/>
        <pt x="2550" y="1763" on="0"/>
        <pt x="2573" y="1747" on="0"/>
        <pt x="2582" y="1726" on="0"/>
        <pt x="2584" y="1716" on="1"/>
        <pt x="2439" y="1412" on="0"/>
        <pt x="2218" y="950" on="0"/>
        <pt x="2055" y="608" on="0"/>
        <pt x="1943" y="373" on="0"/>
        <pt x="1870" y="220" on="0"/>
        <pt x="1830" y="137" on="0"/>
        <pt x="1811" y="98" on="0"/>
        <pt x="1808" y="91" on="0"/>
        <pt x="1808" y="90" on="1"/>
        <pt x="1885" y="114" on="0"/>
        <pt x="2037" y="185" on="0"/>
        <pt x="2191" y="269" on="0"/>
        <pt x="2349" y="363" on="0"/>
      </contour>
      <contour>
        <pt x="561" y="256" on="1"/>
        <pt x="561" y="260" on="0"/>
        <pt x="557" y="260" on="1"/>
        <pt x="483" y="260" on="0"/>
        <pt x="331" y="228" on="0"/>
        <pt x="189" y="174" on="0"/>
        <pt x="64" y="103" on="0"/>
        <pt x="-30" y="25" on="0"/>
        <pt x="-84" y="-54" on="0"/>
        <pt x="-84" y="-89" on="1"/>
        <pt x="-84" y="-146" on="0"/>
        <pt x="-12" y="-201" on="0"/>
        <pt x="46" y="-201" on="1"/>
        <pt x="107" y="-201" on="0"/>
        <pt x="259" y="-141" on="0"/>
        <pt x="406" y="-25" on="0"/>
        <pt x="529" y="145" on="0"/>
      </contour>
    </TTGlyph>
    <TTGlyph name="Eogonek" xMin="-83" yMin="-1119" xMax="2153" yMax="2144">
      <component glyphName="E" x="0" y="0" flags="0x204"/>
      <component glyphName="ogonek" x="416" y="-431" flags="0x4"/>
    </TTGlyph>
    <TTGlyph name="Eth" xMin="49" yMin="-43" xMax="2496" yMax="2148">
      <contour>
        <pt x="419" y="769" on="1"/>
        <pt x="402" y="781" on="0"/>
        <pt x="392" y="813" on="0"/>
        <pt x="392" y="832" on="1"/>
        <pt x="392" y="867" on="0"/>
        <pt x="437" y="910" on="0"/>
        <pt x="510" y="933" on="0"/>
        <pt x="603" y="940" on="0"/>
        <pt x="651" y="940" on="1"/>
        <pt x="697" y="940" on="0"/>
        <pt x="788" y="937" on="0"/>
        <pt x="885" y="930" on="0"/>
        <pt x="991" y="921" on="0"/>
        <pt x="1053" y="915" on="1"/>
        <pt x="1143" y="1044" on="0"/>
        <pt x="1325" y="1300" on="0"/>
        <pt x="1521" y="1538" on="0"/>
        <pt x="1736" y="1750" on="0"/>
        <pt x="1860" y="1835" on="1"/>
        <pt x="1741" y="1938" on="0"/>
        <pt x="1397" y="2060" on="0"/>
        <pt x="1171" y="2060" on="1"/>
        <pt x="1064" y="2060" on="0"/>
        <pt x="834" y="2024" on="0"/>
        <pt x="614" y="1948" on="0"/>
        <pt x="416" y="1831" on="0"/>
        <pt x="267" y="1669" on="0"/>
        <pt x="180" y="1460" on="0"/>
        <pt x="180" y="1331" on="1"/>
        <pt x="180" y="1251" on="0"/>
        <pt x="213" y="1141" on="0"/>
        <pt x="272" y="1072" on="0"/>
        <pt x="353" y="1041" on="0"/>
        <pt x="401" y="1041" on="1"/>
        <pt x="467" y="1041" on="0"/>
        <pt x="617" y="1093" on="0"/>
        <pt x="765" y="1180" on="0"/>
        <pt x="902" y="1293" on="0"/>
        <pt x="1007" y="1414" on="0"/>
        <pt x="1069" y="1534" on="0"/>
        <pt x="1069" y="1585" on="1"/>
        <pt x="1069" y="1614" on="0"/>
        <pt x="1055" y="1645" on="1"/>
        <pt x="1052" y="1649" on="0"/>
        <pt x="1052" y="1654" on="1"/>
        <pt x="1052" y="1660" on="0"/>
        <pt x="1062" y="1670" on="0"/>
        <pt x="1075" y="1677" on="0"/>
        <pt x="1090" y="1681" on="0"/>
        <pt x="1096" y="1681" on="1"/>
        <pt x="1111" y="1681" on="0"/>
        <pt x="1135" y="1660" on="0"/>
        <pt x="1135" y="1640" on="1"/>
        <pt x="1135" y="1634" on="1"/>
        <pt x="1163" y="1565" on="0"/>
        <pt x="1163" y="1493" on="1"/>
        <pt x="1163" y="1420" on="0"/>
        <pt x="1105" y="1288" on="0"/>
        <pt x="1006" y="1176" on="0"/>
        <pt x="873" y="1087" on="0"/>
        <pt x="724" y="1024" on="0"/>
        <pt x="565" y="990" on="0"/>
        <pt x="489" y="990" on="1"/>
        <pt x="411" y="990" on="0"/>
        <pt x="271" y="1029" on="0"/>
        <pt x="166" y="1111" on="0"/>
        <pt x="104" y="1241" on="0"/>
        <pt x="104" y="1331" on="1"/>
        <pt x="104" y="1461" on="0"/>
        <pt x="188" y="1683" on="0"/>
        <pt x="333" y="1865" on="0"/>
        <pt x="529" y="2004" on="0"/>
        <pt x="753" y="2099" on="0"/>
        <pt x="995" y="2148" on="0"/>
        <pt x="1114" y="2148" on="1"/>
        <pt x="1353" y="2148" on="0"/>
        <pt x="1763" y="2010" on="0"/>
        <pt x="1929" y="1878" on="1"/>
        <pt x="1966" y="1898" on="0"/>
        <pt x="2044" y="1929" on="0"/>
        <pt x="2089" y="1937" on="1"/>
        <pt x="2095" y="1937" on="1"/>
        <pt x="2115" y="1937" on="0"/>
        <pt x="2136" y="1914" on="0"/>
        <pt x="2136" y="1898" on="1"/>
        <pt x="2136" y="1887" on="0"/>
        <pt x="2110" y="1864" on="0"/>
        <pt x="2071" y="1841" on="0"/>
        <pt x="2028" y="1818" on="0"/>
        <pt x="2010" y="1806" on="1"/>
        <pt x="2089" y="1729" on="0"/>
        <pt x="2214" y="1547" on="0"/>
        <pt x="2302" y="1337" on="0"/>
        <pt x="2349" y="1103" on="0"/>
        <pt x="2349" y="975" on="1"/>
        <pt x="2349" y="833" on="0"/>
        <pt x="2260" y="596" on="0"/>
        <pt x="2103" y="402" on="0"/>
        <pt x="1890" y="249" on="0"/>
        <pt x="1766" y="191" on="1"/>
        <pt x="1792" y="169" on="0"/>
        <pt x="1858" y="150" on="0"/>
        <pt x="1896" y="150" on="1"/>
        <pt x="1940" y="150" on="0"/>
        <pt x="2039" y="172" on="0"/>
        <pt x="2139" y="209" on="0"/>
        <pt x="2239" y="256" on="0"/>
        <pt x="2284" y="280" on="1"/>
        <pt x="2338" y="309" on="0"/>
        <pt x="2442" y="374" on="0"/>
        <pt x="2496" y="411" on="1"/>
        <pt x="2496" y="328" on="1"/>
        <pt x="2439" y="288" on="0"/>
        <pt x="2322" y="218" on="0"/>
        <pt x="2261" y="186" on="1"/>
        <pt x="2210" y="159" on="0"/>
        <pt x="2094" y="108" on="0"/>
        <pt x="1973" y="69" on="0"/>
        <pt x="1850" y="45" on="0"/>
        <pt x="1792" y="45" on="1"/>
        <pt x="1744" y="45" on="0"/>
        <pt x="1655" y="65" on="0"/>
        <pt x="1615" y="86" on="1"/>
        <pt x="1567" y="111" on="1"/>
        <pt x="1464" y="76" on="0"/>
        <pt x="1252" y="26" on="0"/>
        <pt x="1045" y="-5" on="0"/>
        <pt x="850" y="-20" on="0"/>
        <pt x="764" y="-20" on="1"/>
        <pt x="692" y="-20" on="0"/>
        <pt x="546" y="8" on="0"/>
        <pt x="471" y="25" on="1"/>
        <pt x="399" y="-7" on="0"/>
        <pt x="249" y="-43" on="0"/>
        <pt x="168" y="-43" on="1"/>
        <pt x="148" y="-43" on="0"/>
        <pt x="106" y="-31" on="0"/>
        <pt x="71" y="-7" on="0"/>
        <pt x="49" y="29" on="0"/>
        <pt x="49" y="53" on="1"/>
        <pt x="49" y="81" on="0"/>
        <pt x="86" y="116" on="0"/>
        <pt x="139" y="135" on="0"/>
        <pt x="198" y="141" on="0"/>
        <pt x="221" y="141" on="1"/>
        <pt x="254" y="141" on="0"/>
        <pt x="320" y="136" on="0"/>
        <pt x="352" y="131" on="1"/>
        <pt x="434" y="189" on="0"/>
        <pt x="585" y="326" on="0"/>
        <pt x="724" y="477" on="0"/>
        <pt x="855" y="641" on="0"/>
        <pt x="918" y="727" on="1"/>
        <pt x="744" y="730" on="1"/>
        <pt x="733" y="731" on="0"/>
        <pt x="684" y="732" on="0"/>
        <pt x="620" y="735" on="0"/>
        <pt x="549" y="739" on="0"/>
        <pt x="485" y="747" on="0"/>
        <pt x="432" y="760" on="0"/>
      </contour>
      <contour>
        <pt x="1525" y="289" on="1"/>
        <pt x="1572" y="315" on="0"/>
        <pt x="1610" y="315" on="1"/>
        <pt x="1626" y="315" on="0"/>
        <pt x="1650" y="307" on="1"/>
        <pt x="1770" y="391" on="0"/>
        <pt x="1952" y="601" on="0"/>
        <pt x="2075" y="835" on="0"/>
        <pt x="2137" y="1083" on="0"/>
        <pt x="2137" y="1205" on="1"/>
        <pt x="2137" y="1361" on="0"/>
        <pt x="2040" y="1641" on="0"/>
        <pt x="1940" y="1756" on="1"/>
        <pt x="1850" y="1684" on="0"/>
        <pt x="1680" y="1489" on="0"/>
        <pt x="1516" y="1263" on="0"/>
        <pt x="1355" y="1015" on="0"/>
        <pt x="1273" y="891" on="1"/>
        <pt x="1376" y="879" on="0"/>
        <pt x="1558" y="856" on="0"/>
        <pt x="1630" y="846" on="1"/>
        <pt x="1785" y="825" on="1"/>
        <pt x="1807" y="822" on="0"/>
        <pt x="1846" y="794" on="0"/>
        <pt x="1846" y="778" on="1"/>
        <pt x="1846" y="766" on="0"/>
        <pt x="1834" y="759" on="1"/>
        <pt x="1823" y="753" on="0"/>
        <pt x="1755" y="743" on="0"/>
        <pt x="1654" y="736" on="0"/>
        <pt x="1527" y="731" on="0"/>
        <pt x="1385" y="728" on="0"/>
        <pt x="1236" y="726" on="0"/>
        <pt x="1164" y="726" on="1"/>
        <pt x="1098" y="629" on="0"/>
        <pt x="960" y="445" on="0"/>
        <pt x="816" y="280" on="0"/>
        <pt x="664" y="140" on="0"/>
        <pt x="583" y="87" on="1"/>
        <pt x="640" y="76" on="0"/>
        <pt x="753" y="61" on="0"/>
        <pt x="811" y="61" on="1"/>
        <pt x="1003" y="61" on="0"/>
        <pt x="1324" y="133" on="0"/>
        <pt x="1463" y="199" on="1"/>
        <pt x="1460" y="206" on="0"/>
        <pt x="1460" y="216" on="1"/>
        <pt x="1460" y="233" on="0"/>
        <pt x="1490" y="269" on="0"/>
      </contour>
      <contour>
        <pt x="180" y="37" on="1"/>
        <pt x="215" y="37" on="0"/>
        <pt x="253" y="61" on="1"/>
        <pt x="238" y="61" on="1"/>
        <pt x="212" y="61" on="0"/>
        <pt x="161" y="55" on="0"/>
        <pt x="139" y="47" on="1"/>
        <pt x="149" y="41" on="0"/>
        <pt x="169" y="37" on="0"/>
      </contour>
    </TTGlyph>
    <TTGlyph name="Euro" xMin="83" yMin="-26" xMax="1889" yMax="1725">
      <contour>
        <pt x="152" y="876" on="1"/>
        <pt x="136" y="881" on="0"/>
        <pt x="126" y="896" on="0"/>
        <pt x="126" y="904" on="1"/>
        <pt x="126" y="917" on="0"/>
        <pt x="152" y="933" on="0"/>
        <pt x="198" y="944" on="0"/>
        <pt x="261" y="949" on="0"/>
        <pt x="299" y="951" on="1"/>
        <pt x="336" y="1061" on="0"/>
        <pt x="452" y="1262" on="0"/>
        <pt x="600" y="1434" on="0"/>
        <pt x="777" y="1573" on="0"/>
        <pt x="972" y="1672" on="0"/>
        <pt x="1181" y="1725" on="0"/>
        <pt x="1288" y="1725" on="1"/>
        <pt x="1364" y="1725" on="0"/>
        <pt x="1519" y="1696" on="0"/>
        <pt x="1669" y="1635" on="0"/>
        <pt x="1810" y="1543" on="0"/>
        <pt x="1872" y="1480" on="1"/>
        <pt x="1881" y="1471" on="0"/>
        <pt x="1889" y="1450" on="0"/>
        <pt x="1889" y="1441" on="1"/>
        <pt x="1889" y="1430" on="0"/>
        <pt x="1878" y="1414" on="0"/>
        <pt x="1868" y="1414" on="1"/>
        <pt x="1853" y="1414" on="0"/>
        <pt x="1835" y="1432" on="1"/>
        <pt x="1773" y="1493" on="0"/>
        <pt x="1638" y="1580" on="0"/>
        <pt x="1502" y="1637" on="0"/>
        <pt x="1370" y="1664" on="0"/>
        <pt x="1312" y="1664" on="1"/>
        <pt x="1227" y="1664" on="0"/>
        <pt x="1072" y="1611" on="0"/>
        <pt x="933" y="1516" on="0"/>
        <pt x="812" y="1384" on="0"/>
        <pt x="712" y="1225" on="0"/>
        <pt x="633" y="1043" on="0"/>
        <pt x="606" y="947" on="1"/>
        <pt x="672" y="945" on="0"/>
        <pt x="818" y="939" on="0"/>
        <pt x="968" y="931" on="0"/>
        <pt x="1115" y="923" on="0"/>
        <pt x="1182" y="919" on="1"/>
        <pt x="1494" y="901" on="1"/>
        <pt x="1522" y="900" on="0"/>
        <pt x="1542" y="887" on="0"/>
        <pt x="1542" y="876" on="1"/>
        <pt x="1542" y="867" on="0"/>
        <pt x="1487" y="856" on="0"/>
        <pt x="1386" y="850" on="0"/>
        <pt x="1243" y="848" on="0"/>
        <pt x="1155" y="848" on="1"/>
        <pt x="1080" y="848" on="0"/>
        <pt x="923" y="850" on="0"/>
        <pt x="773" y="852" on="0"/>
        <pt x="637" y="855" on="0"/>
        <pt x="584" y="856" on="1"/>
        <pt x="579" y="834" on="0"/>
        <pt x="571" y="790" on="0"/>
        <pt x="568" y="767" on="1"/>
        <pt x="717" y="767" on="1"/>
        <pt x="805" y="767" on="0"/>
        <pt x="989" y="766" on="0"/>
        <pt x="1163" y="763" on="0"/>
        <pt x="1317" y="757" on="0"/>
        <pt x="1432" y="748" on="0"/>
        <pt x="1499" y="736" on="0"/>
        <pt x="1499" y="728" on="1"/>
        <pt x="1499" y="717" on="0"/>
        <pt x="1479" y="704" on="0"/>
        <pt x="1451" y="703" on="1"/>
        <pt x="1347" y="701" on="0"/>
        <pt x="1125" y="696" on="0"/>
        <pt x="897" y="692" on="0"/>
        <pt x="668" y="687" on="0"/>
        <pt x="557" y="685" on="1"/>
        <pt x="554" y="653" on="0"/>
        <pt x="552" y="592" on="0"/>
        <pt x="552" y="561" on="1"/>
        <pt x="552" y="418" on="0"/>
        <pt x="616" y="224" on="0"/>
        <pt x="727" y="104" on="0"/>
        <pt x="876" y="52" on="0"/>
        <pt x="962" y="52" on="1"/>
        <pt x="1024" y="52" on="0"/>
        <pt x="1157" y="81" on="0"/>
        <pt x="1288" y="128" on="0"/>
        <pt x="1414" y="189" on="0"/>
        <pt x="1525" y="252" on="0"/>
        <pt x="1616" y="314" on="0"/>
        <pt x="1648" y="339" on="1"/>
        <pt x="1672" y="357" on="0"/>
        <pt x="1690" y="357" on="1"/>
        <pt x="1704" y="357" on="0"/>
        <pt x="1719" y="336" on="0"/>
        <pt x="1719" y="321" on="1"/>
        <pt x="1719" y="306" on="0"/>
        <pt x="1705" y="272" on="0"/>
        <pt x="1689" y="256" on="1"/>
        <pt x="1623" y="190" on="0"/>
        <pt x="1449" y="86" on="0"/>
        <pt x="1251" y="13" on="0"/>
        <pt x="1037" y="-26" on="0"/>
        <pt x="932" y="-26" on="1"/>
        <pt x="797" y="-26" on="0"/>
        <pt x="548" y="45" on="0"/>
        <pt x="358" y="198" on="0"/>
        <pt x="244" y="440" on="0"/>
        <pt x="244" y="612" on="1"/>
        <pt x="244" y="648" on="0"/>
        <pt x="247" y="683" on="1"/>
        <pt x="172" y="687" on="0"/>
        <pt x="83" y="706" on="0"/>
        <pt x="83" y="730" on="1"/>
        <pt x="83" y="756" on="0"/>
        <pt x="168" y="767" on="0"/>
        <pt x="256" y="767" on="1"/>
        <pt x="263" y="816" on="0"/>
        <pt x="274" y="863" on="1"/>
        <pt x="232" y="865" on="0"/>
        <pt x="167" y="871" on="0"/>
      </contour>
    </TTGlyph>
    <TTGlyph name="F" xMin="0" yMin="-524" xMax="3961" yMax="1858">
      <contour>
        <pt x="1827" y="411" on="1"/>
        <pt x="1839" y="417" on="0"/>
        <pt x="1849" y="417" on="1"/>
        <pt x="1860" y="417" on="0"/>
        <pt x="1872" y="402" on="0"/>
        <pt x="1872" y="391" on="1"/>
        <pt x="1872" y="377" on="0"/>
        <pt x="1850" y="342" on="0"/>
        <pt x="1827" y="328" on="1"/>
        <pt x="1769" y="288" on="0"/>
        <pt x="1651" y="217" on="0"/>
        <pt x="1591" y="186" on="1"/>
        <pt x="1540" y="159" on="0"/>
        <pt x="1424" y="108" on="0"/>
        <pt x="1302" y="69" on="0"/>
        <pt x="1179" y="45" on="0"/>
        <pt x="1122" y="45" on="1"/>
        <pt x="1075" y="45" on="0"/>
        <pt x="1033" y="54" on="1"/>
        <pt x="978" y="-41" on="0"/>
        <pt x="840" y="-201" on="0"/>
        <pt x="688" y="-329" on="0"/>
        <pt x="527" y="-426" on="0"/>
        <pt x="369" y="-491" on="0"/>
        <pt x="221" y="-524" on="0"/>
        <pt x="157" y="-524" on="1"/>
        <pt x="124" y="-524" on="0"/>
        <pt x="81" y="-515" on="0"/>
        <pt x="55" y="-500" on="0"/>
        <pt x="44" y="-482" on="0"/>
        <pt x="44" y="-473" on="1"/>
        <pt x="44" y="-457" on="0"/>
        <pt x="66" y="-434" on="0"/>
        <pt x="78" y="-434" on="1"/>
        <pt x="138" y="-434" on="0"/>
        <pt x="273" y="-390" on="0"/>
        <pt x="411" y="-310" on="0"/>
        <pt x="547" y="-199" on="0"/>
        <pt x="670" y="-64" on="0"/>
        <pt x="774" y="90" on="0"/>
        <pt x="812" y="172" on="1"/>
        <pt x="791" y="194" on="0"/>
        <pt x="791" y="215" on="1"/>
        <pt x="791" y="232" on="0"/>
        <pt x="821" y="269" on="0"/>
        <pt x="856" y="289" on="1"/>
        <pt x="861" y="292" on="1"/>
        <pt x="876" y="329" on="0"/>
        <pt x="925" y="442" on="0"/>
        <pt x="985" y="580" on="0"/>
        <pt x="1055" y="735" on="0"/>
        <pt x="1091" y="813" on="1"/>
        <pt x="1039" y="810" on="0"/>
        <pt x="933" y="803" on="0"/>
        <pt x="878" y="799" on="1"/>
        <pt x="854" y="698" on="0"/>
        <pt x="759" y="551" on="0"/>
        <pt x="636" y="456" on="0"/>
        <pt x="494" y="410" on="0"/>
        <pt x="422" y="410" on="1"/>
        <pt x="341" y="410" on="0"/>
        <pt x="189" y="465" on="0"/>
        <pt x="71" y="571" on="0"/>
        <pt x="0" y="725" on="0"/>
        <pt x="0" y="823" on="1"/>
        <pt x="0" y="1011" on="0"/>
        <pt x="103" y="1296" on="0"/>
        <pt x="287" y="1502" on="0"/>
        <pt x="541" y="1638" on="0"/>
        <pt x="843" y="1719" on="0"/>
        <pt x="1183" y="1752" on="0"/>
        <pt x="1360" y="1752" on="1"/>
        <pt x="1445" y="1752" on="0"/>
        <pt x="1609" y="1746" on="0"/>
        <pt x="1694" y="1741" on="1"/>
        <pt x="1713" y="1747" on="0"/>
        <pt x="1732" y="1747" on="1"/>
        <pt x="1753" y="1747" on="0"/>
        <pt x="1786" y="1739" on="0"/>
        <pt x="1797" y="1733" on="1"/>
        <pt x="1972" y="1719" on="0"/>
        <pt x="2308" y="1680" on="0"/>
        <pt x="2606" y="1645" on="0"/>
        <pt x="2855" y="1620" on="0"/>
        <pt x="2944" y="1620" on="1"/>
        <pt x="3055" y="1620" on="0"/>
        <pt x="3252" y="1640" on="0"/>
        <pt x="3425" y="1673" on="0"/>
        <pt x="3571" y="1716" on="0"/>
        <pt x="3631" y="1739" on="1"/>
        <pt x="3701" y="1765" on="0"/>
        <pt x="3821" y="1823" on="0"/>
        <pt x="3873" y="1858" on="1"/>
        <pt x="3961" y="1792" on="1"/>
        <pt x="3881" y="1704" on="0"/>
        <pt x="3690" y="1586" on="0"/>
        <pt x="3474" y="1514" on="0"/>
        <pt x="3236" y="1484" on="0"/>
        <pt x="3110" y="1484" on="1"/>
        <pt x="2950" y="1484" on="0"/>
        <pt x="2614" y="1523" on="0"/>
        <pt x="2273" y="1578" on="0"/>
        <pt x="1937" y="1640" on="0"/>
        <pt x="1777" y="1663" on="1"/>
        <pt x="1744" y="1631" on="0"/>
        <pt x="1650" y="1535" on="0"/>
        <pt x="1555" y="1426" on="0"/>
        <pt x="1474" y="1312" on="0"/>
        <pt x="1453" y="1262" on="1"/>
        <pt x="1419" y="1181" on="0"/>
        <pt x="1356" y="994" on="0"/>
        <pt x="1326" y="891" on="1"/>
        <pt x="1473" y="891" on="0"/>
        <pt x="1775" y="893" on="0"/>
        <pt x="2060" y="895" on="0"/>
        <pt x="2315" y="898" on="0"/>
        <pt x="2516" y="900" on="0"/>
        <pt x="2650" y="902" on="0"/>
        <pt x="2671" y="902" on="1"/>
        <pt x="2713" y="902" on="0"/>
        <pt x="2763" y="888" on="0"/>
        <pt x="2774" y="881" on="1"/>
        <pt x="2780" y="855" on="0"/>
        <pt x="2780" y="843" on="1"/>
        <pt x="2780" y="829" on="0"/>
        <pt x="2768" y="820" on="0"/>
        <pt x="2757" y="820" on="1"/>
        <pt x="2744" y="820" on="0"/>
        <pt x="2705" y="826" on="0"/>
        <pt x="2679" y="826" on="1"/>
        <pt x="2547" y="826" on="0"/>
        <pt x="2308" y="827" on="0"/>
        <pt x="2089" y="829" on="0"/>
        <pt x="1887" y="830" on="0"/>
        <pt x="1791" y="830" on="1"/>
        <pt x="1664" y="830" on="0"/>
        <pt x="1427" y="827" on="0"/>
        <pt x="1306" y="823" on="1"/>
        <pt x="1280" y="736" on="0"/>
        <pt x="1228" y="561" on="0"/>
        <pt x="1177" y="398" on="0"/>
        <pt x="1126" y="250" on="0"/>
        <pt x="1100" y="189" on="1"/>
        <pt x="1126" y="168" on="0"/>
        <pt x="1190" y="150" on="0"/>
        <pt x="1227" y="150" on="1"/>
        <pt x="1271" y="150" on="0"/>
        <pt x="1370" y="173" on="0"/>
        <pt x="1471" y="209" on="0"/>
        <pt x="1571" y="256" on="0"/>
        <pt x="1616" y="280" on="1"/>
        <pt x="1670" y="309" on="0"/>
        <pt x="1773" y="374" on="0"/>
      </contour>
      <contour>
        <pt x="1326" y="1325" on="1"/>
        <pt x="1331" y="1334" on="0"/>
        <pt x="1357" y="1379" on="0"/>
        <pt x="1396" y="1441" on="0"/>
        <pt x="1446" y="1514" on="0"/>
        <pt x="1504" y="1589" on="0"/>
        <pt x="1567" y="1658" on="0"/>
        <pt x="1600" y="1685" on="1"/>
        <pt x="1534" y="1692" on="0"/>
        <pt x="1407" y="1700" on="0"/>
        <pt x="1346" y="1700" on="1"/>
        <pt x="1185" y="1700" on="0"/>
        <pt x="881" y="1668" on="0"/>
        <pt x="613" y="1591" on="0"/>
        <pt x="388" y="1463" on="0"/>
        <pt x="226" y="1270" on="0"/>
        <pt x="136" y="1005" on="0"/>
        <pt x="136" y="831" on="1"/>
        <pt x="136" y="735" on="0"/>
        <pt x="177" y="599" on="0"/>
        <pt x="248" y="514" on="0"/>
        <pt x="342" y="475" on="0"/>
        <pt x="396" y="475" on="1"/>
        <pt x="460" y="475" on="0"/>
        <pt x="597" y="525" on="0"/>
        <pt x="723" y="612" on="0"/>
        <pt x="828" y="729" on="0"/>
        <pt x="860" y="797" on="1"/>
        <pt x="817" y="794" on="1"/>
        <pt x="811" y="793" on="0"/>
        <pt x="800" y="793" on="0"/>
        <pt x="795" y="793" on="1"/>
        <pt x="741" y="793" on="0"/>
        <pt x="688" y="832" on="0"/>
        <pt x="688" y="857" on="1"/>
        <pt x="688" y="889" on="0"/>
        <pt x="728" y="911" on="1"/>
        <pt x="765" y="931" on="0"/>
        <pt x="847" y="931" on="1"/>
        <pt x="851" y="931" on="0"/>
        <pt x="855" y="931" on="1"/>
        <pt x="888" y="931" on="0"/>
        <pt x="933" y="925" on="0"/>
        <pt x="968" y="916" on="0"/>
        <pt x="998" y="906" on="0"/>
        <pt x="1036" y="897" on="0"/>
        <pt x="1088" y="891" on="0"/>
        <pt x="1127" y="891" on="1"/>
        <pt x="1166" y="978" on="0"/>
        <pt x="1238" y="1135" on="0"/>
        <pt x="1293" y="1254" on="0"/>
        <pt x="1302" y="1272" on="1"/>
      </contour>
    </TTGlyph>
    <TTGlyph name="G" xMin="-1000" yMin="-1457" xMax="2854" yMax="1873">
      <contour>
        <pt x="2411" y="411" on="1"/>
        <pt x="2423" y="417" on="0"/>
        <pt x="2433" y="417" on="1"/>
        <pt x="2444" y="417" on="0"/>
        <pt x="2456" y="402" on="0"/>
        <pt x="2456" y="391" on="1"/>
        <pt x="2456" y="377" on="0"/>
        <pt x="2434" y="342" on="0"/>
        <pt x="2411" y="328" on="1"/>
        <pt x="2353" y="288" on="0"/>
        <pt x="2236" y="218" on="0"/>
        <pt x="2175" y="187" on="1"/>
        <pt x="2123" y="160" on="0"/>
        <pt x="2007" y="110" on="0"/>
        <pt x="1886" y="70" on="0"/>
        <pt x="1763" y="46" on="0"/>
        <pt x="1705" y="46" on="1"/>
        <pt x="1697" y="46" on="0"/>
        <pt x="1680" y="46" on="0"/>
        <pt x="1672" y="47" on="1"/>
        <pt x="1613" y="-30" on="0"/>
        <pt x="1531" y="-136" on="0"/>
        <pt x="1470" y="-217" on="0"/>
        <pt x="1422" y="-281" on="0"/>
        <pt x="1370" y="-350" on="0"/>
        <pt x="1307" y="-434" on="0"/>
        <pt x="1262" y="-493" on="1"/>
        <pt x="1459" y="-526" on="0"/>
        <pt x="1851" y="-607" on="0"/>
        <pt x="2217" y="-679" on="0"/>
        <pt x="2546" y="-728" on="0"/>
        <pt x="2681" y="-729" on="1"/>
        <pt x="2706" y="-729" on="0"/>
        <pt x="2731" y="-747" on="0"/>
        <pt x="2731" y="-759" on="1"/>
        <pt x="2731" y="-779" on="0"/>
        <pt x="2670" y="-816" on="0"/>
        <pt x="2606" y="-816" on="1"/>
        <pt x="2466" y="-813" on="0"/>
        <pt x="2134" y="-761" on="0"/>
        <pt x="1770" y="-690" on="0"/>
        <pt x="1386" y="-611" on="0"/>
        <pt x="1195" y="-581" on="1"/>
        <pt x="1173" y="-610" on="1"/>
        <pt x="1020" y="-809" on="0"/>
        <pt x="753" y="-1123" on="0"/>
        <pt x="510" y="-1341" on="0"/>
        <pt x="287" y="-1457" on="0"/>
        <pt x="179" y="-1457" on="1"/>
        <pt x="46" y="-1457" on="0"/>
        <pt x="-142" y="-1410" on="0"/>
        <pt x="-261" y="-1328" on="0"/>
        <pt x="-316" y="-1217" on="0"/>
        <pt x="-316" y="-1153" on="1"/>
        <pt x="-316" y="-1077" on="0"/>
        <pt x="-246" y="-910" on="0"/>
        <pt x="-122" y="-748" on="0"/>
        <pt x="48" y="-602" on="0"/>
        <pt x="248" y="-491" on="0"/>
        <pt x="469" y="-425" on="0"/>
        <pt x="583" y="-425" on="1"/>
        <pt x="714" y="-425" on="0"/>
        <pt x="982" y="-450" on="0"/>
        <pt x="1125" y="-471" on="1"/>
        <pt x="1157" y="-429" on="0"/>
        <pt x="1203" y="-369" on="0"/>
        <pt x="1248" y="-312" on="0"/>
        <pt x="1300" y="-248" on="0"/>
        <pt x="1376" y="-155" on="0"/>
        <pt x="1483" y="-24" on="0"/>
        <pt x="1561" y="71" on="1"/>
        <pt x="1542" y="79" on="0"/>
        <pt x="1507" y="96" on="0"/>
        <pt x="1491" y="106" on="1"/>
        <pt x="1381" y="23" on="0"/>
        <pt x="1179" y="-96" on="0"/>
        <pt x="997" y="-172" on="0"/>
        <pt x="834" y="-207" on="0"/>
        <pt x="763" y="-207" on="1"/>
        <pt x="646" y="-207" on="0"/>
        <pt x="465" y="-121" on="0"/>
        <pt x="342" y="31" on="0"/>
        <pt x="278" y="236" on="0"/>
        <pt x="278" y="356" on="1"/>
        <pt x="278" y="466" on="0"/>
        <pt x="331" y="702" on="0"/>
        <pt x="451" y="941" on="0"/>
        <pt x="648" y="1177" on="0"/>
        <pt x="935" y="1398" on="0"/>
        <pt x="1321" y="1598" on="0"/>
        <pt x="1571" y="1682" on="1"/>
        <pt x="1493" y="1718" on="0"/>
        <pt x="1285" y="1768" on="0"/>
        <pt x="1031" y="1799" on="0"/>
        <pt x="734" y="1813" on="0"/>
        <pt x="567" y="1813" on="1"/>
        <pt x="233" y="1813" on="0"/>
        <pt x="-556" y="1771" on="0"/>
        <pt x="-1000" y="1740" on="1"/>
        <pt x="-995" y="1744" on="0"/>
        <pt x="-992" y="1751" on="0"/>
        <pt x="-992" y="1753" on="1"/>
        <pt x="-992" y="1758" on="0"/>
        <pt x="-997" y="1767" on="0"/>
        <pt x="-997" y="1770" on="1"/>
        <pt x="-997" y="1775" on="0"/>
        <pt x="-989" y="1783" on="1"/>
        <pt x="-975" y="1783" on="0"/>
        <pt x="-950" y="1782" on="0"/>
        <pt x="-936" y="1782" on="1"/>
        <pt x="-847" y="1782" on="0"/>
        <pt x="-636" y="1795" on="0"/>
        <pt x="-399" y="1816" on="0"/>
        <pt x="-138" y="1839" on="0"/>
        <pt x="140" y="1860" on="0"/>
        <pt x="432" y="1873" on="0"/>
        <pt x="582" y="1873" on="1"/>
        <pt x="854" y="1873" on="0"/>
        <pt x="1397" y="1816" on="0"/>
        <pt x="1663" y="1738" on="1"/>
        <pt x="1801" y="1789" on="0"/>
        <pt x="2040" y="1843" on="0"/>
        <pt x="2152" y="1843" on="1"/>
        <pt x="2333" y="1843" on="0"/>
        <pt x="2597" y="1784" on="0"/>
        <pt x="2770" y="1691" on="0"/>
        <pt x="2854" y="1579" on="0"/>
        <pt x="2854" y="1527" on="1"/>
        <pt x="2854" y="1493" on="0"/>
        <pt x="2819" y="1433" on="0"/>
        <pt x="2752" y="1388" on="0"/>
        <pt x="2651" y="1362" on="0"/>
        <pt x="2585" y="1362" on="1"/>
        <pt x="2534" y="1362" on="0"/>
        <pt x="2412" y="1383" on="0"/>
        <pt x="2282" y="1417" on="0"/>
        <pt x="2151" y="1461" on="0"/>
        <pt x="2091" y="1484" on="1"/>
        <pt x="2019" y="1511" on="0"/>
        <pt x="1876" y="1572" on="0"/>
        <pt x="1803" y="1606" on="1"/>
        <pt x="1571" y="1518" on="0"/>
        <pt x="1192" y="1309" on="0"/>
        <pt x="893" y="1082" on="0"/>
        <pt x="673" y="845" on="0"/>
        <pt x="529" y="613" on="0"/>
        <pt x="458" y="394" on="0"/>
        <pt x="458" y="299" on="1"/>
        <pt x="458" y="224" on="0"/>
        <pt x="497" y="101" on="0"/>
        <pt x="578" y="12" on="0"/>
        <pt x="702" y="-37" on="0"/>
        <pt x="786" y="-37" on="1"/>
        <pt x="899" y="-37" on="0"/>
        <pt x="1202" y="60" on="0"/>
        <pt x="1397" y="170" on="1"/>
        <pt x="1374" y="193" on="0"/>
        <pt x="1374" y="216" on="1"/>
        <pt x="1374" y="228" on="0"/>
        <pt x="1400" y="262" on="0"/>
        <pt x="1443" y="293" on="0"/>
        <pt x="1497" y="316" on="0"/>
        <pt x="1525" y="316" on="1"/>
        <pt x="1559" y="316" on="0"/>
        <pt x="1594" y="290" on="1"/>
        <pt x="1694" y="356" on="0"/>
        <pt x="1910" y="515" on="0"/>
        <pt x="2031" y="612" on="1"/>
        <pt x="2027" y="498" on="1"/>
        <pt x="1756" y="155" on="1"/>
        <pt x="1769" y="152" on="0"/>
        <pt x="1795" y="150" on="0"/>
        <pt x="1809" y="150" on="1"/>
        <pt x="1854" y="150" on="0"/>
        <pt x="1953" y="172" on="0"/>
        <pt x="2054" y="209" on="0"/>
        <pt x="2154" y="256" on="0"/>
        <pt x="2199" y="280" on="1"/>
        <pt x="2253" y="309" on="0"/>
        <pt x="2357" y="374" on="0"/>
      </contour>
      <contour>
        <pt x="1058" y="-561" on="1"/>
        <pt x="946" y="-546" on="0"/>
        <pt x="731" y="-529" on="0"/>
        <pt x="625" y="-529" on="1"/>
        <pt x="529" y="-529" on="0"/>
        <pt x="328" y="-586" on="0"/>
        <pt x="137" y="-683" on="0"/>
        <pt x="-32" y="-809" on="0"/>
        <pt x="-159" y="-946" on="0"/>
        <pt x="-233" y="-1086" on="0"/>
        <pt x="-233" y="-1147" on="1"/>
        <pt x="-233" y="-1193" on="0"/>
        <pt x="-187" y="-1270" on="0"/>
        <pt x="-88" y="-1327" on="0"/>
        <pt x="70" y="-1359" on="0"/>
        <pt x="183" y="-1359" on="1"/>
        <pt x="274" y="-1359" on="0"/>
        <pt x="449" y="-1277" on="0"/>
        <pt x="611" y="-1144" on="0"/>
        <pt x="759" y="-976" on="0"/>
        <pt x="888" y="-806" on="0"/>
        <pt x="996" y="-648" on="0"/>
        <pt x="1037" y="-591" on="1"/>
      </contour>
      <contour>
        <pt x="2617" y="1431" on="1"/>
        <pt x="2680" y="1431" on="0"/>
        <pt x="2735" y="1462" on="0"/>
        <pt x="2735" y="1488" on="1"/>
        <pt x="2735" y="1510" on="0"/>
        <pt x="2698" y="1564" on="0"/>
        <pt x="2634" y="1619" on="0"/>
        <pt x="2548" y="1671" on="0"/>
        <pt x="2449" y="1711" on="0"/>
        <pt x="2342" y="1736" on="0"/>
        <pt x="2290" y="1736" on="1"/>
        <pt x="2237" y="1736" on="0"/>
        <pt x="2141" y="1727" on="0"/>
        <pt x="2049" y="1708" on="0"/>
        <pt x="1958" y="1679" on="0"/>
        <pt x="1910" y="1660" on="1"/>
        <pt x="1932" y="1651" on="0"/>
        <pt x="2025" y="1610" on="0"/>
        <pt x="2148" y="1559" on="0"/>
        <pt x="2291" y="1505" on="0"/>
        <pt x="2433" y="1460" on="0"/>
        <pt x="2566" y="1431" on="0"/>
      </contour>
      <contour>
        <pt x="1853" y="426" on="1"/>
        <pt x="1799" y="372" on="0"/>
        <pt x="1696" y="277" on="0"/>
        <pt x="1645" y="232" on="1"/>
        <pt x="1651" y="224" on="1"/>
        <pt x="1655" y="219" on="0"/>
        <pt x="1663" y="208" on="0"/>
        <pt x="1668" y="203" on="1"/>
      </contour>
    </TTGlyph>
    <TTGlyph name="Gbreve" xMin="0" yMin="-1457" xMax="3854" yMax="2416">
      <component glyphName="G" x="1000" y="0" flags="0x4"/>
      <component glyphName="breve" x="2680" y="1930" flags="0x4"/>
    </TTGlyph>
    <TTGlyph name="Gcircumflex" xMin="0" yMin="-1457" xMax="3854" yMax="2440">
      <component glyphName="G" x="1000" y="0" flags="0x4"/>
      <component glyphName="circumflex" x="2036" y="1860" flags="0x4"/>
    </TTGlyph>
    <TTGlyph name="Gcommaaccent" xMin="-1000" yMin="-1457" xMax="2854" yMax="1873">
      <component glyphName="G" x="0" y="0" flags="0x204"/>
      <component glyphName="comma" x="290" y="-651" flags="0x4"/>
    </TTGlyph>
    <TTGlyph name="Gcommaaccent.001" xMin="-1000" yMin="-1457" xMax="2854" yMax="1873">
      <component glyphName="comma" x="334" y="-680" flags="0x4"/>
      <component glyphName="G" x="0" y="0" flags="0x4"/>
    </TTGlyph>
    <TTGlyph name="Gdotaccent" xMin="0" yMin="-1457" xMax="3854" yMax="2434">
      <component glyphName="G" x="1000" y="0" flags="0x4"/>
      <component glyphName="period" x="2829" y="1989" flags="0x4"/>
    </TTGlyph>
    <TTGlyph name="H" xMin="-479" yMin="-585" xMax="3036" yMax="2215">
      <contour>
        <pt x="1375" y="124" on="1"/>
        <pt x="1375" y="146" on="0"/>
        <pt x="1348" y="172" on="0"/>
        <pt x="1315" y="189" on="0"/>
        <pt x="1288" y="204" on="0"/>
        <pt x="1288" y="216" on="1"/>
        <pt x="1288" y="233" on="0"/>
        <pt x="1318" y="269" on="0"/>
        <pt x="1353" y="289" on="1"/>
        <pt x="1354" y="289" on="0"/>
        <pt x="1356" y="291" on="1"/>
        <pt x="1355" y="305" on="0"/>
        <pt x="1355" y="334" on="0"/>
        <pt x="1355" y="348" on="1"/>
        <pt x="1355" y="540" on="0"/>
        <pt x="1448" y="939" on="0"/>
        <pt x="1526" y="1137" on="1"/>
        <pt x="1423" y="1066" on="0"/>
        <pt x="1197" y="900" on="0"/>
        <pt x="965" y="732" on="0"/>
        <pt x="733" y="575" on="0"/>
        <pt x="624" y="513" on="1"/>
        <pt x="557" y="301" on="0"/>
        <pt x="407" y="-8" on="0"/>
        <pt x="250" y="-224" on="0"/>
        <pt x="89" y="-359" on="0"/>
        <pt x="-65" y="-434" on="0"/>
        <pt x="-208" y="-460" on="0"/>
        <pt x="-270" y="-460" on="1"/>
        <pt x="-379" y="-460" on="0"/>
        <pt x="-479" y="-398" on="0"/>
        <pt x="-479" y="-338" on="1"/>
        <pt x="-479" y="-274" on="0"/>
        <pt x="-364" y="-93" on="0"/>
        <pt x="-147" y="126" on="0"/>
        <pt x="164" y="374" on="0"/>
        <pt x="360" y="504" on="1"/>
        <pt x="423" y="643" on="0"/>
        <pt x="550" y="951" on="0"/>
        <pt x="668" y="1265" on="0"/>
        <pt x="775" y="1573" on="0"/>
        <pt x="863" y="1853" on="0"/>
        <pt x="928" y="2094" on="0"/>
        <pt x="945" y="2183" on="1"/>
        <pt x="952" y="2199" on="0"/>
        <pt x="974" y="2215" on="0"/>
        <pt x="986" y="2215" on="1"/>
        <pt x="1005" y="2215" on="0"/>
        <pt x="1023" y="2189" on="0"/>
        <pt x="1023" y="2169" on="1"/>
        <pt x="1023" y="2162" on="1"/>
        <pt x="1004" y="2080" on="0"/>
        <pt x="960" y="1870" on="0"/>
        <pt x="909" y="1631" on="0"/>
        <pt x="853" y="1370" on="0"/>
        <pt x="790" y="1100" on="0"/>
        <pt x="721" y="830" on="0"/>
        <pt x="684" y="703" on="1"/>
        <pt x="798" y="760" on="0"/>
        <pt x="1029" y="907" on="0"/>
        <pt x="1259" y="1063" on="0"/>
        <pt x="1482" y="1217" on="0"/>
        <pt x="1588" y="1282" on="1"/>
        <pt x="1645" y="1406" on="0"/>
        <pt x="1776" y="1637" on="0"/>
        <pt x="1914" y="1838" on="0"/>
        <pt x="2055" y="2003" on="0"/>
        <pt x="2190" y="2120" on="0"/>
        <pt x="2313" y="2185" on="0"/>
        <pt x="2365" y="2185" on="1"/>
        <pt x="2405" y="2185" on="0"/>
        <pt x="2460" y="2168" on="0"/>
        <pt x="2494" y="2139" on="0"/>
        <pt x="2508" y="2099" on="0"/>
        <pt x="2508" y="2077" on="1"/>
        <pt x="2508" y="2038" on="0"/>
        <pt x="2475" y="1948" on="0"/>
        <pt x="2431" y="1867" on="0"/>
        <pt x="2387" y="1806" on="0"/>
        <pt x="2377" y="1796" on="1"/>
        <pt x="2379" y="1800" on="1"/>
        <pt x="2373" y="1798" on="0"/>
        <pt x="2308" y="1751" on="0"/>
        <pt x="2199" y="1668" on="0"/>
        <pt x="2052" y="1555" on="0"/>
        <pt x="1964" y="1486" on="1"/>
        <pt x="1890" y="1345" on="0"/>
        <pt x="1750" y="1031" on="0"/>
        <pt x="1640" y="708" on="0"/>
        <pt x="1574" y="388" on="0"/>
        <pt x="1574" y="242" on="1"/>
        <pt x="1574" y="211" on="1"/>
        <pt x="1603" y="176" on="0"/>
        <pt x="1682" y="150" on="0"/>
        <pt x="1731" y="150" on="1"/>
        <pt x="1750" y="150" on="0"/>
        <pt x="1788" y="156" on="0"/>
        <pt x="1810" y="170" on="1"/>
        <pt x="1835" y="165" on="1"/>
        <pt x="1901" y="182" on="0"/>
        <pt x="2028" y="233" on="0"/>
        <pt x="2149" y="297" on="0"/>
        <pt x="2267" y="371" on="0"/>
        <pt x="2324" y="411" on="1"/>
        <pt x="2336" y="417" on="0"/>
        <pt x="2346" y="417" on="1"/>
        <pt x="2357" y="417" on="0"/>
        <pt x="2369" y="402" on="0"/>
        <pt x="2369" y="391" on="1"/>
        <pt x="2369" y="377" on="0"/>
        <pt x="2347" y="342" on="0"/>
        <pt x="2324" y="328" on="1"/>
        <pt x="2234" y="265" on="0"/>
        <pt x="2057" y="166" on="0"/>
        <pt x="1954" y="123" on="1"/>
        <pt x="1967" y="112" on="0"/>
        <pt x="1971" y="87" on="0"/>
        <pt x="1971" y="76" on="1"/>
        <pt x="2124" y="76" on="0"/>
        <pt x="2400" y="41" on="0"/>
        <pt x="2637" y="-20" on="0"/>
        <pt x="2828" y="-100" on="0"/>
        <pt x="2963" y="-192" on="0"/>
        <pt x="3036" y="-290" on="0"/>
        <pt x="3036" y="-337" on="1"/>
        <pt x="3036" y="-399" on="0"/>
        <pt x="2951" y="-491" on="0"/>
        <pt x="2805" y="-554" on="0"/>
        <pt x="2608" y="-585" on="0"/>
        <pt x="2496" y="-585" on="1"/>
        <pt x="2375" y="-585" on="0"/>
        <pt x="2114" y="-548" on="0"/>
        <pt x="1865" y="-472" on="0"/>
        <pt x="1642" y="-359" on="0"/>
        <pt x="1474" y="-205" on="0"/>
        <pt x="1375" y="-12" on="0"/>
        <pt x="1375" y="105" on="1"/>
      </contour>
      <contour>
        <pt x="1618" y="45" on="1"/>
        <pt x="1611" y="45" on="0"/>
        <pt x="1599" y="45" on="0"/>
        <pt x="1592" y="46" on="1"/>
        <pt x="1603" y="-56" on="0"/>
        <pt x="1691" y="-219" on="0"/>
        <pt x="1824" y="-344" on="0"/>
        <pt x="1994" y="-433" on="0"/>
        <pt x="2179" y="-490" on="0"/>
        <pt x="2369" y="-517" on="0"/>
        <pt x="2457" y="-517" on="1"/>
        <pt x="2538" y="-517" on="0"/>
        <pt x="2680" y="-496" on="0"/>
        <pt x="2785" y="-457" on="0"/>
        <pt x="2845" y="-401" on="0"/>
        <pt x="2845" y="-366" on="1"/>
        <pt x="2845" y="-339" on="0"/>
        <pt x="2787" y="-278" on="0"/>
        <pt x="2686" y="-214" on="0"/>
        <pt x="2550" y="-151" on="0"/>
        <pt x="2395" y="-93" on="0"/>
        <pt x="2227" y="-43" on="0"/>
        <pt x="2062" y="-6" on="0"/>
        <pt x="1907" y="15" on="0"/>
        <pt x="1843" y="15" on="1"/>
        <pt x="1780" y="15" on="0"/>
        <pt x="1699" y="6" on="0"/>
        <pt x="1690" y="6" on="1"/>
        <pt x="1632" y="6" on="0"/>
        <pt x="1632" y="29" on="1"/>
        <pt x="1632" y="38" on="0"/>
        <pt x="1639" y="45" on="1"/>
      </contour>
      <contour>
        <pt x="239" y="251" on="1"/>
        <pt x="167" y="197" on="0"/>
        <pt x="22" y="89" on="0"/>
        <pt x="-111" y="-14" on="0"/>
        <pt x="-227" y="-111" on="0"/>
        <pt x="-313" y="-196" on="0"/>
        <pt x="-362" y="-267" on="0"/>
        <pt x="-362" y="-293" on="1"/>
        <pt x="-362" y="-322" on="0"/>
        <pt x="-295" y="-352" on="0"/>
        <pt x="-217" y="-352" on="1"/>
        <pt x="-163" y="-352" on="0"/>
        <pt x="-81" y="-319" on="0"/>
        <pt x="-11" y="-252" on="0"/>
        <pt x="50" y="-152" on="0"/>
        <pt x="116" y="-18" on="0"/>
        <pt x="191" y="150" on="0"/>
      </contour>
      <contour>
        <pt x="2365" y="2105" on="1"/>
        <pt x="2352" y="2098" on="0"/>
        <pt x="2288" y="2019" on="0"/>
        <pt x="2198" y="1888" on="0"/>
        <pt x="2088" y="1711" on="0"/>
        <pt x="2029" y="1606" on="1"/>
        <pt x="2126" y="1680" on="0"/>
        <pt x="2286" y="1812" on="0"/>
        <pt x="2400" y="1926" on="0"/>
        <pt x="2463" y="2019" on="0"/>
        <pt x="2463" y="2054" on="1"/>
        <pt x="2463" y="2109" on="0"/>
        <pt x="2385" y="2130" on="1"/>
        <pt x="2375" y="2118" on="1"/>
        <pt x="2371" y="2113" on="0"/>
        <pt x="2365" y="2106" on="0"/>
      </contour>
    </TTGlyph>
    <TTGlyph name="Hbar" xMin="-479" yMin="-585" xMax="3036" yMax="2215">
      <contour>
        <pt x="428" y="1183" on="1"/>
        <pt x="400" y="1183" on="0"/>
        <pt x="369" y="1219" on="0"/>
        <pt x="369" y="1242" on="1"/>
        <pt x="369" y="1255" on="0"/>
        <pt x="380" y="1281" on="0"/>
        <pt x="402" y="1302" on="0"/>
        <pt x="437" y="1315" on="0"/>
        <pt x="461" y="1315" on="1"/>
        <pt x="468" y="1315" on="0"/>
        <pt x="563" y="1316" on="0"/>
        <pt x="713" y="1317" on="0"/>
        <pt x="909" y="1318" on="0"/>
        <pt x="1127" y="1319" on="0"/>
        <pt x="1357" y="1321" on="0"/>
        <pt x="1575" y="1322" on="0"/>
        <pt x="1770" y="1323" on="0"/>
        <pt x="1921" y="1324" on="0"/>
        <pt x="2014" y="1325" on="0"/>
        <pt x="2021" y="1325" on="1"/>
        <pt x="2103" y="1325" on="0"/>
        <pt x="2209" y="1321" on="0"/>
        <pt x="2271" y="1310" on="0"/>
        <pt x="2296" y="1290" on="0"/>
        <pt x="2296" y="1274" on="1"/>
        <pt x="2296" y="1263" on="0"/>
        <pt x="2282" y="1242" on="0"/>
        <pt x="2260" y="1226" on="0"/>
        <pt x="2232" y="1215" on="0"/>
        <pt x="2218" y="1215" on="1"/>
        <pt x="2189" y="1215" on="0"/>
        <pt x="2063" y="1213" on="0"/>
        <pt x="1886" y="1210" on="0"/>
        <pt x="1670" y="1206" on="0"/>
        <pt x="1434" y="1201" on="0"/>
        <pt x="1190" y="1197" on="0"/>
        <pt x="956" y="1192" on="0"/>
        <pt x="743" y="1188" on="0"/>
        <pt x="572" y="1185" on="0"/>
        <pt x="452" y="1183" on="0"/>
      </contour>
      <contour>
        <pt x="1375" y="124" on="1"/>
        <pt x="1375" y="146" on="0"/>
        <pt x="1348" y="172" on="0"/>
        <pt x="1315" y="189" on="0"/>
        <pt x="1288" y="204" on="0"/>
        <pt x="1288" y="216" on="1"/>
        <pt x="1288" y="233" on="0"/>
        <pt x="1318" y="269" on="0"/>
        <pt x="1353" y="289" on="1"/>
        <pt x="1354" y="289" on="0"/>
        <pt x="1356" y="291" on="1"/>
        <pt x="1355" y="305" on="0"/>
        <pt x="1355" y="334" on="0"/>
        <pt x="1355" y="348" on="1"/>
        <pt x="1355" y="540" on="0"/>
        <pt x="1448" y="939" on="0"/>
        <pt x="1526" y="1137" on="1"/>
        <pt x="1423" y="1066" on="0"/>
        <pt x="1197" y="900" on="0"/>
        <pt x="965" y="732" on="0"/>
        <pt x="733" y="575" on="0"/>
        <pt x="624" y="513" on="1"/>
        <pt x="557" y="301" on="0"/>
        <pt x="407" y="-8" on="0"/>
        <pt x="250" y="-224" on="0"/>
        <pt x="89" y="-359" on="0"/>
        <pt x="-65" y="-434" on="0"/>
        <pt x="-208" y="-460" on="0"/>
        <pt x="-270" y="-460" on="1"/>
        <pt x="-379" y="-460" on="0"/>
        <pt x="-479" y="-398" on="0"/>
        <pt x="-479" y="-338" on="1"/>
        <pt x="-479" y="-274" on="0"/>
        <pt x="-364" y="-93" on="0"/>
        <pt x="-147" y="126" on="0"/>
        <pt x="164" y="374" on="0"/>
        <pt x="360" y="504" on="1"/>
        <pt x="423" y="643" on="0"/>
        <pt x="550" y="951" on="0"/>
        <pt x="668" y="1265" on="0"/>
        <pt x="775" y="1573" on="0"/>
        <pt x="863" y="1853" on="0"/>
        <pt x="928" y="2094" on="0"/>
        <pt x="945" y="2183" on="1"/>
        <pt x="952" y="2199" on="0"/>
        <pt x="974" y="2215" on="0"/>
        <pt x="986" y="2215" on="1"/>
        <pt x="1005" y="2215" on="0"/>
        <pt x="1023" y="2189" on="0"/>
        <pt x="1023" y="2169" on="1"/>
        <pt x="1023" y="2162" on="1"/>
        <pt x="1004" y="2080" on="0"/>
        <pt x="960" y="1870" on="0"/>
        <pt x="909" y="1631" on="0"/>
        <pt x="853" y="1370" on="0"/>
        <pt x="790" y="1100" on="0"/>
        <pt x="721" y="830" on="0"/>
        <pt x="684" y="703" on="1"/>
        <pt x="798" y="760" on="0"/>
        <pt x="1029" y="907" on="0"/>
        <pt x="1259" y="1063" on="0"/>
        <pt x="1482" y="1217" on="0"/>
        <pt x="1588" y="1282" on="1"/>
        <pt x="1645" y="1406" on="0"/>
        <pt x="1776" y="1637" on="0"/>
        <pt x="1914" y="1838" on="0"/>
        <pt x="2055" y="2003" on="0"/>
        <pt x="2190" y="2120" on="0"/>
        <pt x="2313" y="2185" on="0"/>
        <pt x="2365" y="2185" on="1"/>
        <pt x="2405" y="2185" on="0"/>
        <pt x="2460" y="2168" on="0"/>
        <pt x="2494" y="2139" on="0"/>
        <pt x="2508" y="2099" on="0"/>
        <pt x="2508" y="2077" on="1"/>
        <pt x="2508" y="2038" on="0"/>
        <pt x="2475" y="1948" on="0"/>
        <pt x="2431" y="1867" on="0"/>
        <pt x="2387" y="1806" on="0"/>
        <pt x="2377" y="1796" on="1"/>
        <pt x="2379" y="1800" on="1"/>
        <pt x="2373" y="1798" on="0"/>
        <pt x="2308" y="1751" on="0"/>
        <pt x="2199" y="1668" on="0"/>
        <pt x="2052" y="1555" on="0"/>
        <pt x="1964" y="1486" on="1"/>
        <pt x="1890" y="1345" on="0"/>
        <pt x="1750" y="1031" on="0"/>
        <pt x="1640" y="708" on="0"/>
        <pt x="1574" y="388" on="0"/>
        <pt x="1574" y="242" on="1"/>
        <pt x="1574" y="211" on="1"/>
        <pt x="1603" y="176" on="0"/>
        <pt x="1682" y="150" on="0"/>
        <pt x="1731" y="150" on="1"/>
        <pt x="1750" y="150" on="0"/>
        <pt x="1788" y="156" on="0"/>
        <pt x="1810" y="170" on="1"/>
        <pt x="1835" y="165" on="1"/>
        <pt x="1901" y="182" on="0"/>
        <pt x="2028" y="233" on="0"/>
        <pt x="2149" y="297" on="0"/>
        <pt x="2267" y="371" on="0"/>
        <pt x="2324" y="411" on="1"/>
        <pt x="2336" y="417" on="0"/>
        <pt x="2346" y="417" on="1"/>
        <pt x="2357" y="417" on="0"/>
        <pt x="2369" y="402" on="0"/>
        <pt x="2369" y="391" on="1"/>
        <pt x="2369" y="377" on="0"/>
        <pt x="2347" y="342" on="0"/>
        <pt x="2324" y="328" on="1"/>
        <pt x="2234" y="265" on="0"/>
        <pt x="2057" y="166" on="0"/>
        <pt x="1954" y="123" on="1"/>
        <pt x="1967" y="112" on="0"/>
        <pt x="1971" y="87" on="0"/>
        <pt x="1971" y="76" on="1"/>
        <pt x="2124" y="76" on="0"/>
        <pt x="2400" y="41" on="0"/>
        <pt x="2637" y="-20" on="0"/>
        <pt x="2828" y="-100" on="0"/>
        <pt x="2963" y="-192" on="0"/>
        <pt x="3036" y="-290" on="0"/>
        <pt x="3036" y="-337" on="1"/>
        <pt x="3036" y="-399" on="0"/>
        <pt x="2951" y="-491" on="0"/>
        <pt x="2805" y="-554" on="0"/>
        <pt x="2608" y="-585" on="0"/>
        <pt x="2496" y="-585" on="1"/>
        <pt x="2375" y="-585" on="0"/>
        <pt x="2114" y="-548" on="0"/>
        <pt x="1865" y="-472" on="0"/>
        <pt x="1642" y="-359" on="0"/>
        <pt x="1474" y="-205" on="0"/>
        <pt x="1375" y="-12" on="0"/>
        <pt x="1375" y="105" on="1"/>
      </contour>
      <contour>
        <pt x="1618" y="45" on="1"/>
        <pt x="1611" y="45" on="0"/>
        <pt x="1599" y="45" on="0"/>
        <pt x="1592" y="46" on="1"/>
        <pt x="1603" y="-56" on="0"/>
        <pt x="1691" y="-219" on="0"/>
        <pt x="1824" y="-344" on="0"/>
        <pt x="1994" y="-433" on="0"/>
        <pt x="2179" y="-490" on="0"/>
        <pt x="2369" y="-517" on="0"/>
        <pt x="2457" y="-517" on="1"/>
        <pt x="2538" y="-517" on="0"/>
        <pt x="2680" y="-496" on="0"/>
        <pt x="2785" y="-457" on="0"/>
        <pt x="2845" y="-401" on="0"/>
        <pt x="2845" y="-366" on="1"/>
        <pt x="2845" y="-339" on="0"/>
        <pt x="2787" y="-278" on="0"/>
        <pt x="2686" y="-214" on="0"/>
        <pt x="2550" y="-151" on="0"/>
        <pt x="2395" y="-93" on="0"/>
        <pt x="2227" y="-43" on="0"/>
        <pt x="2062" y="-6" on="0"/>
        <pt x="1907" y="15" on="0"/>
        <pt x="1843" y="15" on="1"/>
        <pt x="1780" y="15" on="0"/>
        <pt x="1699" y="6" on="0"/>
        <pt x="1690" y="6" on="1"/>
        <pt x="1632" y="6" on="0"/>
        <pt x="1632" y="29" on="1"/>
        <pt x="1632" y="38" on="0"/>
        <pt x="1639" y="45" on="1"/>
      </contour>
      <contour>
        <pt x="239" y="251" on="1"/>
        <pt x="167" y="197" on="0"/>
        <pt x="22" y="89" on="0"/>
        <pt x="-111" y="-14" on="0"/>
        <pt x="-227" y="-111" on="0"/>
        <pt x="-313" y="-196" on="0"/>
        <pt x="-362" y="-267" on="0"/>
        <pt x="-362" y="-293" on="1"/>
        <pt x="-362" y="-322" on="0"/>
        <pt x="-295" y="-352" on="0"/>
        <pt x="-217" y="-352" on="1"/>
        <pt x="-163" y="-352" on="0"/>
        <pt x="-81" y="-319" on="0"/>
        <pt x="-11" y="-252" on="0"/>
        <pt x="50" y="-152" on="0"/>
        <pt x="116" y="-18" on="0"/>
        <pt x="191" y="150" on="0"/>
      </contour>
      <contour>
        <pt x="2365" y="2105" on="1"/>
        <pt x="2352" y="2098" on="0"/>
        <pt x="2288" y="2019" on="0"/>
        <pt x="2198" y="1888" on="0"/>
        <pt x="2088" y="1711" on="0"/>
        <pt x="2029" y="1606" on="1"/>
        <pt x="2126" y="1680" on="0"/>
        <pt x="2286" y="1812" on="0"/>
        <pt x="2400" y="1926" on="0"/>
        <pt x="2463" y="2019" on="0"/>
        <pt x="2463" y="2054" on="1"/>
        <pt x="2463" y="2109" on="0"/>
        <pt x="2385" y="2130" on="1"/>
        <pt x="2375" y="2118" on="1"/>
        <pt x="2371" y="2113" on="0"/>
        <pt x="2365" y="2106" on="0"/>
      </contour>
    </TTGlyph>
    <TTGlyph name="Hcircumflex" xMin="-479" yMin="-585" xMax="3036" yMax="2715">
      <component glyphName="H" x="0" y="0" flags="0x204"/>
      <component glyphName="circumflex" x="317" y="2135" flags="0x4"/>
    </TTGlyph>
    <TTGlyph name="I" xMin="0" yMin="-323" xMax="2148" yMax="1645">
      <contour>
        <pt x="2103" y="411" on="1"/>
        <pt x="2115" y="417" on="0"/>
        <pt x="2125" y="417" on="1"/>
        <pt x="2136" y="417" on="0"/>
        <pt x="2148" y="402" on="0"/>
        <pt x="2148" y="391" on="1"/>
        <pt x="2148" y="376" on="0"/>
        <pt x="2126" y="343" on="0"/>
        <pt x="2103" y="328" on="1"/>
        <pt x="2046" y="290" on="0"/>
        <pt x="1932" y="222" on="0"/>
        <pt x="1872" y="192" on="1"/>
        <pt x="1822" y="166" on="0"/>
        <pt x="1710" y="117" on="0"/>
        <pt x="1594" y="80" on="0"/>
        <pt x="1477" y="57" on="0"/>
        <pt x="1423" y="57" on="1"/>
        <pt x="1375" y="57" on="0"/>
        <pt x="1290" y="76" on="0"/>
        <pt x="1252" y="99" on="1"/>
        <pt x="1191" y="2" on="0"/>
        <pt x="1038" y="-154" on="0"/>
        <pt x="841" y="-264" on="0"/>
        <pt x="595" y="-323" on="0"/>
        <pt x="441" y="-323" on="1"/>
        <pt x="330" y="-323" on="0"/>
        <pt x="164" y="-265" on="0"/>
        <pt x="54" y="-164" on="0"/>
        <pt x="0" y="-29" on="0"/>
        <pt x="0" y="48" on="1"/>
        <pt x="0" y="131" on="0"/>
        <pt x="57" y="312" on="0"/>
        <pt x="162" y="492" on="0"/>
        <pt x="310" y="663" on="0"/>
        <pt x="493" y="808" on="0"/>
        <pt x="707" y="920" on="0"/>
        <pt x="825" y="951" on="1"/>
        <pt x="831" y="1077" on="0"/>
        <pt x="929" y="1312" on="0"/>
        <pt x="1130" y="1500" on="0"/>
        <pt x="1444" y="1626" on="0"/>
        <pt x="1667" y="1644" on="1"/>
        <pt x="1668" y="1644" on="0"/>
        <pt x="1670" y="1645" on="0"/>
        <pt x="1672" y="1645" on="1"/>
        <pt x="1717" y="1645" on="0"/>
        <pt x="1757" y="1614" on="0"/>
        <pt x="1757" y="1579" on="1"/>
        <pt x="1757" y="1539" on="0"/>
        <pt x="1717" y="1402" on="0"/>
        <pt x="1682" y="1293" on="1"/>
        <pt x="1640" y="1164" on="0"/>
        <pt x="1570" y="926" on="0"/>
        <pt x="1535" y="808" on="1"/>
        <pt x="1573" y="772" on="0"/>
        <pt x="1640" y="679" on="0"/>
        <pt x="1691" y="562" on="0"/>
        <pt x="1725" y="418" on="0"/>
        <pt x="1730" y="332" on="1"/>
        <pt x="1733" y="323" on="0"/>
        <pt x="1733" y="315" on="1"/>
        <pt x="1733" y="304" on="0"/>
        <pt x="1720" y="285" on="0"/>
        <pt x="1709" y="285" on="1"/>
        <pt x="1697" y="285" on="0"/>
        <pt x="1689" y="301" on="0"/>
        <pt x="1683" y="314" on="1"/>
        <pt x="1641" y="396" on="0"/>
        <pt x="1542" y="567" on="0"/>
        <pt x="1485" y="646" on="1"/>
        <pt x="1442" y="507" on="0"/>
        <pt x="1348" y="266" on="0"/>
        <pt x="1288" y="160" on="1"/>
        <pt x="1321" y="111" on="0"/>
        <pt x="1400" y="111" on="1"/>
        <pt x="1443" y="111" on="0"/>
        <pt x="1550" y="137" on="0"/>
        <pt x="1665" y="179" on="0"/>
        <pt x="1783" y="233" on="0"/>
        <pt x="1838" y="261" on="1"/>
        <pt x="1904" y="294" on="0"/>
        <pt x="2034" y="369" on="0"/>
      </contour>
      <contour>
        <pt x="973" y="-39" on="1"/>
        <pt x="1004" y="-3" on="0"/>
        <pt x="1064" y="139" on="0"/>
        <pt x="1099" y="232" on="1"/>
        <pt x="1037" y="299" on="0"/>
        <pt x="936" y="458" on="0"/>
        <pt x="864" y="633" on="0"/>
        <pt x="824" y="817" on="0"/>
        <pt x="824" y="909" on="1"/>
        <pt x="724" y="880" on="0"/>
        <pt x="534" y="774" on="0"/>
        <pt x="366" y="636" on="0"/>
        <pt x="225" y="474" on="0"/>
        <pt x="123" y="306" on="0"/>
        <pt x="66" y="139" on="0"/>
        <pt x="66" y="64" on="1"/>
        <pt x="66" y="2" on="0"/>
        <pt x="113" y="-111" on="0"/>
        <pt x="209" y="-197" on="0"/>
        <pt x="357" y="-247" on="0"/>
        <pt x="459" y="-247" on="1"/>
        <pt x="621" y="-247" on="0"/>
        <pt x="882" y="-145" on="0"/>
      </contour>
      <contour>
        <pt x="1070" y="983" on="1"/>
        <pt x="1090" y="983" on="0"/>
        <pt x="1149" y="979" on="0"/>
        <pt x="1220" y="968" on="0"/>
        <pt x="1300" y="948" on="0"/>
        <pt x="1342" y="931" on="1"/>
        <pt x="1381" y="1044" on="0"/>
        <pt x="1456" y="1257" on="0"/>
        <pt x="1527" y="1436" on="0"/>
        <pt x="1592" y="1572" on="0"/>
        <pt x="1621" y="1608" on="1"/>
        <pt x="1477" y="1607" on="0"/>
        <pt x="1233" y="1505" on="0"/>
        <pt x="1048" y="1331" on="0"/>
        <pt x="932" y="1100" on="0"/>
        <pt x="917" y="970" on="1"/>
        <pt x="955" y="976" on="0"/>
        <pt x="1031" y="983" on="0"/>
      </contour>
      <contour>
        <pt x="1137" y="334" on="1"/>
        <pt x="1179" y="449" on="0"/>
        <pt x="1264" y="702" on="0"/>
        <pt x="1309" y="835" on="1"/>
        <pt x="1246" y="883" on="0"/>
        <pt x="1108" y="940" on="0"/>
        <pt x="1027" y="940" on="1"/>
        <pt x="997" y="940" on="0"/>
        <pt x="940" y="935" on="0"/>
        <pt x="914" y="930" on="1"/>
        <pt x="913" y="919" on="0"/>
        <pt x="913" y="896" on="0"/>
        <pt x="913" y="884" on="1"/>
        <pt x="913" y="745" on="0"/>
        <pt x="1019" y="463" on="0"/>
      </contour>
    </TTGlyph>
    <TTGlyph name="IJ" xMin="0" yMin="-524" xMax="6185" yMax="1909">
      <component glyphName="I" x="0" y="0" flags="0x4"/>
      <component glyphName="J" x="2103" y="0" flags="0x4"/>
    </TTGlyph>
    <TTGlyph name="Iacute" xMin="-122" yMin="-323" xMax="2071" yMax="2632">
      <component glyphName="I" x="-122" y="0" flags="0x4"/>
      <component glyphName="acute" x="775" y="1831" flags="0x4"/>
    </TTGlyph>
    <TTGlyph name="Ibreve" xMin="0" yMin="-323" xMax="2159" yMax="2320">
      <component glyphName="I" x="0" y="0" flags="0x204"/>
      <component glyphName="breve" x="1091" y="1834" flags="0x4"/>
    </TTGlyph>
    <TTGlyph name="Icircumflex" xMin="-122" yMin="-323" xMax="2026" yMax="2380">
      <component glyphName="I" x="-122" y="0" flags="0x4"/>
      <component glyphName="circumflex" x="360" y="1800" flags="0x4"/>
    </TTGlyph>
    <TTGlyph name="Idieresis" xMin="-122" yMin="-323" xMax="2052" yMax="2281">
      <component glyphName="I" x="-122" y="0" flags="0x4"/>
      <component glyphName="dieresis" x="1061" y="1965" flags="0x4"/>
    </TTGlyph>
    <TTGlyph name="Idot.001" xMin="0" yMin="-323" xMax="2148" yMax="1645">
      <component glyphName="I" x="0" y="0" flags="0x204"/>
      <component glyphName="period" x="1550" y="612" flags="0x4"/>
    </TTGlyph>
    <TTGlyph name="Idotaccent" xMin="0" yMin="-323" xMax="2148" yMax="1645">
      <component glyphName="I" x="0" y="0" flags="0x204"/>
      <component glyphName="period" x="1480" y="762" flags="0x4"/>
    </TTGlyph>
    <TTGlyph name="Igrave" xMin="-122" yMin="-323" xMax="2026" yMax="2615">
      <component glyphName="I" x="-122" y="0" flags="0x4"/>
      <component glyphName="grave" x="874" y="1814" flags="0x4"/>
    </TTGlyph>
    <TTGlyph name="Imacron" xMin="0" yMin="-323" xMax="2148" yMax="2019">
      <component glyphName="I" x="0" y="0" flags="0x204"/>
      <component glyphName="macron" x="1012" y="1872" flags="0x4"/>
    </TTGlyph>
    <TTGlyph name="Iogonek" xMin="0" yMin="-804" xMax="2148" yMax="1645">
      <component glyphName="I" x="0" y="0" flags="0x204"/>
      <component glyphName="ogonek" x="661" y="-116" flags="0x4"/>
    </TTGlyph>
    <TTGlyph name="Itilde" xMin="0" yMin="-323" xMax="2148" yMax="2126">
      <component glyphName="I" x="0" y="0" flags="0x204"/>
      <component glyphName="tilde" x="1086" y="1711" flags="0x4"/>
    </TTGlyph>
    <TTGlyph name="J" xMin="0" yMin="-524" xMax="4082" yMax="1909">
      <contour>
        <pt x="1581" y="411" on="1"/>
        <pt x="1593" y="417" on="0"/>
        <pt x="1603" y="417" on="1"/>
        <pt x="1614" y="417" on="0"/>
        <pt x="1626" y="402" on="0"/>
        <pt x="1626" y="391" on="1"/>
        <pt x="1626" y="376" on="0"/>
        <pt x="1604" y="343" on="0"/>
        <pt x="1581" y="328" on="1"/>
        <pt x="1506" y="278" on="1"/>
        <pt x="1471" y="255" on="0"/>
        <pt x="1374" y="194" on="0"/>
        <pt x="1314" y="159" on="1"/>
        <pt x="1314" y="158" on="1"/>
        <pt x="1237" y="-10" on="0"/>
        <pt x="1037" y="-265" on="0"/>
        <pt x="816" y="-437" on="0"/>
        <pt x="588" y="-524" on="0"/>
        <pt x="483" y="-524" on="1"/>
        <pt x="366" y="-524" on="0"/>
        <pt x="186" y="-441" on="0"/>
        <pt x="63" y="-309" on="0"/>
        <pt x="0" y="-143" on="0"/>
        <pt x="0" y="-59" on="1"/>
        <pt x="0" y="13" on="0"/>
        <pt x="48" y="147" on="0"/>
        <pt x="148" y="249" on="0"/>
        <pt x="299" y="311" on="0"/>
        <pt x="403" y="311" on="1"/>
        <pt x="454" y="311" on="0"/>
        <pt x="546" y="275" on="0"/>
        <pt x="616" y="203" on="0"/>
        <pt x="657" y="93" on="0"/>
        <pt x="657" y="18" on="1"/>
        <pt x="657" y="-4" on="0"/>
        <pt x="644" y="-20" on="1"/>
        <pt x="691" y="-20" on="0"/>
        <pt x="804" y="5" on="0"/>
        <pt x="927" y="48" on="0"/>
        <pt x="1058" y="107" on="0"/>
        <pt x="1123" y="140" on="1"/>
        <pt x="1136" y="165" on="0"/>
        <pt x="1159" y="218" on="0"/>
        <pt x="1169" y="246" on="1"/>
        <pt x="1178" y="270" on="0"/>
        <pt x="1222" y="375" on="0"/>
        <pt x="1284" y="517" on="0"/>
        <pt x="1358" y="685" on="0"/>
        <pt x="1436" y="859" on="0"/>
        <pt x="1513" y="1031" on="0"/>
        <pt x="1582" y="1179" on="0"/>
        <pt x="1636" y="1294" on="0"/>
        <pt x="1652" y="1325" on="1"/>
        <pt x="1381" y="1369" on="0"/>
        <pt x="991" y="1450" on="0"/>
        <pt x="739" y="1524" on="0"/>
        <pt x="620" y="1591" on="0"/>
        <pt x="620" y="1620" on="1"/>
        <pt x="620" y="1649" on="0"/>
        <pt x="704" y="1698" on="0"/>
        <pt x="892" y="1738" on="0"/>
        <pt x="1191" y="1768" on="0"/>
        <pt x="1622" y="1790" on="0"/>
        <pt x="2192" y="1799" on="0"/>
        <pt x="2557" y="1800" on="1"/>
        <pt x="2863" y="1800" on="0"/>
        <pt x="3318" y="1786" on="0"/>
        <pt x="3637" y="1770" on="0"/>
        <pt x="3832" y="1757" on="0"/>
        <pt x="3879" y="1757" on="1"/>
        <pt x="3904" y="1757" on="0"/>
        <pt x="3939" y="1761" on="0"/>
        <pt x="3959" y="1780" on="0"/>
        <pt x="3968" y="1820" on="0"/>
        <pt x="3968" y="1855" on="1"/>
        <pt x="3968" y="1882" on="0"/>
        <pt x="4003" y="1909" on="0"/>
        <pt x="4025" y="1909" on="1"/>
        <pt x="4046" y="1909" on="0"/>
        <pt x="4082" y="1882" on="0"/>
        <pt x="4082" y="1855" on="1"/>
        <pt x="4082" y="1816" on="0"/>
        <pt x="4076" y="1755" on="0"/>
        <pt x="4047" y="1713" on="0"/>
        <pt x="3988" y="1691" on="0"/>
        <pt x="3936" y="1691" on="1"/>
        <pt x="3846" y="1691" on="0"/>
        <pt x="3709" y="1689" on="0"/>
        <pt x="3598" y="1686" on="0"/>
        <pt x="3504" y="1681" on="0"/>
        <pt x="3411" y="1677" on="0"/>
        <pt x="3309" y="1672" on="0"/>
        <pt x="3182" y="1669" on="0"/>
        <pt x="3020" y="1667" on="0"/>
        <pt x="2914" y="1667" on="1"/>
        <pt x="2851" y="1667" on="0"/>
        <pt x="2684" y="1668" on="0"/>
        <pt x="2489" y="1671" on="0"/>
        <pt x="2269" y="1674" on="0"/>
        <pt x="2154" y="1676" on="1"/>
        <pt x="2159" y="1663" on="0"/>
        <pt x="2162" y="1636" on="0"/>
        <pt x="2162" y="1622" on="1"/>
        <pt x="2162" y="1597" on="0"/>
        <pt x="2152" y="1549" on="0"/>
        <pt x="2146" y="1532" on="1"/>
        <pt x="2111" y="1439" on="0"/>
        <pt x="2024" y="1337" on="0"/>
        <pt x="1928" y="1286" on="0"/>
        <pt x="1827" y="1269" on="0"/>
        <pt x="1779" y="1262" on="1"/>
        <pt x="1759" y="1214" on="0"/>
        <pt x="1701" y="1072" on="0"/>
        <pt x="1631" y="903" on="0"/>
        <pt x="1554" y="715" on="0"/>
        <pt x="1476" y="528" on="0"/>
        <pt x="1400" y="351" on="0"/>
        <pt x="1367" y="276" on="1"/>
        <pt x="1415" y="304" on="0"/>
        <pt x="1492" y="354" on="0"/>
        <pt x="1521" y="372" on="1"/>
      </contour>
      <contour>
        <pt x="407" y="-434" on="1"/>
        <pt x="483" y="-434" on="0"/>
        <pt x="655" y="-365" on="0"/>
        <pt x="826" y="-244" on="0"/>
        <pt x="986" y="-80" on="0"/>
        <pt x="1051" y="16" on="1"/>
        <pt x="984" y="-17" on="0"/>
        <pt x="847" y="-75" on="0"/>
        <pt x="714" y="-117" on="0"/>
        <pt x="589" y="-142" on="0"/>
        <pt x="535" y="-142" on="1"/>
        <pt x="483" y="-142" on="0"/>
        <pt x="404" y="-117" on="0"/>
        <pt x="351" y="-80" on="0"/>
        <pt x="324" y="-37" on="0"/>
        <pt x="324" y="-18" on="1"/>
        <pt x="324" y="14" on="0"/>
        <pt x="374" y="63" on="0"/>
        <pt x="407" y="73" on="1"/>
        <pt x="401" y="91" on="0"/>
        <pt x="390" y="124" on="0"/>
        <pt x="372" y="149" on="0"/>
        <pt x="345" y="164" on="0"/>
        <pt x="323" y="164" on="1"/>
        <pt x="260" y="164" on="0"/>
        <pt x="169" y="124" on="0"/>
        <pt x="110" y="58" on="0"/>
        <pt x="82" y="-30" on="0"/>
        <pt x="82" y="-78" on="1"/>
        <pt x="82" y="-140" on="0"/>
        <pt x="127" y="-267" on="0"/>
        <pt x="211" y="-369" on="0"/>
        <pt x="331" y="-434" on="0"/>
      </contour>
      <contour>
        <pt x="1677" y="1372" on="1"/>
        <pt x="1696" y="1406" on="0"/>
        <pt x="1744" y="1488" on="0"/>
        <pt x="1801" y="1571" on="0"/>
        <pt x="1865" y="1648" on="0"/>
        <pt x="1901" y="1678" on="1"/>
        <pt x="1847" y="1679" on="0"/>
        <pt x="1741" y="1679" on="0"/>
        <pt x="1687" y="1679" on="1"/>
        <pt x="1565" y="1679" on="0"/>
        <pt x="1334" y="1676" on="0"/>
        <pt x="1131" y="1670" on="0"/>
        <pt x="961" y="1659" on="0"/>
        <pt x="839" y="1642" on="0"/>
        <pt x="771" y="1619" on="0"/>
        <pt x="771" y="1604" on="1"/>
        <pt x="771" y="1587" on="0"/>
        <pt x="869" y="1542" on="0"/>
        <pt x="1085" y="1485" on="0"/>
        <pt x="1430" y="1414" on="0"/>
      </contour>
      <contour>
        <pt x="2029" y="1677" on="1"/>
        <pt x="1783" y="1313" on="1"/>
        <pt x="1787" y="1311" on="0"/>
        <pt x="1794" y="1311" on="0"/>
        <pt x="1797" y="1311" on="1"/>
        <pt x="1832" y="1311" on="0"/>
        <pt x="1903" y="1344" on="0"/>
        <pt x="1968" y="1397" on="0"/>
        <pt x="2024" y="1466" on="0"/>
        <pt x="2066" y="1538" on="0"/>
        <pt x="2090" y="1608" on="0"/>
        <pt x="2090" y="1636" on="1"/>
        <pt x="2090" y="1665" on="0"/>
        <pt x="2074" y="1677" on="1"/>
      </contour>
    </TTGlyph>
    <TTGlyph name="Jcircumflex" xMin="0" yMin="-524" xMax="4082" yMax="2339">
      <component glyphName="J" x="0" y="0" flags="0x204"/>
      <component glyphName="circumflex" x="741" y="1759" flags="0x4"/>
    </TTGlyph>
    <TTGlyph name="K" xMin="75" yMin="-284" xMax="3063" yMax="2451">
      <contour>
        <pt x="2495" y="411" on="1"/>
        <pt x="2507" y="417" on="0"/>
        <pt x="2517" y="417" on="1"/>
        <pt x="2528" y="417" on="0"/>
        <pt x="2540" y="402" on="0"/>
        <pt x="2540" y="391" on="1"/>
        <pt x="2540" y="377" on="0"/>
        <pt x="2518" y="342" on="0"/>
        <pt x="2495" y="328" on="1"/>
        <pt x="2267" y="173" on="1"/>
        <pt x="2176" y="113" on="0"/>
        <pt x="2028" y="35" on="0"/>
        <pt x="1907" y="-12" on="0"/>
        <pt x="1808" y="-30" on="0"/>
        <pt x="1766" y="-30" on="1"/>
        <pt x="1710" y="-30" on="0"/>
        <pt x="1629" y="17" on="0"/>
        <pt x="1577" y="100" on="0"/>
        <pt x="1553" y="215" on="0"/>
        <pt x="1553" y="283" on="1"/>
        <pt x="1553" y="401" on="0"/>
        <pt x="1618" y="671" on="0"/>
        <pt x="1675" y="808" on="1"/>
        <pt x="1678" y="815" on="0"/>
        <pt x="1678" y="825" on="1"/>
        <pt x="1678" y="838" on="0"/>
        <pt x="1670" y="870" on="0"/>
        <pt x="1661" y="901" on="0"/>
        <pt x="1653" y="930" on="0"/>
        <pt x="1653" y="939" on="1"/>
        <pt x="1653" y="957" on="0"/>
        <pt x="1681" y="992" on="0"/>
        <pt x="1720" y="1020" on="0"/>
        <pt x="1764" y="1037" on="0"/>
        <pt x="1779" y="1037" on="1"/>
        <pt x="1796" y="1037" on="0"/>
        <pt x="1838" y="1016" on="0"/>
        <pt x="1856" y="996" on="1"/>
        <pt x="1881" y="967" on="0"/>
        <pt x="1932" y="937" on="0"/>
        <pt x="1983" y="924" on="0"/>
        <pt x="2035" y="923" on="0"/>
        <pt x="2061" y="923" on="1"/>
        <pt x="2101" y="923" on="0"/>
        <pt x="2185" y="966" on="0"/>
        <pt x="2263" y="1039" on="0"/>
        <pt x="2331" y="1135" on="0"/>
        <pt x="2382" y="1240" on="0"/>
        <pt x="2412" y="1348" on="0"/>
        <pt x="2412" y="1397" on="1"/>
        <pt x="2412" y="1487" on="0"/>
        <pt x="2344" y="1565" on="0"/>
        <pt x="2286" y="1565" on="1"/>
        <pt x="2240" y="1565" on="0"/>
        <pt x="2122" y="1522" on="0"/>
        <pt x="1988" y="1448" on="0"/>
        <pt x="1843" y="1347" on="0"/>
        <pt x="1695" y="1232" on="0"/>
        <pt x="1550" y="1107" on="0"/>
        <pt x="1416" y="985" on="0"/>
        <pt x="1299" y="870" on="0"/>
        <pt x="1208" y="774" on="0"/>
        <pt x="1147" y="702" on="0"/>
        <pt x="1136" y="684" on="1"/>
        <pt x="1095" y="616" on="0"/>
        <pt x="998" y="461" on="0"/>
        <pt x="897" y="303" on="0"/>
        <pt x="798" y="150" on="0"/>
        <pt x="710" y="16" on="0"/>
        <pt x="640" y="-92" on="0"/>
        <pt x="619" y="-125" on="1"/>
        <pt x="605" y="-143" on="0"/>
        <pt x="579" y="-185" on="0"/>
        <pt x="554" y="-223" on="0"/>
        <pt x="531" y="-253" on="0"/>
        <pt x="522" y="-260" on="1"/>
        <pt x="472" y="-284" on="0"/>
        <pt x="425" y="-284" on="1"/>
        <pt x="377" y="-284" on="0"/>
        <pt x="313" y="-239" on="0"/>
        <pt x="313" y="-201" on="1"/>
        <pt x="313" y="-197" on="0"/>
        <pt x="341" y="-172" on="0"/>
        <pt x="381" y="-136" on="0"/>
        <pt x="426" y="-92" on="0"/>
        <pt x="443" y="-68" on="1"/>
        <pt x="497" y="4" on="0"/>
        <pt x="627" y="192" on="0"/>
        <pt x="771" y="406" on="0"/>
        <pt x="924" y="641" on="0"/>
        <pt x="1076" y="881" on="0"/>
        <pt x="1222" y="1118" on="0"/>
        <pt x="1352" y="1339" on="0"/>
        <pt x="1462" y="1536" on="0"/>
        <pt x="1542" y="1694" on="0"/>
        <pt x="1587" y="1805" on="0"/>
        <pt x="1587" y="1830" on="1"/>
        <pt x="1587" y="1848" on="0"/>
        <pt x="1574" y="1848" on="1"/>
        <pt x="1569" y="1848" on="0"/>
        <pt x="1496" y="1766" on="0"/>
        <pt x="1375" y="1631" on="0"/>
        <pt x="1215" y="1459" on="0"/>
        <pt x="1030" y="1279" on="0"/>
        <pt x="826" y="1107" on="0"/>
        <pt x="620" y="972" on="0"/>
        <pt x="418" y="890" on="0"/>
        <pt x="326" y="890" on="1"/>
        <pt x="281" y="890" on="0"/>
        <pt x="191" y="928" on="0"/>
        <pt x="119" y="1003" on="0"/>
        <pt x="75" y="1113" on="0"/>
        <pt x="75" y="1185" on="1"/>
        <pt x="75" y="1264" on="0"/>
        <pt x="175" y="1434" on="0"/>
        <pt x="356" y="1606" on="0"/>
        <pt x="609" y="1778" on="0"/>
        <pt x="916" y="1941" on="0"/>
        <pt x="1268" y="2092" on="0"/>
        <pt x="1646" y="2223" on="0"/>
        <pt x="2041" y="2332" on="0"/>
        <pt x="2434" y="2409" on="0"/>
        <pt x="2817" y="2451" on="0"/>
        <pt x="2994" y="2451" on="1"/>
        <pt x="3029" y="2451" on="0"/>
        <pt x="3063" y="2422" on="0"/>
        <pt x="3063" y="2405" on="1"/>
        <pt x="3063" y="2386" on="0"/>
        <pt x="3028" y="2356" on="0"/>
        <pt x="2994" y="2356" on="1"/>
        <pt x="2776" y="2356" on="0"/>
        <pt x="2306" y="2286" on="0"/>
        <pt x="1834" y="2165" on="0"/>
        <pt x="1377" y="2003" on="0"/>
        <pt x="966" y="1817" on="0"/>
        <pt x="618" y="1618" on="0"/>
        <pt x="364" y="1424" on="0"/>
        <pt x="221" y="1244" on="0"/>
        <pt x="221" y="1171" on="1"/>
        <pt x="221" y="1131" on="0"/>
        <pt x="243" y="1074" on="0"/>
        <pt x="279" y="1038" on="0"/>
        <pt x="325" y="1021" on="0"/>
        <pt x="349" y="1021" on="1"/>
        <pt x="400" y="1021" on="0"/>
        <pt x="533" y="1078" on="0"/>
        <pt x="685" y="1175" on="0"/>
        <pt x="850" y="1304" on="0"/>
        <pt x="1019" y="1450" on="0"/>
        <pt x="1185" y="1603" on="0"/>
        <pt x="1339" y="1749" on="0"/>
        <pt x="1473" y="1878" on="0"/>
        <pt x="1579" y="1975" on="0"/>
        <pt x="1649" y="2032" on="0"/>
        <pt x="1662" y="2032" on="1"/>
        <pt x="1682" y="2037" on="1"/>
        <pt x="1691" y="2039" on="0"/>
        <pt x="1714" y="2043" on="0"/>
        <pt x="1726" y="2043" on="1"/>
        <pt x="1745" y="2043" on="0"/>
        <pt x="1774" y="2028" on="0"/>
        <pt x="1774" y="2007" on="1"/>
        <pt x="1774" y="1914" on="0"/>
        <pt x="1698" y="1696" on="0"/>
        <pt x="1560" y="1432" on="0"/>
        <pt x="1370" y="1115" on="0"/>
        <pt x="1256" y="922" on="1"/>
        <pt x="1326" y="998" on="0"/>
        <pt x="1505" y="1180" on="0"/>
        <pt x="1703" y="1363" on="0"/>
        <pt x="1912" y="1535" on="0"/>
        <pt x="2112" y="1668" on="0"/>
        <pt x="2296" y="1748" on="0"/>
        <pt x="2370" y="1748" on="1"/>
        <pt x="2444" y="1748" on="0"/>
        <pt x="2549" y="1713" on="0"/>
        <pt x="2615" y="1652" on="0"/>
        <pt x="2646" y="1567" on="0"/>
        <pt x="2646" y="1518" on="1"/>
        <pt x="2646" y="1449" on="0"/>
        <pt x="2592" y="1291" on="0"/>
        <pt x="2499" y="1134" on="0"/>
        <pt x="2372" y="990" on="0"/>
        <pt x="2226" y="880" on="0"/>
        <pt x="2068" y="814" on="0"/>
        <pt x="1990" y="814" on="1"/>
        <pt x="1971" y="814" on="0"/>
        <pt x="1927" y="821" on="0"/>
        <pt x="1907" y="827" on="1"/>
        <pt x="1860" y="841" on="1"/>
        <pt x="1829" y="783" on="0"/>
        <pt x="1779" y="661" on="0"/>
        <pt x="1744" y="540" on="0"/>
        <pt x="1725" y="425" on="0"/>
        <pt x="1725" y="374" on="1"/>
        <pt x="1725" y="324" on="0"/>
        <pt x="1744" y="243" on="0"/>
        <pt x="1784" y="184" on="0"/>
        <pt x="1846" y="152" on="0"/>
        <pt x="1889" y="152" on="1"/>
        <pt x="1974" y="152" on="0"/>
        <pt x="2126" y="197" on="0"/>
        <pt x="2259" y="263" on="0"/>
        <pt x="2375" y="338" on="0"/>
        <pt x="2425" y="368" on="1"/>
      </contour>
    </TTGlyph>
    <TTGlyph name="Kcommaaccent" xMin="75" yMin="-656" xMax="3063" yMax="2451">
      <component glyphName="K" x="0" y="0" flags="0x204"/>
      <component glyphName="comma" x="815" y="-429" flags="0x4"/>
    </TTGlyph>
    <TTGlyph name="Kcommaaccent.001" xMin="75" yMin="-998" xMax="3063" yMax="2451">
      <component glyphName="comma" x="692" y="-771" flags="0x4"/>
      <component glyphName="K" x="0" y="0" flags="0x4"/>
    </TTGlyph>
    <TTGlyph name="L" xMin="0" yMin="-490" xMax="2831" yMax="1866">
      <contour>
        <pt x="1328" y="1169" on="1"/>
        <pt x="1352" y="1160" on="0"/>
        <pt x="1407" y="1146" on="0"/>
        <pt x="1462" y="1137" on="0"/>
        <pt x="1515" y="1130" on="0"/>
        <pt x="1536" y="1129" on="1"/>
        <pt x="1574" y="1245" on="0"/>
        <pt x="1688" y="1445" on="0"/>
        <pt x="1823" y="1609" on="0"/>
        <pt x="1972" y="1735" on="0"/>
        <pt x="2119" y="1822" on="0"/>
        <pt x="2256" y="1866" on="0"/>
        <pt x="2313" y="1866" on="1"/>
        <pt x="2386" y="1866" on="0"/>
        <pt x="2475" y="1790" on="0"/>
        <pt x="2475" y="1710" on="1"/>
        <pt x="2475" y="1663" on="0"/>
        <pt x="2422" y="1547" on="0"/>
        <pt x="2324" y="1424" on="0"/>
        <pt x="2184" y="1300" on="0"/>
        <pt x="2009" y="1189" on="0"/>
        <pt x="1802" y="1098" on="0"/>
        <pt x="1687" y="1070" on="1"/>
        <pt x="1642" y="948" on="0"/>
        <pt x="1546" y="695" on="0"/>
        <pt x="1438" y="444" on="0"/>
        <pt x="1313" y="204" on="0"/>
        <pt x="1237" y="95" on="1"/>
        <pt x="1326" y="16" on="0"/>
        <pt x="1501" y="-137" on="0"/>
        <pt x="1683" y="-257" on="0"/>
        <pt x="1877" y="-330" on="0"/>
        <pt x="1985" y="-330" on="1"/>
        <pt x="2103" y="-330" on="0"/>
        <pt x="2371" y="-226" on="0"/>
        <pt x="2528" y="-104" on="1"/>
        <pt x="2634" y="-34" on="0"/>
        <pt x="2774" y="32" on="0"/>
        <pt x="2806" y="32" on="1"/>
        <pt x="2831" y="32" on="0"/>
        <pt x="2831" y="13" on="1"/>
        <pt x="2831" y="-14" on="0"/>
        <pt x="2716" y="-141" on="0"/>
        <pt x="2592" y="-238" on="1"/>
        <pt x="2508" y="-306" on="0"/>
        <pt x="2355" y="-402" on="0"/>
        <pt x="2212" y="-462" on="0"/>
        <pt x="2080" y="-490" on="0"/>
        <pt x="2019" y="-490" on="1"/>
        <pt x="1898" y="-490" on="0"/>
        <pt x="1682" y="-397" on="0"/>
        <pt x="1480" y="-249" on="0"/>
        <pt x="1283" y="-65" on="0"/>
        <pt x="1181" y="27" on="1"/>
        <pt x="1115" y="-51" on="0"/>
        <pt x="965" y="-180" on="0"/>
        <pt x="794" y="-273" on="0"/>
        <pt x="601" y="-324" on="0"/>
        <pt x="492" y="-324" on="1"/>
        <pt x="366" y="-324" on="0"/>
        <pt x="180" y="-252" on="0"/>
        <pt x="59" y="-134" on="0"/>
        <pt x="0" y="17" on="0"/>
        <pt x="0" y="95" on="1"/>
        <pt x="0" y="172" on="0"/>
        <pt x="56" y="320" on="0"/>
        <pt x="164" y="435" on="0"/>
        <pt x="324" y="505" on="0"/>
        <pt x="428" y="505" on="1"/>
        <pt x="530" y="505" on="0"/>
        <pt x="712" y="457" on="0"/>
        <pt x="880" y="376" on="0"/>
        <pt x="1034" y="268" on="0"/>
        <pt x="1107" y="208" on="1"/>
        <pt x="1165" y="307" on="0"/>
        <pt x="1272" y="522" on="0"/>
        <pt x="1373" y="744" on="0"/>
        <pt x="1470" y="968" on="0"/>
        <pt x="1518" y="1076" on="1"/>
        <pt x="1497" y="1076" on="0"/>
        <pt x="1445" y="1079" on="0"/>
        <pt x="1389" y="1083" on="0"/>
        <pt x="1334" y="1090" on="0"/>
        <pt x="1310" y="1095" on="1"/>
        <pt x="1265" y="1103" on="0"/>
        <pt x="1170" y="1110" on="0"/>
        <pt x="1086" y="1131" on="0"/>
        <pt x="1019" y="1176" on="0"/>
        <pt x="1001" y="1221" on="1"/>
        <pt x="993" y="1240" on="0"/>
        <pt x="993" y="1258" on="1"/>
        <pt x="993" y="1272" on="0"/>
        <pt x="1005" y="1300" on="0"/>
        <pt x="1028" y="1323" on="0"/>
        <pt x="1059" y="1337" on="0"/>
        <pt x="1078" y="1337" on="1"/>
        <pt x="1109" y="1337" on="0"/>
        <pt x="1179" y="1299" on="0"/>
        <pt x="1247" y="1245" on="0"/>
        <pt x="1307" y="1188" on="0"/>
      </contour>
      <contour>
        <pt x="481" y="-248" on="1"/>
        <pt x="577" y="-248" on="0"/>
        <pt x="741" y="-192" on="0"/>
        <pt x="883" y="-92" on="0"/>
        <pt x="1005" y="47" on="0"/>
        <pt x="1059" y="130" on="1"/>
        <pt x="989" y="185" on="0"/>
        <pt x="840" y="281" on="0"/>
        <pt x="678" y="353" on="0"/>
        <pt x="501" y="394" on="0"/>
        <pt x="402" y="394" on="1"/>
        <pt x="343" y="394" on="0"/>
        <pt x="254" y="344" on="0"/>
        <pt x="194" y="262" on="0"/>
        <pt x="163" y="156" on="0"/>
        <pt x="163" y="99" on="1"/>
        <pt x="163" y="36" on="0"/>
        <pt x="202" y="-89" on="0"/>
        <pt x="280" y="-187" on="0"/>
        <pt x="400" y="-248" on="0"/>
      </contour>
      <contour>
        <pt x="1708" y="1146" on="1"/>
        <pt x="1805" y="1179" on="0"/>
        <pt x="1980" y="1278" on="0"/>
        <pt x="2129" y="1392" on="0"/>
        <pt x="2249" y="1514" on="0"/>
        <pt x="2334" y="1628" on="0"/>
        <pt x="2379" y="1725" on="0"/>
        <pt x="2379" y="1757" on="1"/>
        <pt x="2379" y="1802" on="0"/>
        <pt x="2333" y="1802" on="1"/>
        <pt x="2300" y="1802" on="0"/>
        <pt x="2196" y="1754" on="0"/>
        <pt x="2075" y="1666" on="0"/>
        <pt x="1946" y="1545" on="0"/>
        <pt x="1830" y="1399" on="0"/>
        <pt x="1735" y="1234" on="0"/>
      </contour>
    </TTGlyph>
    <TTGlyph name="Lacute" xMin="0" yMin="-490" xMax="2831" yMax="2437">
      <component glyphName="L" x="0" y="0" flags="0x4"/>
      <component glyphName="acute" x="1046" y="1636" flags="0x4"/>
    </TTGlyph>
    <TTGlyph name="Lcaron" xMin="0" yMin="-490" xMax="2831" yMax="1866">
      <component glyphName="L" x="0" y="0" flags="0x4"/>
      <component glyphName="quoteright" x="1645" y="-242" flags="0x4"/>
    </TTGlyph>
    <TTGlyph name="Lcommaaccent" xMin="0" yMin="-872" xMax="2831" yMax="1866">
      <component glyphName="L" x="0" y="0" flags="0x204"/>
      <component glyphName="comma" x="890" y="-645" flags="0x4"/>
    </TTGlyph>
    <TTGlyph name="Lcommaaccent.001" xMin="0" yMin="-1204" xMax="2831" yMax="1866">
      <component glyphName="comma" x="1246" y="-977" flags="0x4"/>
      <component glyphName="L" x="0" y="0" flags="0x4"/>
    </TTGlyph>
    <TTGlyph name="Ldot" xMin="0" yMin="-490" xMax="2831" yMax="1866">
      <component glyphName="L" x="0" y="0" flags="0x4"/>
      <component glyphName="period" x="1529" y="516" flags="0x4"/>
    </TTGlyph>
    <TTGlyph name="Lslash" xMin="133" yMin="-490" xMax="2964" yMax="1841">
      <contour>
        <pt x="905" y="479" on="1"/>
        <pt x="888" y="485" on="0"/>
        <pt x="861" y="517" on="0"/>
        <pt x="861" y="535" on="1"/>
        <pt x="861" y="546" on="0"/>
        <pt x="902" y="572" on="0"/>
        <pt x="970" y="599" on="0"/>
        <pt x="1055" y="626" on="0"/>
        <pt x="1100" y="639" on="1"/>
        <pt x="1149" y="653" on="0"/>
        <pt x="1295" y="691" on="0"/>
        <pt x="1468" y="734" on="0"/>
        <pt x="1656" y="780" on="0"/>
        <pt x="1838" y="824" on="0"/>
        <pt x="2003" y="863" on="0"/>
        <pt x="2131" y="892" on="0"/>
        <pt x="2210" y="909" on="0"/>
        <pt x="2215" y="908" on="1"/>
        <pt x="2238" y="908" on="0"/>
        <pt x="2275" y="888" on="0"/>
        <pt x="2275" y="874" on="1"/>
        <pt x="2275" y="866" on="0"/>
        <pt x="2268" y="858" on="1"/>
        <pt x="2257" y="847" on="0"/>
        <pt x="2169" y="810" on="0"/>
        <pt x="2036" y="765" on="0"/>
        <pt x="1871" y="712" on="0"/>
        <pt x="1696" y="660" on="0"/>
        <pt x="1522" y="610" on="0"/>
        <pt x="1371" y="568" on="0"/>
        <pt x="1256" y="537" on="0"/>
        <pt x="1228" y="530" on="1"/>
        <pt x="1214" y="527" on="0"/>
        <pt x="1146" y="509" on="0"/>
        <pt x="1061" y="489" on="0"/>
        <pt x="973" y="474" on="0"/>
        <pt x="941" y="474" on="1"/>
        <pt x="917" y="474" on="0"/>
      </contour>
      <contour>
        <pt x="1491" y="1169" on="1"/>
        <pt x="1539" y="1151" on="0"/>
        <pt x="1626" y="1132" on="0"/>
        <pt x="1669" y="1129" on="1"/>
        <pt x="1709" y="1225" on="0"/>
        <pt x="1791" y="1405" on="0"/>
        <pt x="1879" y="1563" on="0"/>
        <pt x="1976" y="1695" on="0"/>
        <pt x="2086" y="1789" on="0"/>
        <pt x="2212" y="1841" on="0"/>
        <pt x="2285" y="1841" on="1"/>
        <pt x="2351" y="1841" on="0"/>
        <pt x="2408" y="1770" on="0"/>
        <pt x="2408" y="1710" on="1"/>
        <pt x="2408" y="1665" on="0"/>
        <pt x="2375" y="1557" on="0"/>
        <pt x="2313" y="1443" on="0"/>
        <pt x="2223" y="1329" on="0"/>
        <pt x="2109" y="1226" on="0"/>
        <pt x="1972" y="1142" on="0"/>
        <pt x="1894" y="1115" on="1"/>
        <pt x="1843" y="990" on="0"/>
        <pt x="1730" y="724" on="0"/>
        <pt x="1602" y="460" on="0"/>
        <pt x="1455" y="207" on="0"/>
        <pt x="1370" y="95" on="1"/>
        <pt x="1459" y="16" on="0"/>
        <pt x="1634" y="-137" on="0"/>
        <pt x="1816" y="-257" on="0"/>
        <pt x="2010" y="-330" on="0"/>
        <pt x="2118" y="-330" on="1"/>
        <pt x="2236" y="-330" on="0"/>
        <pt x="2504" y="-226" on="0"/>
        <pt x="2661" y="-104" on="1"/>
        <pt x="2767" y="-34" on="0"/>
        <pt x="2907" y="32" on="0"/>
        <pt x="2939" y="32" on="1"/>
        <pt x="2964" y="32" on="0"/>
        <pt x="2964" y="13" on="1"/>
        <pt x="2964" y="-14" on="0"/>
        <pt x="2849" y="-141" on="0"/>
        <pt x="2725" y="-238" on="1"/>
        <pt x="2641" y="-306" on="0"/>
        <pt x="2488" y="-402" on="0"/>
        <pt x="2345" y="-462" on="0"/>
        <pt x="2213" y="-490" on="0"/>
        <pt x="2152" y="-490" on="1"/>
        <pt x="2071" y="-490" on="0"/>
        <pt x="1922" y="-447" on="0"/>
        <pt x="1781" y="-373" on="0"/>
        <pt x="1646" y="-273" on="0"/>
        <pt x="1514" y="-158" on="0"/>
        <pt x="1382" y="-34" on="0"/>
        <pt x="1314" y="27" on="1"/>
        <pt x="1248" y="-51" on="0"/>
        <pt x="1098" y="-180" on="0"/>
        <pt x="927" y="-273" on="0"/>
        <pt x="734" y="-324" on="0"/>
        <pt x="625" y="-324" on="1"/>
        <pt x="499" y="-324" on="0"/>
        <pt x="313" y="-252" on="0"/>
        <pt x="192" y="-134" on="0"/>
        <pt x="133" y="17" on="0"/>
        <pt x="133" y="95" on="1"/>
        <pt x="133" y="172" on="0"/>
        <pt x="189" y="320" on="0"/>
        <pt x="297" y="435" on="0"/>
        <pt x="457" y="505" on="0"/>
        <pt x="561" y="505" on="1"/>
        <pt x="663" y="505" on="0"/>
        <pt x="845" y="457" on="0"/>
        <pt x="1013" y="376" on="0"/>
        <pt x="1167" y="268" on="0"/>
        <pt x="1240" y="208" on="1"/>
        <pt x="1298" y="307" on="0"/>
        <pt x="1404" y="522" on="0"/>
        <pt x="1503" y="744" on="0"/>
        <pt x="1599" y="968" on="0"/>
        <pt x="1647" y="1076" on="1"/>
        <pt x="1605" y="1076" on="0"/>
        <pt x="1521" y="1086" on="0"/>
        <pt x="1473" y="1095" on="1"/>
        <pt x="1428" y="1103" on="0"/>
        <pt x="1334" y="1111" on="0"/>
        <pt x="1249" y="1132" on="0"/>
        <pt x="1182" y="1176" on="0"/>
        <pt x="1164" y="1221" on="1"/>
        <pt x="1156" y="1242" on="0"/>
        <pt x="1156" y="1258" on="1"/>
        <pt x="1156" y="1272" on="0"/>
        <pt x="1168" y="1300" on="0"/>
        <pt x="1191" y="1323" on="0"/>
        <pt x="1222" y="1337" on="0"/>
        <pt x="1241" y="1337" on="1"/>
        <pt x="1272" y="1337" on="0"/>
        <pt x="1342" y="1299" on="0"/>
        <pt x="1410" y="1245" on="0"/>
        <pt x="1470" y="1188" on="0"/>
      </contour>
      <contour>
        <pt x="614" y="-248" on="1"/>
        <pt x="710" y="-248" on="0"/>
        <pt x="874" y="-192" on="0"/>
        <pt x="1016" y="-92" on="0"/>
        <pt x="1138" y="47" on="0"/>
        <pt x="1192" y="130" on="1"/>
        <pt x="1122" y="185" on="0"/>
        <pt x="973" y="281" on="0"/>
        <pt x="811" y="353" on="0"/>
        <pt x="634" y="394" on="0"/>
        <pt x="535" y="394" on="1"/>
        <pt x="476" y="394" on="0"/>
        <pt x="387" y="344" on="0"/>
        <pt x="327" y="262" on="0"/>
        <pt x="296" y="156" on="0"/>
        <pt x="296" y="99" on="1"/>
        <pt x="296" y="36" on="0"/>
        <pt x="335" y="-89" on="0"/>
        <pt x="413" y="-187" on="0"/>
        <pt x="533" y="-248" on="0"/>
      </contour>
      <contour>
        <pt x="2281" y="1808" on="1"/>
        <pt x="2233" y="1808" on="0"/>
        <pt x="2146" y="1710" on="0"/>
        <pt x="2059" y="1541" on="0"/>
        <pt x="1970" y="1313" on="0"/>
        <pt x="1921" y="1184" on="1"/>
        <pt x="1981" y="1216" on="0"/>
        <pt x="2085" y="1309" on="0"/>
        <pt x="2172" y="1416" on="0"/>
        <pt x="2240" y="1529" on="0"/>
        <pt x="2287" y="1635" on="0"/>
        <pt x="2312" y="1726" on="0"/>
        <pt x="2312" y="1757" on="1"/>
        <pt x="2312" y="1781" on="0"/>
        <pt x="2297" y="1808" on="0"/>
      </contour>
    </TTGlyph>
    <TTGlyph name="M" xMin="-110" yMin="-382" xMax="3298" yMax="1995">
      <contour>
        <pt x="3253" y="411" on="1"/>
        <pt x="3265" y="417" on="0"/>
        <pt x="3275" y="417" on="1"/>
        <pt x="3286" y="417" on="0"/>
        <pt x="3298" y="402" on="0"/>
        <pt x="3298" y="391" on="1"/>
        <pt x="3298" y="377" on="0"/>
        <pt x="3276" y="342" on="0"/>
        <pt x="3253" y="328" on="1"/>
        <pt x="3104" y="241" on="1"/>
        <pt x="3032" y="199" on="0"/>
        <pt x="2842" y="86" on="0"/>
        <pt x="2727" y="17" on="1"/>
        <pt x="2621" y="-46" on="0"/>
        <pt x="2478" y="-97" on="0"/>
        <pt x="2430" y="-97" on="1"/>
        <pt x="2398" y="-97" on="0"/>
        <pt x="2356" y="-78" on="0"/>
        <pt x="2329" y="-47" on="0"/>
        <pt x="2318" y="-7" on="0"/>
        <pt x="2318" y="14" on="1"/>
        <pt x="2318" y="70" on="0"/>
        <pt x="2341" y="242" on="0"/>
        <pt x="2380" y="451" on="0"/>
        <pt x="2431" y="683" on="0"/>
        <pt x="2487" y="916" on="0"/>
        <pt x="2543" y="1138" on="0"/>
        <pt x="2592" y="1326" on="0"/>
        <pt x="2631" y="1467" on="0"/>
        <pt x="2641" y="1502" on="1"/>
        <pt x="1688" y="46" on="1"/>
        <pt x="1688" y="45" on="0"/>
        <pt x="1668" y="15" on="0"/>
        <pt x="1634" y="-21" on="0"/>
        <pt x="1587" y="-50" on="0"/>
        <pt x="1559" y="-50" on="1"/>
        <pt x="1533" y="-50" on="0"/>
        <pt x="1518" y="-20" on="0"/>
        <pt x="1518" y="-5" on="1"/>
        <pt x="1518" y="1" on="0"/>
        <pt x="1519" y="14" on="0"/>
        <pt x="1521" y="16" on="1"/>
        <pt x="1623" y="1087" on="1"/>
        <pt x="1582" y="1016" on="0"/>
        <pt x="1461" y="817" on="0"/>
        <pt x="1310" y="588" on="0"/>
        <pt x="1133" y="339" on="0"/>
        <pt x="1036" y="218" on="1"/>
        <pt x="1063" y="156" on="0"/>
        <pt x="1063" y="85" on="1"/>
        <pt x="1063" y="30" on="0"/>
        <pt x="1032" y="-82" on="0"/>
        <pt x="973" y="-186" on="0"/>
        <pt x="888" y="-277" on="0"/>
        <pt x="781" y="-344" on="0"/>
        <pt x="653" y="-382" on="0"/>
        <pt x="580" y="-382" on="1"/>
        <pt x="577" y="-382" on="0"/>
        <pt x="568" y="-374" on="0"/>
        <pt x="561" y="-362" on="0"/>
        <pt x="555" y="-348" on="0"/>
        <pt x="555" y="-343" on="1"/>
        <pt x="555" y="-341" on="0"/>
        <pt x="560" y="-335" on="0"/>
        <pt x="564" y="-335" on="1"/>
        <pt x="648" y="-335" on="0"/>
        <pt x="797" y="-260" on="0"/>
        <pt x="908" y="-143" on="0"/>
        <pt x="973" y="0" on="0"/>
        <pt x="973" y="69" on="1"/>
        <pt x="973" y="105" on="0"/>
        <pt x="964" y="138" on="1"/>
        <pt x="875" y="43" on="0"/>
        <pt x="687" y="-125" on="0"/>
        <pt x="496" y="-250" on="0"/>
        <pt x="304" y="-323" on="0"/>
        <pt x="211" y="-323" on="1"/>
        <pt x="138" y="-323" on="0"/>
        <pt x="20" y="-296" on="0"/>
        <pt x="-64" y="-239" on="0"/>
        <pt x="-110" y="-149" on="0"/>
        <pt x="-110" y="-87" on="1"/>
        <pt x="-110" y="-5" on="0"/>
        <pt x="-39" y="133" on="0"/>
        <pt x="78" y="245" on="0"/>
        <pt x="232" y="331" on="0"/>
        <pt x="399" y="388" on="0"/>
        <pt x="566" y="417" on="0"/>
        <pt x="639" y="417" on="1"/>
        <pt x="745" y="417" on="0"/>
        <pt x="898" y="370" on="0"/>
        <pt x="950" y="328" on="1"/>
        <pt x="1073" y="479" on="0"/>
        <pt x="1302" y="813" on="0"/>
        <pt x="1490" y="1151" on="0"/>
        <pt x="1624" y="1478" on="0"/>
        <pt x="1652" y="1622" on="1"/>
        <pt x="1652" y="1624" on="0"/>
        <pt x="1666" y="1681" on="0"/>
        <pt x="1694" y="1764" on="0"/>
        <pt x="1733" y="1860" on="0"/>
        <pt x="1782" y="1941" on="0"/>
        <pt x="1841" y="1995" on="0"/>
        <pt x="1875" y="1995" on="1"/>
        <pt x="1903" y="1995" on="0"/>
        <pt x="1937" y="1970" on="0"/>
        <pt x="1956" y="1933" on="0"/>
        <pt x="1963" y="1887" on="0"/>
        <pt x="1963" y="1866" on="1"/>
        <pt x="1963" y="1854" on="0"/>
        <pt x="1962" y="1832" on="0"/>
        <pt x="1961" y="1824" on="1"/>
        <pt x="1772" y="345" on="1"/>
        <pt x="2707" y="1751" on="1"/>
        <pt x="2710" y="1776" on="0"/>
        <pt x="2725" y="1833" on="0"/>
        <pt x="2754" y="1882" on="0"/>
        <pt x="2799" y="1914" on="0"/>
        <pt x="2832" y="1914" on="1"/>
        <pt x="2866" y="1914" on="0"/>
        <pt x="2905" y="1903" on="0"/>
        <pt x="2925" y="1887" on="0"/>
        <pt x="2930" y="1866" on="0"/>
        <pt x="2930" y="1856" on="1"/>
        <pt x="2930" y="1795" on="0"/>
        <pt x="2895" y="1597" on="0"/>
        <pt x="2837" y="1352" on="0"/>
        <pt x="2763" y="1076" on="0"/>
        <pt x="2687" y="799" on="0"/>
        <pt x="2613" y="536" on="0"/>
        <pt x="2555" y="318" on="0"/>
        <pt x="2520" y="160" on="0"/>
        <pt x="2520" y="126" on="1"/>
        <pt x="2520" y="114" on="0"/>
        <pt x="2523" y="84" on="0"/>
        <pt x="2535" y="59" on="0"/>
        <pt x="2559" y="41" on="0"/>
        <pt x="2580" y="41" on="1"/>
        <pt x="2600" y="41" on="0"/>
        <pt x="2661" y="62" on="0"/>
        <pt x="2707" y="88" on="1"/>
        <pt x="2862" y="176" on="0"/>
        <pt x="3136" y="339" on="0"/>
      </contour>
      <contour>
        <pt x="226" y="-257" on="1"/>
        <pt x="279" y="-257" on="0"/>
        <pt x="426" y="-181" on="0"/>
        <pt x="598" y="-46" on="0"/>
        <pt x="788" y="141" on="0"/>
        <pt x="884" y="251" on="1"/>
        <pt x="845" y="280" on="0"/>
        <pt x="726" y="314" on="0"/>
        <pt x="645" y="314" on="1"/>
        <pt x="575" y="314" on="0"/>
        <pt x="425" y="290" on="0"/>
        <pt x="280" y="244" on="0"/>
        <pt x="150" y="177" on="0"/>
        <pt x="53" y="88" on="0"/>
        <pt x="-5" y="-21" on="0"/>
        <pt x="-5" y="-85" on="1"/>
        <pt x="-5" y="-175" on="0"/>
        <pt x="119" y="-257" on="0"/>
      </contour>
    </TTGlyph>
    <TTGlyph name="N" xMin="-202" yMin="-668" xMax="2584" yMax="1855">
      <contour>
        <pt x="2432" y="411" on="1"/>
        <pt x="2444" y="417" on="0"/>
        <pt x="2454" y="417" on="1"/>
        <pt x="2465" y="417" on="0"/>
        <pt x="2477" y="402" on="0"/>
        <pt x="2477" y="391" on="1"/>
        <pt x="2477" y="377" on="0"/>
        <pt x="2455" y="342" on="0"/>
        <pt x="2432" y="328" on="1"/>
        <pt x="2375" y="294" on="0"/>
        <pt x="2248" y="218" on="0"/>
        <pt x="2119" y="141" on="0"/>
        <pt x="1992" y="70" on="0"/>
        <pt x="1879" y="15" on="0"/>
        <pt x="1786" y="-21" on="0"/>
        <pt x="1754" y="-24" on="1"/>
        <pt x="1754" y="-28" on="0"/>
        <pt x="1704" y="-57" on="0"/>
        <pt x="1631" y="-89" on="0"/>
        <pt x="1549" y="-115" on="0"/>
        <pt x="1517" y="-115" on="1"/>
        <pt x="1492" y="-115" on="0"/>
        <pt x="1459" y="-94" on="0"/>
        <pt x="1459" y="-68" on="1"/>
        <pt x="1459" y="-66" on="0"/>
        <pt x="1461" y="-56" on="0"/>
        <pt x="1461" y="-53" on="1"/>
        <pt x="1214" y="1397" on="1"/>
        <pt x="1082" y="1060" on="0"/>
        <pt x="871" y="513" on="0"/>
        <pt x="773" y="307" on="1"/>
        <pt x="862" y="286" on="0"/>
        <pt x="991" y="218" on="0"/>
        <pt x="1075" y="131" on="0"/>
        <pt x="1115" y="25" on="0"/>
        <pt x="1115" y="-33" on="1"/>
        <pt x="1115" y="-96" on="0"/>
        <pt x="1066" y="-243" on="0"/>
        <pt x="979" y="-394" on="0"/>
        <pt x="859" y="-542" on="0"/>
        <pt x="788" y="-606" on="1"/>
        <pt x="780" y="-613" on="0"/>
        <pt x="749" y="-634" on="0"/>
        <pt x="714" y="-654" on="0"/>
        <pt x="681" y="-668" on="0"/>
        <pt x="671" y="-668" on="1"/>
        <pt x="662" y="-668" on="0"/>
        <pt x="662" y="-660" on="1"/>
        <pt x="662" y="-651" on="0"/>
        <pt x="676" y="-626" on="1"/>
        <pt x="730" y="-534" on="0"/>
        <pt x="853" y="-372" on="0"/>
        <pt x="956" y="-225" on="0"/>
        <pt x="1024" y="-91" on="0"/>
        <pt x="1024" y="-26" on="1"/>
        <pt x="1024" y="22" on="0"/>
        <pt x="992" y="107" on="0"/>
        <pt x="923" y="176" on="0"/>
        <pt x="816" y="226" on="0"/>
        <pt x="740" y="240" on="1"/>
        <pt x="699" y="109" on="0"/>
        <pt x="546" y="-83" on="0"/>
        <pt x="360" y="-210" on="0"/>
        <pt x="159" y="-272" on="0"/>
        <pt x="70" y="-272" on="1"/>
        <pt x="12" y="-272" on="0"/>
        <pt x="-87" y="-246" on="0"/>
        <pt x="-160" y="-195" on="0"/>
        <pt x="-202" y="-120" on="0"/>
        <pt x="-202" y="-70" on="1"/>
        <pt x="-202" y="-27" on="0"/>
        <pt x="-154" y="68" on="0"/>
        <pt x="-68" y="160" on="0"/>
        <pt x="52" y="242" on="0"/>
        <pt x="196" y="304" on="0"/>
        <pt x="360" y="341" on="0"/>
        <pt x="447" y="341" on="1"/>
        <pt x="489" y="341" on="0"/>
        <pt x="565" y="337" on="0"/>
        <pt x="600" y="334" on="1"/>
        <pt x="657" y="448" on="0"/>
        <pt x="771" y="700" on="0"/>
        <pt x="883" y="956" on="0"/>
        <pt x="992" y="1208" on="0"/>
        <pt x="1097" y="1437" on="0"/>
        <pt x="1197" y="1632" on="0"/>
        <pt x="1289" y="1774" on="0"/>
        <pt x="1374" y="1855" on="0"/>
        <pt x="1412" y="1855" on="1"/>
        <pt x="1434" y="1855" on="0"/>
        <pt x="1464" y="1838" on="0"/>
        <pt x="1481" y="1811" on="0"/>
        <pt x="1488" y="1775" on="0"/>
        <pt x="1488" y="1757" on="1"/>
        <pt x="1488" y="1741" on="0"/>
        <pt x="1484" y="1710" on="0"/>
        <pt x="1480" y="1685" on="0"/>
        <pt x="1476" y="1668" on="0"/>
        <pt x="1476" y="1667" on="1"/>
        <pt x="1730" y="174" on="1"/>
        <pt x="2272" y="1542" on="1"/>
        <pt x="2287" y="1578" on="0"/>
        <pt x="2330" y="1659" on="0"/>
        <pt x="2382" y="1728" on="0"/>
        <pt x="2442" y="1774" on="0"/>
        <pt x="2475" y="1774" on="1"/>
        <pt x="2509" y="1774" on="0"/>
        <pt x="2550" y="1763" on="0"/>
        <pt x="2573" y="1747" on="0"/>
        <pt x="2582" y="1726" on="0"/>
        <pt x="2584" y="1716" on="1"/>
        <pt x="1808" y="90" on="1"/>
        <pt x="1885" y="114" on="0"/>
        <pt x="2037" y="185" on="0"/>
        <pt x="2191" y="269" on="0"/>
        <pt x="2349" y="363" on="0"/>
      </contour>
      <contour>
        <pt x="561" y="256" on="1"/>
        <pt x="561" y="260" on="0"/>
        <pt x="557" y="260" on="1"/>
        <pt x="483" y="260" on="0"/>
        <pt x="331" y="228" on="0"/>
        <pt x="189" y="174" on="0"/>
        <pt x="64" y="103" on="0"/>
        <pt x="-30" y="25" on="0"/>
        <pt x="-84" y="-54" on="0"/>
        <pt x="-84" y="-89" on="1"/>
        <pt x="-84" y="-146" on="0"/>
        <pt x="-12" y="-201" on="0"/>
        <pt x="46" y="-201" on="1"/>
        <pt x="107" y="-201" on="0"/>
        <pt x="259" y="-141" on="0"/>
        <pt x="406" y="-25" on="0"/>
        <pt x="529" y="145" on="0"/>
      </contour>
    </TTGlyph>
    <TTGlyph name="Nacute" xMin="-202" yMin="-668" xMax="2584" yMax="2575">
      <component glyphName="N" x="0" y="0" flags="0x204"/>
      <component glyphName="acute" x="1065" y="1774" flags="0x4"/>
    </TTGlyph>
    <TTGlyph name="Ncaron" xMin="-202" yMin="-668" xMax="2584" yMax="2329">
      <component glyphName="N" x="0" y="0" flags="0x204"/>
      <component glyphName="caron" x="677" y="1780" flags="0x4"/>
    </TTGlyph>
    <TTGlyph name="Ncommaaccent" xMin="-202" yMin="-834" xMax="2584" yMax="1855">
      <component glyphName="comma" x="978" y="-607" flags="0x4"/>
      <component glyphName="N" x="0" y="0" flags="0x4"/>
    </TTGlyph>
    <TTGlyph name="Ncommaaccent.001" xMin="-202" yMin="-819" xMax="2584" yMax="1855">
      <component glyphName="N" x="0" y="0" flags="0x204"/>
      <component glyphName="comma" x="918" y="-592" flags="0x4"/>
    </TTGlyph>
    <TTGlyph name="Ntilde" xMin="444" yMin="-668" xMax="3230" yMax="2380">
      <component glyphName="N" x="646" y="0" flags="0x4"/>
      <component glyphName="tilde" x="2107" y="1965" flags="0x4"/>
    </TTGlyph>
    <TTGlyph name="O" xMin="-1199" yMin="-207" xMax="2592" yMax="1851">
      <contour>
        <pt x="2396" y="411" on="1"/>
        <pt x="2408" y="417" on="0"/>
        <pt x="2418" y="417" on="1"/>
        <pt x="2429" y="417" on="0"/>
        <pt x="2441" y="402" on="0"/>
        <pt x="2441" y="391" on="1"/>
        <pt x="2441" y="377" on="0"/>
        <pt x="2419" y="342" on="0"/>
        <pt x="2396" y="328" on="1"/>
        <pt x="2173" y="196" on="1"/>
        <pt x="2137" y="175" on="0"/>
        <pt x="2067" y="156" on="0"/>
        <pt x="2036" y="156" on="1"/>
        <pt x="1976" y="156" on="0"/>
        <pt x="1870" y="210" on="0"/>
        <pt x="1822" y="256" on="1"/>
        <pt x="1673" y="154" on="0"/>
        <pt x="1363" y="-16" on="0"/>
        <pt x="1072" y="-139" on="0"/>
        <pt x="816" y="-207" on="0"/>
        <pt x="722" y="-207" on="1"/>
        <pt x="605" y="-207" on="0"/>
        <pt x="424" y="-121" on="0"/>
        <pt x="301" y="31" on="0"/>
        <pt x="237" y="236" on="0"/>
        <pt x="237" y="356" on="1"/>
        <pt x="237" y="443" on="0"/>
        <pt x="292" y="655" on="0"/>
        <pt x="400" y="885" on="0"/>
        <pt x="559" y="1122" on="0"/>
        <pt x="767" y="1345" on="0"/>
        <pt x="1023" y="1544" on="0"/>
        <pt x="1173" y="1620" on="1"/>
        <pt x="1088" y="1649" on="0"/>
        <pt x="910" y="1700" on="0"/>
        <pt x="714" y="1738" on="0"/>
        <pt x="498" y="1760" on="0"/>
        <pt x="376" y="1760" on="1"/>
        <pt x="42" y="1760" on="0"/>
        <pt x="-738" y="1716" on="0"/>
        <pt x="-1185" y="1688" on="1"/>
        <pt x="-1191" y="1688" on="0"/>
        <pt x="-1196" y="1700" on="0"/>
        <pt x="-1199" y="1715" on="0"/>
        <pt x="-1199" y="1730" on="0"/>
        <pt x="-1199" y="1733" on="1"/>
        <pt x="-1199" y="1738" on="0"/>
        <pt x="-1193" y="1747" on="0"/>
        <pt x="-1182" y="1747" on="1"/>
        <pt x="-1179" y="1747" on="0"/>
        <pt x="-1078" y="1756" on="0"/>
        <pt x="-909" y="1771" on="0"/>
        <pt x="-684" y="1789" on="0"/>
        <pt x="-432" y="1809" on="0"/>
        <pt x="-166" y="1827" on="0"/>
        <pt x="86" y="1842" on="0"/>
        <pt x="311" y="1851" on="0"/>
        <pt x="397" y="1851" on="1"/>
        <pt x="508" y="1851" on="0"/>
        <pt x="727" y="1823" on="0"/>
        <pt x="945" y="1775" on="0"/>
        <pt x="1163" y="1712" on="0"/>
        <pt x="1271" y="1677" on="1"/>
        <pt x="1426" y="1744" on="0"/>
        <pt x="1765" y="1821" on="0"/>
        <pt x="1959" y="1821" on="1"/>
        <pt x="2101" y="1821" on="0"/>
        <pt x="2332" y="1770" on="0"/>
        <pt x="2495" y="1685" on="0"/>
        <pt x="2584" y="1572" on="0"/>
        <pt x="2584" y="1511" on="1"/>
        <pt x="2584" y="1487" on="0"/>
        <pt x="2570" y="1437" on="0"/>
        <pt x="2554" y="1414" on="1"/>
        <pt x="2592" y="1358" on="0"/>
        <pt x="2592" y="1284" on="1"/>
        <pt x="2592" y="1159" on="0"/>
        <pt x="2486" y="906" on="0"/>
        <pt x="2302" y="660" on="0"/>
        <pt x="2055" y="426" on="0"/>
        <pt x="1915" y="322" on="1"/>
        <pt x="1945" y="286" on="0"/>
        <pt x="2018" y="243" on="0"/>
        <pt x="2061" y="243" on="1"/>
        <pt x="2089" y="243" on="0"/>
        <pt x="2154" y="268" on="0"/>
        <pt x="2222" y="305" on="0"/>
        <pt x="2289" y="348" on="0"/>
        <pt x="2318" y="365" on="1"/>
      </contour>
      <contour>
        <pt x="745" y="-37" on="1"/>
        <pt x="826" y="-37" on="0"/>
        <pt x="1055" y="17" on="0"/>
        <pt x="1320" y="118" on="0"/>
        <pt x="1605" y="261" on="0"/>
        <pt x="1743" y="350" on="1"/>
        <pt x="1704" y="405" on="0"/>
        <pt x="1642" y="530" on="0"/>
        <pt x="1599" y="654" on="0"/>
        <pt x="1576" y="770" on="0"/>
        <pt x="1576" y="815" on="1"/>
        <pt x="1576" y="902" on="0"/>
        <pt x="1613" y="1071" on="0"/>
        <pt x="1684" y="1225" on="0"/>
        <pt x="1788" y="1358" on="0"/>
        <pt x="1856" y="1408" on="1"/>
        <pt x="1747" y="1436" on="0"/>
        <pt x="1547" y="1506" on="0"/>
        <pt x="1447" y="1544" on="1"/>
        <pt x="1291" y="1467" on="0"/>
        <pt x="1017" y="1263" on="0"/>
        <pt x="788" y="1035" on="0"/>
        <pt x="608" y="795" on="0"/>
        <pt x="483" y="570" on="0"/>
        <pt x="417" y="372" on="0"/>
        <pt x="417" y="299" on="1"/>
        <pt x="417" y="224" on="0"/>
        <pt x="456" y="101" on="0"/>
        <pt x="537" y="12" on="0"/>
        <pt x="661" y="-37" on="0"/>
      </contour>
      <contour>
        <pt x="1756" y="805" on="1"/>
        <pt x="1756" y="772" on="0"/>
        <pt x="1767" y="681" on="0"/>
        <pt x="1791" y="578" on="0"/>
        <pt x="1826" y="471" on="0"/>
        <pt x="1850" y="423" on="1"/>
        <pt x="1978" y="514" on="0"/>
        <pt x="2203" y="722" on="0"/>
        <pt x="2371" y="948" on="0"/>
        <pt x="2469" y="1190" on="0"/>
        <pt x="2469" y="1315" on="1"/>
        <pt x="2469" y="1337" on="0"/>
        <pt x="2465" y="1352" on="1"/>
        <pt x="2426" y="1341" on="0"/>
        <pt x="2385" y="1341" on="1"/>
        <pt x="2273" y="1341" on="0"/>
        <pt x="2075" y="1361" on="0"/>
        <pt x="1981" y="1379" on="1"/>
        <pt x="1924" y="1330" on="0"/>
        <pt x="1839" y="1197" on="0"/>
        <pt x="1783" y="1046" on="0"/>
        <pt x="1756" y="884" on="0"/>
      </contour>
      <contour>
        <pt x="2141" y="1712" on="1"/>
        <pt x="1978" y="1712" on="0"/>
        <pt x="1684" y="1646" on="0"/>
        <pt x="1543" y="1588" on="1"/>
        <pt x="1649" y="1554" on="0"/>
        <pt x="1851" y="1493" on="0"/>
        <pt x="1957" y="1468" on="1"/>
        <pt x="2018" y="1497" on="0"/>
        <pt x="2154" y="1528" on="0"/>
        <pt x="2232" y="1528" on="1"/>
        <pt x="2331" y="1528" on="0"/>
        <pt x="2464" y="1492" on="0"/>
        <pt x="2509" y="1460" on="1"/>
        <pt x="2526" y="1497" on="0"/>
        <pt x="2526" y="1538" on="1"/>
        <pt x="2526" y="1583" on="0"/>
        <pt x="2464" y="1648" on="0"/>
        <pt x="2359" y="1691" on="0"/>
        <pt x="2219" y="1712" on="0"/>
      </contour>
      <contour>
        <pt x="2254" y="1479" on="1"/>
        <pt x="2206" y="1479" on="0"/>
        <pt x="2119" y="1460" on="0"/>
        <pt x="2081" y="1443" on="1"/>
        <pt x="2169" y="1427" on="0"/>
        <pt x="2334" y="1409" on="0"/>
        <pt x="2422" y="1409" on="1"/>
        <pt x="2427" y="1409" on="0"/>
        <pt x="2436" y="1409" on="0"/>
        <pt x="2441" y="1410" on="1"/>
        <pt x="2418" y="1442" on="0"/>
        <pt x="2327" y="1479" on="0"/>
      </contour>
    </TTGlyph>
    <TTGlyph name="OE" xMin="-1259" yMin="-227" xMax="3718" yMax="2438">
      <contour>
        <pt x="3247" y="487" on="1"/>
        <pt x="3200" y="487" on="0"/>
        <pt x="3154" y="532" on="0"/>
        <pt x="3154" y="557" on="1"/>
        <pt x="3154" y="579" on="0"/>
        <pt x="3186" y="612" on="0"/>
        <pt x="3218" y="612" on="1"/>
        <pt x="3238" y="612" on="0"/>
        <pt x="3285" y="614" on="0"/>
        <pt x="3327" y="617" on="0"/>
        <pt x="3360" y="622" on="0"/>
        <pt x="3366" y="626" on="1"/>
        <pt x="3498" y="705" on="1"/>
        <pt x="3510" y="711" on="0"/>
        <pt x="3520" y="711" on="1"/>
        <pt x="3531" y="711" on="0"/>
        <pt x="3543" y="696" on="0"/>
        <pt x="3543" y="685" on="1"/>
        <pt x="3543" y="667" on="0"/>
        <pt x="3520" y="638" on="0"/>
        <pt x="3474" y="608" on="0"/>
        <pt x="3407" y="570" on="0"/>
        <pt x="3363" y="543" on="1"/>
        <pt x="3364" y="535" on="0"/>
        <pt x="3364" y="521" on="0"/>
        <pt x="3364" y="514" on="1"/>
        <pt x="3364" y="377" on="0"/>
        <pt x="3265" y="161" on="0"/>
        <pt x="3097" y="-4" on="0"/>
        <pt x="2876" y="-120" on="0"/>
        <pt x="2633" y="-193" on="0"/>
        <pt x="2382" y="-227" on="0"/>
        <pt x="2269" y="-227" on="1"/>
        <pt x="2144" y="-227" on="0"/>
        <pt x="1938" y="-172" on="0"/>
        <pt x="1771" y="-73" on="0"/>
        <pt x="1642" y="66" on="0"/>
        <pt x="1596" y="149" on="1"/>
        <pt x="1464" y="69" on="0"/>
        <pt x="1200" y="-62" on="0"/>
        <pt x="957" y="-156" on="0"/>
        <pt x="744" y="-207" on="0"/>
        <pt x="662" y="-207" on="1"/>
        <pt x="545" y="-207" on="0"/>
        <pt x="364" y="-121" on="0"/>
        <pt x="241" y="31" on="0"/>
        <pt x="177" y="236" on="0"/>
        <pt x="177" y="356" on="1"/>
        <pt x="177" y="443" on="0"/>
        <pt x="232" y="655" on="0"/>
        <pt x="340" y="885" on="0"/>
        <pt x="499" y="1122" on="0"/>
        <pt x="707" y="1345" on="0"/>
        <pt x="963" y="1544" on="0"/>
        <pt x="1113" y="1620" on="1"/>
        <pt x="1028" y="1649" on="0"/>
        <pt x="850" y="1700" on="0"/>
        <pt x="654" y="1738" on="0"/>
        <pt x="438" y="1760" on="0"/>
        <pt x="316" y="1760" on="1"/>
        <pt x="-18" y="1760" on="0"/>
        <pt x="-798" y="1716" on="0"/>
        <pt x="-1245" y="1688" on="1"/>
        <pt x="-1251" y="1688" on="0"/>
        <pt x="-1256" y="1700" on="0"/>
        <pt x="-1259" y="1715" on="0"/>
        <pt x="-1259" y="1730" on="0"/>
        <pt x="-1259" y="1733" on="1"/>
        <pt x="-1259" y="1738" on="0"/>
        <pt x="-1253" y="1747" on="0"/>
        <pt x="-1242" y="1747" on="1"/>
        <pt x="-1239" y="1747" on="0"/>
        <pt x="-1138" y="1756" on="0"/>
        <pt x="-969" y="1771" on="0"/>
        <pt x="-744" y="1789" on="0"/>
        <pt x="-492" y="1809" on="0"/>
        <pt x="-226" y="1827" on="0"/>
        <pt x="26" y="1842" on="0"/>
        <pt x="251" y="1851" on="0"/>
        <pt x="337" y="1851" on="1"/>
        <pt x="448" y="1851" on="0"/>
        <pt x="667" y="1823" on="0"/>
        <pt x="885" y="1775" on="0"/>
        <pt x="1103" y="1712" on="0"/>
        <pt x="1211" y="1677" on="1"/>
        <pt x="1366" y="1744" on="0"/>
        <pt x="1705" y="1821" on="0"/>
        <pt x="1899" y="1821" on="1"/>
        <pt x="2055" y="1821" on="0"/>
        <pt x="2298" y="1761" on="0"/>
        <pt x="2380" y="1712" on="1"/>
        <pt x="2388" y="1713" on="0"/>
        <pt x="2402" y="1713" on="0"/>
        <pt x="2410" y="1713" on="1"/>
        <pt x="2464" y="1713" on="0"/>
        <pt x="2560" y="1706" on="0"/>
        <pt x="2603" y="1699" on="1"/>
        <pt x="2655" y="1813" on="0"/>
        <pt x="2790" y="2016" on="0"/>
        <pt x="2949" y="2168" on="0"/>
        <pt x="3131" y="2257" on="0"/>
        <pt x="3231" y="2257" on="1"/>
        <pt x="3303" y="2257" on="0"/>
        <pt x="3391" y="2195" on="0"/>
        <pt x="3416" y="2144" on="1"/>
        <pt x="3455" y="2203" on="0"/>
        <pt x="3533" y="2307" on="0"/>
        <pt x="3597" y="2387" on="0"/>
        <pt x="3643" y="2435" on="0"/>
        <pt x="3650" y="2438" on="1"/>
        <pt x="3657" y="2430" on="0"/>
        <pt x="3678" y="2410" on="0"/>
        <pt x="3698" y="2388" on="0"/>
        <pt x="3715" y="2365" on="0"/>
        <pt x="3718" y="2355" on="1"/>
        <pt x="3703" y="2338" on="0"/>
        <pt x="3645" y="2276" on="0"/>
        <pt x="3571" y="2193" on="0"/>
        <pt x="3487" y="2095" on="0"/>
        <pt x="3447" y="2042" on="1"/>
        <pt x="3451" y="2019" on="0"/>
        <pt x="3454" y="1971" on="0"/>
        <pt x="3454" y="1947" on="1"/>
        <pt x="3454" y="1882" on="0"/>
        <pt x="3428" y="1739" on="0"/>
        <pt x="3382" y="1617" on="0"/>
        <pt x="3318" y="1538" on="0"/>
        <pt x="3280" y="1538" on="1"/>
        <pt x="3260" y="1538" on="0"/>
        <pt x="3231" y="1558" on="0"/>
        <pt x="3213" y="1592" on="0"/>
        <pt x="3204" y="1637" on="0"/>
        <pt x="3204" y="1663" on="1"/>
        <pt x="3204" y="1702" on="0"/>
        <pt x="3229" y="1796" on="0"/>
        <pt x="3272" y="1901" on="0"/>
        <pt x="3333" y="2014" on="0"/>
        <pt x="3369" y="2072" on="1"/>
        <pt x="3352" y="2114" on="0"/>
        <pt x="3281" y="2169" on="0"/>
        <pt x="3218" y="2169" on="1"/>
        <pt x="3143" y="2169" on="0"/>
        <pt x="3006" y="2085" on="0"/>
        <pt x="2885" y="1944" on="0"/>
        <pt x="2781" y="1761" on="0"/>
        <pt x="2739" y="1663" on="1"/>
        <pt x="2869" y="1611" on="0"/>
        <pt x="2998" y="1383" on="0"/>
        <pt x="2998" y="1192" on="1"/>
        <pt x="2998" y="1141" on="0"/>
        <pt x="2989" y="1032" on="0"/>
        <pt x="2981" y="971" on="1"/>
        <pt x="2943" y="701" on="0"/>
        <pt x="2779" y="435" on="0"/>
        <pt x="2667" y="435" on="1"/>
        <pt x="2613" y="435" on="0"/>
        <pt x="2527" y="507" on="0"/>
        <pt x="2467" y="638" on="0"/>
        <pt x="2435" y="822" on="0"/>
        <pt x="2435" y="935" on="1"/>
        <pt x="2435" y="1010" on="0"/>
        <pt x="2450" y="1173" on="0"/>
        <pt x="2482" y="1346" on="0"/>
        <pt x="2532" y="1524" on="0"/>
        <pt x="2568" y="1614" on="1"/>
        <pt x="2530" y="1619" on="0"/>
        <pt x="2449" y="1624" on="0"/>
        <pt x="2406" y="1624" on="1"/>
        <pt x="2306" y="1624" on="0"/>
        <pt x="2137" y="1546" on="0"/>
        <pt x="1999" y="1410" on="0"/>
        <pt x="1894" y="1225" on="0"/>
        <pt x="1822" y="1011" on="0"/>
        <pt x="1786" y="778" on="0"/>
        <pt x="1786" y="661" on="1"/>
        <pt x="1786" y="557" on="0"/>
        <pt x="1815" y="356" on="0"/>
        <pt x="1875" y="176" on="0"/>
        <pt x="1966" y="24" on="0"/>
        <pt x="2088" y="-87" on="0"/>
        <pt x="2242" y="-149" on="0"/>
        <pt x="2336" y="-149" on="1"/>
        <pt x="2415" y="-149" on="0"/>
        <pt x="2595" y="-122" on="0"/>
        <pt x="2779" y="-60" on="0"/>
        <pt x="2961" y="40" on="0"/>
        <pt x="3122" y="185" on="0"/>
        <pt x="3255" y="380" on="0"/>
        <pt x="3299" y="505" on="1"/>
        <pt x="3287" y="499" on="0"/>
        <pt x="3263" y="487" on="0"/>
      </contour>
      <contour>
        <pt x="685" y="-37" on="1"/>
        <pt x="756" y="-37" on="0"/>
        <pt x="950" y="5" on="0"/>
        <pt x="1175" y="83" on="0"/>
        <pt x="1421" y="195" on="0"/>
        <pt x="1544" y="266" on="1"/>
        <pt x="1512" y="351" on="0"/>
        <pt x="1482" y="536" on="0"/>
        <pt x="1482" y="633" on="1"/>
        <pt x="1482" y="742" on="0"/>
        <pt x="1518" y="954" on="0"/>
        <pt x="1588" y="1153" on="0"/>
        <pt x="1694" y="1336" on="0"/>
        <pt x="1763" y="1416" on="1"/>
        <pt x="1663" y="1443" on="0"/>
        <pt x="1480" y="1509" on="0"/>
        <pt x="1387" y="1544" on="1"/>
        <pt x="1231" y="1467" on="0"/>
        <pt x="957" y="1263" on="0"/>
        <pt x="728" y="1035" on="0"/>
        <pt x="548" y="795" on="0"/>
        <pt x="423" y="570" on="0"/>
        <pt x="357" y="372" on="0"/>
        <pt x="357" y="299" on="1"/>
        <pt x="357" y="224" on="0"/>
        <pt x="396" y="101" on="0"/>
        <pt x="477" y="12" on="0"/>
        <pt x="601" y="-37" on="0"/>
      </contour>
      <contour>
        <pt x="2931" y="979" on="1"/>
        <pt x="2938" y="1028" on="0"/>
        <pt x="2944" y="1117" on="0"/>
        <pt x="2944" y="1157" on="1"/>
        <pt x="2944" y="1248" on="0"/>
        <pt x="2911" y="1387" on="0"/>
        <pt x="2850" y="1489" on="0"/>
        <pt x="2761" y="1559" on="0"/>
        <pt x="2705" y="1581" on="1"/>
        <pt x="2660" y="1463" on="0"/>
        <pt x="2603" y="1244" on="0"/>
        <pt x="2592" y="1165" on="1"/>
        <pt x="2581" y="1084" on="0"/>
        <pt x="2567" y="917" on="0"/>
        <pt x="2567" y="836" on="1"/>
        <pt x="2567" y="768" on="0"/>
        <pt x="2579" y="647" on="0"/>
        <pt x="2606" y="557" on="0"/>
        <pt x="2649" y="505" on="0"/>
        <pt x="2681" y="505" on="1"/>
        <pt x="2714" y="505" on="0"/>
        <pt x="2786" y="553" on="0"/>
        <pt x="2854" y="664" on="0"/>
        <pt x="2912" y="845" on="0"/>
      </contour>
      <contour>
        <pt x="2081" y="1712" on="1"/>
        <pt x="1918" y="1712" on="0"/>
        <pt x="1624" y="1646" on="0"/>
        <pt x="1483" y="1588" on="1"/>
        <pt x="1571" y="1559" on="0"/>
        <pt x="1741" y="1508" on="0"/>
        <pt x="1829" y="1485" on="1"/>
        <pt x="1914" y="1566" on="0"/>
        <pt x="2121" y="1675" on="0"/>
        <pt x="2247" y="1698" on="1"/>
        <pt x="2209" y="1705" on="0"/>
        <pt x="2126" y="1712" on="0"/>
      </contour>
      <contour>
        <pt x="3383" y="1831" on="1"/>
        <pt x="3386" y="1854" on="0"/>
        <pt x="3391" y="1911" on="0"/>
        <pt x="3391" y="1941" on="1"/>
        <pt x="3391" y="1963" on="1"/>
        <pt x="3334" y="1881" on="0"/>
        <pt x="3265" y="1726" on="0"/>
        <pt x="3265" y="1663" on="1"/>
        <pt x="3265" y="1640" on="0"/>
        <pt x="3277" y="1610" on="0"/>
        <pt x="3291" y="1610" on="1"/>
        <pt x="3307" y="1610" on="0"/>
        <pt x="3335" y="1648" on="0"/>
        <pt x="3359" y="1710" on="0"/>
        <pt x="3377" y="1790" on="0"/>
      </contour>
    </TTGlyph>
    <TTGlyph name="Oacute" xMin="-1254" yMin="-207" xMax="2537" yMax="2715">
      <component glyphName="O" x="-55" y="0" flags="0x4"/>
      <component glyphName="acute" x="1130" y="1914" flags="0x4"/>
    </TTGlyph>
    <TTGlyph name="Obreve" xMin="0" yMin="-207" xMax="3791" yMax="2392">
      <component glyphName="O" x="1199" y="0" flags="0x4"/>
      <component glyphName="breve" x="2639" y="1906" flags="0x4"/>
    </TTGlyph>
    <TTGlyph name="Ocircumflex" xMin="-1254" yMin="-207" xMax="2537" yMax="2453">
      <component glyphName="O" x="-55" y="0" flags="0x4"/>
      <component glyphName="circumflex" x="773" y="1873" flags="0x4"/>
    </TTGlyph>
    <TTGlyph name="Odieresis" xMin="-1254" yMin="-207" xMax="2537" yMax="2281">
      <component glyphName="O" x="-55" y="0" flags="0x4"/>
      <component glyphName="dieresis" x="1466" y="1965" flags="0x4"/>
    </TTGlyph>
    <TTGlyph name="Ograve" xMin="-1254" yMin="-207" xMax="2537" yMax="2732">
      <component glyphName="O" x="-55" y="0" flags="0x4"/>
      <component glyphName="grave" x="1404" y="1931" flags="0x4"/>
    </TTGlyph>
    <TTGlyph name="Ohungarumlaut" xMin="0" yMin="-207" xMax="3885" yMax="2695">
      <component glyphName="O" x="1199" y="0" flags="0x4"/>
      <component glyphName="hungarumlaut" x="2221" y="1844" flags="0x4"/>
    </TTGlyph>
    <TTGlyph name="Omacron" xMin="0" yMin="-207" xMax="3791" yMax="2141">
      <component glyphName="O" x="1199" y="0" flags="0x4"/>
      <component glyphName="macron" x="2452" y="1994" flags="0x4"/>
    </TTGlyph>
    <TTGlyph name="Omega" xMin="274" yMin="-544" xMax="920" yMax="287">
      <contour>
        <pt x="865" y="287" on="1"/>
        <pt x="894" y="287" on="0"/>
        <pt x="920" y="258" on="0"/>
        <pt x="920" y="238" on="1"/>
        <pt x="920" y="215" on="0"/>
        <pt x="885" y="173" on="0"/>
        <pt x="856" y="173" on="1"/>
        <pt x="813" y="173" on="0"/>
        <pt x="776" y="201" on="0"/>
        <pt x="776" y="219" on="1"/>
        <pt x="776" y="231" on="0"/>
        <pt x="789" y="255" on="0"/>
        <pt x="813" y="275" on="0"/>
        <pt x="845" y="287" on="0"/>
      </contour>
      <contour>
        <pt x="344" y="-504" on="1"/>
        <pt x="344" y="-524" on="0"/>
        <pt x="323" y="-544" on="0"/>
        <pt x="309" y="-544" on="1"/>
        <pt x="296" y="-544" on="0"/>
        <pt x="274" y="-525" on="0"/>
        <pt x="274" y="-507" on="1"/>
        <pt x="274" y="-484" on="0"/>
        <pt x="299" y="-458" on="0"/>
        <pt x="313" y="-458" on="1"/>
        <pt x="325" y="-458" on="0"/>
        <pt x="344" y="-480" on="0"/>
      </contour>
    </TTGlyph>
    <TTGlyph name="Oslash" xMin="-1260" yMin="-524" xMax="2744" yMax="2216">
      <contour>
        <pt x="2335" y="411" on="1"/>
        <pt x="2347" y="417" on="0"/>
        <pt x="2357" y="417" on="1"/>
        <pt x="2368" y="417" on="0"/>
        <pt x="2380" y="402" on="0"/>
        <pt x="2380" y="391" on="1"/>
        <pt x="2380" y="377" on="0"/>
        <pt x="2358" y="342" on="0"/>
        <pt x="2335" y="328" on="1"/>
        <pt x="2112" y="196" on="1"/>
        <pt x="2076" y="175" on="0"/>
        <pt x="2006" y="156" on="0"/>
        <pt x="1975" y="156" on="1"/>
        <pt x="1915" y="156" on="0"/>
        <pt x="1809" y="210" on="0"/>
        <pt x="1761" y="256" on="1"/>
        <pt x="1612" y="154" on="0"/>
        <pt x="1302" y="-16" on="0"/>
        <pt x="1011" y="-139" on="0"/>
        <pt x="755" y="-207" on="0"/>
        <pt x="661" y="-207" on="1"/>
        <pt x="590" y="-207" on="0"/>
        <pt x="469" y="-175" on="0"/>
        <pt x="418" y="-145" on="1"/>
        <pt x="331" y="-229" on="0"/>
        <pt x="184" y="-368" on="0"/>
        <pt x="72" y="-469" on="0"/>
        <pt x="2" y="-524" on="0"/>
        <pt x="-8" y="-524" on="1"/>
        <pt x="-14" y="-524" on="0"/>
        <pt x="-14" y="-517" on="1"/>
        <pt x="-13" y="-508" on="0"/>
        <pt x="5" y="-469" on="0"/>
        <pt x="21" y="-446" on="1"/>
        <pt x="49" y="-405" on="1"/>
        <pt x="121" y="-327" on="0"/>
        <pt x="269" y="-170" on="0"/>
        <pt x="344" y="-90" on="1"/>
        <pt x="261" y="-14" on="0"/>
        <pt x="176" y="216" on="0"/>
        <pt x="176" y="356" on="1"/>
        <pt x="176" y="444" on="0"/>
        <pt x="232" y="660" on="0"/>
        <pt x="343" y="894" on="0"/>
        <pt x="505" y="1135" on="0"/>
        <pt x="718" y="1361" on="0"/>
        <pt x="979" y="1563" on="0"/>
        <pt x="1132" y="1640" on="1"/>
        <pt x="1045" y="1671" on="0"/>
        <pt x="862" y="1726" on="0"/>
        <pt x="662" y="1766" on="0"/>
        <pt x="440" y="1790" on="0"/>
        <pt x="315" y="1790" on="1"/>
        <pt x="-19" y="1790" on="0"/>
        <pt x="-799" y="1746" on="0"/>
        <pt x="-1246" y="1718" on="1"/>
        <pt x="-1257" y="1718" on="0"/>
        <pt x="-1260" y="1731" on="0"/>
        <pt x="-1260" y="1733" on="1"/>
        <pt x="-1260" y="1738" on="0"/>
        <pt x="-1254" y="1747" on="0"/>
        <pt x="-1243" y="1747" on="1"/>
        <pt x="-1240" y="1747" on="0"/>
        <pt x="-1139" y="1756" on="0"/>
        <pt x="-970" y="1771" on="0"/>
        <pt x="-745" y="1789" on="0"/>
        <pt x="-493" y="1809" on="0"/>
        <pt x="-227" y="1827" on="0"/>
        <pt x="25" y="1842" on="0"/>
        <pt x="250" y="1851" on="0"/>
        <pt x="336" y="1851" on="1"/>
        <pt x="447" y="1851" on="0"/>
        <pt x="666" y="1823" on="0"/>
        <pt x="884" y="1775" on="0"/>
        <pt x="1102" y="1712" on="0"/>
        <pt x="1210" y="1677" on="1"/>
        <pt x="1365" y="1744" on="0"/>
        <pt x="1704" y="1821" on="0"/>
        <pt x="1898" y="1821" on="1"/>
        <pt x="1975" y="1821" on="0"/>
        <pt x="2113" y="1805" on="0"/>
        <pt x="2174" y="1791" on="1"/>
        <pt x="2225" y="1838" on="0"/>
        <pt x="2336" y="1938" on="0"/>
        <pt x="2445" y="2033" on="0"/>
        <pt x="2548" y="2117" on="0"/>
        <pt x="2635" y="2179" on="0"/>
        <pt x="2700" y="2216" on="0"/>
        <pt x="2717" y="2216" on="1"/>
        <pt x="2728" y="2216" on="0"/>
        <pt x="2744" y="2198" on="0"/>
        <pt x="2744" y="2187" on="1"/>
        <pt x="2744" y="2173" on="0"/>
        <pt x="2717" y="2124" on="0"/>
        <pt x="2682" y="2079" on="1"/>
        <pt x="2668" y="2060" on="0"/>
        <pt x="2646" y="2042" on="0"/>
        <pt x="2628" y="2031" on="0"/>
        <pt x="2612" y="2025" on="0"/>
        <pt x="2603" y="2018" on="1"/>
        <pt x="2583" y="2001" on="0"/>
        <pt x="2520" y="1942" on="0"/>
        <pt x="2444" y="1869" on="0"/>
        <pt x="2360" y="1786" on="0"/>
        <pt x="2318" y="1744" on="1"/>
        <pt x="2416" y="1700" on="0"/>
        <pt x="2523" y="1579" on="0"/>
        <pt x="2523" y="1511" on="1"/>
        <pt x="2523" y="1487" on="0"/>
        <pt x="2509" y="1437" on="0"/>
        <pt x="2493" y="1414" on="1"/>
        <pt x="2531" y="1358" on="0"/>
        <pt x="2531" y="1284" on="1"/>
        <pt x="2531" y="1159" on="0"/>
        <pt x="2425" y="906" on="0"/>
        <pt x="2241" y="660" on="0"/>
        <pt x="1994" y="426" on="0"/>
        <pt x="1854" y="322" on="1"/>
        <pt x="1884" y="286" on="0"/>
        <pt x="1957" y="243" on="0"/>
        <pt x="2000" y="243" on="1"/>
        <pt x="2028" y="243" on="0"/>
        <pt x="2093" y="268" on="0"/>
        <pt x="2161" y="305" on="0"/>
        <pt x="2228" y="348" on="0"/>
        <pt x="2257" y="365" on="1"/>
      </contour>
      <contour>
        <pt x="1785" y="1410" on="1"/>
        <pt x="1679" y="1438" on="0"/>
        <pt x="1484" y="1506" on="0"/>
        <pt x="1386" y="1544" on="1"/>
        <pt x="1230" y="1467" on="0"/>
        <pt x="956" y="1263" on="0"/>
        <pt x="727" y="1035" on="0"/>
        <pt x="547" y="795" on="0"/>
        <pt x="422" y="570" on="0"/>
        <pt x="356" y="372" on="0"/>
        <pt x="356" y="299" on="1"/>
        <pt x="356" y="213" on="0"/>
        <pt x="407" y="78" on="0"/>
        <pt x="460" y="33" on="1"/>
        <pt x="630" y="213" on="0"/>
        <pt x="974" y="575" on="0"/>
        <pt x="1311" y="926" on="0"/>
        <pt x="1635" y="1259" on="0"/>
      </contour>
      <contour>
        <pt x="1695" y="805" on="1"/>
        <pt x="1695" y="772" on="0"/>
        <pt x="1706" y="681" on="0"/>
        <pt x="1730" y="578" on="0"/>
        <pt x="1765" y="471" on="0"/>
        <pt x="1789" y="423" on="1"/>
        <pt x="1917" y="514" on="0"/>
        <pt x="2142" y="722" on="0"/>
        <pt x="2310" y="948" on="0"/>
        <pt x="2408" y="1190" on="0"/>
        <pt x="2408" y="1315" on="1"/>
        <pt x="2408" y="1337" on="0"/>
        <pt x="2404" y="1352" on="1"/>
        <pt x="2365" y="1341" on="0"/>
        <pt x="2324" y="1341" on="1"/>
        <pt x="2219" y="1341" on="0"/>
        <pt x="2034" y="1358" on="0"/>
        <pt x="1946" y="1374" on="1"/>
        <pt x="1914" y="1343" on="0"/>
        <pt x="1838" y="1267" on="0"/>
        <pt x="1798" y="1226" on="1"/>
        <pt x="1745" y="1132" on="0"/>
        <pt x="1695" y="913" on="0"/>
      </contour>
      <contour>
        <pt x="684" y="-37" on="1"/>
        <pt x="765" y="-37" on="0"/>
        <pt x="994" y="17" on="0"/>
        <pt x="1259" y="118" on="0"/>
        <pt x="1544" y="261" on="0"/>
        <pt x="1682" y="350" on="1"/>
        <pt x="1643" y="405" on="0"/>
        <pt x="1581" y="530" on="0"/>
        <pt x="1538" y="654" on="0"/>
        <pt x="1515" y="770" on="0"/>
        <pt x="1515" y="815" on="1"/>
        <pt x="1515" y="886" on="0"/>
        <pt x="1527" y="955" on="1"/>
        <pt x="1413" y="840" on="0"/>
        <pt x="1164" y="591" on="0"/>
        <pt x="911" y="339" on="0"/>
        <pt x="663" y="94" on="0"/>
        <pt x="550" y="-17" on="1"/>
        <pt x="610" y="-37" on="0"/>
      </contour>
      <contour>
        <pt x="2080" y="1712" on="1"/>
        <pt x="1917" y="1712" on="0"/>
        <pt x="1623" y="1646" on="0"/>
        <pt x="1482" y="1588" on="1"/>
        <pt x="1576" y="1557" on="0"/>
        <pt x="1758" y="1501" on="0"/>
        <pt x="1852" y="1478" on="1"/>
        <pt x="1917" y="1544" on="0"/>
        <pt x="1980" y="1606" on="1"/>
        <pt x="2000" y="1626" on="0"/>
        <pt x="2056" y="1680" on="0"/>
        <pt x="2089" y="1712" on="1"/>
      </contour>
      <contour>
        <pt x="2101" y="1525" on="1"/>
        <pt x="2134" y="1528" on="0"/>
        <pt x="2171" y="1528" on="1"/>
        <pt x="2270" y="1528" on="0"/>
        <pt x="2403" y="1492" on="0"/>
        <pt x="2448" y="1460" on="1"/>
        <pt x="2465" y="1497" on="0"/>
        <pt x="2465" y="1538" on="1"/>
        <pt x="2465" y="1568" on="0"/>
        <pt x="2436" y="1617" on="0"/>
        <pt x="2384" y="1656" on="0"/>
        <pt x="2311" y="1685" on="0"/>
        <pt x="2268" y="1694" on="1"/>
        <pt x="2238" y="1665" on="0"/>
        <pt x="2185" y="1611" on="0"/>
        <pt x="2141" y="1567" on="0"/>
        <pt x="2109" y="1534" on="0"/>
      </contour>
      <contour>
        <pt x="2193" y="1479" on="1"/>
        <pt x="2145" y="1479" on="0"/>
        <pt x="2058" y="1460" on="0"/>
        <pt x="2020" y="1443" on="1"/>
        <pt x="2108" y="1427" on="0"/>
        <pt x="2273" y="1409" on="0"/>
        <pt x="2361" y="1409" on="1"/>
        <pt x="2366" y="1409" on="0"/>
        <pt x="2375" y="1409" on="0"/>
        <pt x="2380" y="1410" on="1"/>
        <pt x="2357" y="1442" on="0"/>
        <pt x="2266" y="1479" on="0"/>
      </contour>
    </TTGlyph>
    <TTGlyph name="Oslashacute" xMin="-1260" yMin="-524" xMax="2744" yMax="2636">
      <component glyphName="Oslash" x="0" y="0" flags="0x4"/>
      <component glyphName="acute" x="1020" y="1835" flags="0x4"/>
    </TTGlyph>
    <TTGlyph name="Otilde" xMin="-1254" yMin="-207" xMax="2537" yMax="2380">
      <component glyphName="O" x="-55" y="0" flags="0x4"/>
      <component glyphName="tilde" x="1505" y="1965" flags="0x4"/>
    </TTGlyph>
    <TTGlyph name="P" xMin="240" yMin="-337" xMax="2889" yMax="1826">
      <contour>
        <pt x="2167" y="411" on="1"/>
        <pt x="2179" y="417" on="0"/>
        <pt x="2189" y="417" on="1"/>
        <pt x="2200" y="417" on="0"/>
        <pt x="2212" y="402" on="0"/>
        <pt x="2212" y="391" on="1"/>
        <pt x="2212" y="377" on="0"/>
        <pt x="2190" y="342" on="0"/>
        <pt x="2167" y="328" on="1"/>
        <pt x="2095" y="286" on="0"/>
        <pt x="1946" y="218" on="0"/>
        <pt x="1871" y="187" on="1"/>
        <pt x="1811" y="160" on="0"/>
        <pt x="1677" y="109" on="0"/>
        <pt x="1538" y="70" on="0"/>
        <pt x="1397" y="46" on="0"/>
        <pt x="1331" y="46" on="1"/>
        <pt x="1304" y="46" on="0"/>
        <pt x="1254" y="51" on="0"/>
        <pt x="1230" y="57" on="1"/>
        <pt x="1215" y="21" on="0"/>
        <pt x="1172" y="-70" on="0"/>
        <pt x="1126" y="-159" on="0"/>
        <pt x="1084" y="-236" on="0"/>
        <pt x="1072" y="-257" on="1"/>
        <pt x="1054" y="-299" on="0"/>
        <pt x="977" y="-337" on="0"/>
        <pt x="934" y="-337" on="1"/>
        <pt x="912" y="-337" on="0"/>
        <pt x="871" y="-324" on="0"/>
        <pt x="839" y="-300" on="0"/>
        <pt x="820" y="-266" on="0"/>
        <pt x="820" y="-244" on="1"/>
        <pt x="820" y="-231" on="0"/>
        <pt x="824" y="-224" on="1"/>
        <pt x="836" y="-197" on="0"/>
        <pt x="882" y="-101" on="0"/>
        <pt x="936" y="13" on="0"/>
        <pt x="990" y="134" on="0"/>
        <pt x="1010" y="185" on="1"/>
        <pt x="1002" y="193" on="0"/>
        <pt x="999" y="208" on="0"/>
        <pt x="999" y="216" on="1"/>
        <pt x="999" y="231" on="0"/>
        <pt x="1021" y="261" on="0"/>
        <pt x="1046" y="278" on="1"/>
        <pt x="1086" y="358" on="0"/>
        <pt x="1166" y="513" on="0"/>
        <pt x="1234" y="647" on="0"/>
        <pt x="1285" y="753" on="0"/>
        <pt x="1296" y="783" on="1"/>
        <pt x="1231" y="784" on="0"/>
        <pt x="1123" y="825" on="0"/>
        <pt x="1046" y="896" on="0"/>
        <pt x="1003" y="994" on="0"/>
        <pt x="1003" y="1053" on="1"/>
        <pt x="1003" y="1132" on="0"/>
        <pt x="1066" y="1262" on="0"/>
        <pt x="1168" y="1354" on="0"/>
        <pt x="1297" y="1405" on="0"/>
        <pt x="1362" y="1405" on="1"/>
        <pt x="1449" y="1405" on="0"/>
        <pt x="1557" y="1348" on="0"/>
        <pt x="1618" y="1256" on="0"/>
        <pt x="1639" y="1140" on="0"/>
        <pt x="1639" y="1082" on="1"/>
        <pt x="1639" y="1044" on="0"/>
        <pt x="1617" y="973" on="0"/>
        <pt x="1592" y="912" on="0"/>
        <pt x="1570" y="863" on="0"/>
        <pt x="1570" y="847" on="1"/>
        <pt x="1570" y="842" on="1"/>
        <pt x="1618" y="848" on="0"/>
        <pt x="1763" y="860" on="0"/>
        <pt x="1937" y="880" on="0"/>
        <pt x="2126" y="912" on="0"/>
        <pt x="2310" y="962" on="0"/>
        <pt x="2476" y="1034" on="0"/>
        <pt x="2602" y="1136" on="0"/>
        <pt x="2676" y="1272" on="0"/>
        <pt x="2676" y="1360" on="1"/>
        <pt x="2676" y="1424" on="0"/>
        <pt x="2572" y="1533" on="0"/>
        <pt x="2398" y="1621" on="0"/>
        <pt x="2171" y="1687" on="0"/>
        <pt x="1928" y="1731" on="0"/>
        <pt x="1685" y="1754" on="0"/>
        <pt x="1581" y="1754" on="1"/>
        <pt x="1464" y="1754" on="0"/>
        <pt x="1200" y="1745" on="0"/>
        <pt x="941" y="1715" on="0"/>
        <pt x="704" y="1655" on="0"/>
        <pt x="523" y="1552" on="0"/>
        <pt x="415" y="1400" on="0"/>
        <pt x="415" y="1292" on="1"/>
        <pt x="415" y="1263" on="0"/>
        <pt x="471" y="1236" on="0"/>
        <pt x="555" y="1224" on="0"/>
        <pt x="653" y="1217" on="0"/>
        <pt x="737" y="1198" on="0"/>
        <pt x="793" y="1158" on="0"/>
        <pt x="793" y="1119" on="1"/>
        <pt x="793" y="1102" on="0"/>
        <pt x="719" y="1085" on="0"/>
        <pt x="662" y="1085" on="1"/>
        <pt x="621" y="1085" on="0"/>
        <pt x="527" y="1095" on="0"/>
        <pt x="433" y="1116" on="0"/>
        <pt x="346" y="1148" on="0"/>
        <pt x="280" y="1193" on="0"/>
        <pt x="240" y="1251" on="0"/>
        <pt x="240" y="1287" on="1"/>
        <pt x="240" y="1379" on="0"/>
        <pt x="317" y="1522" on="0"/>
        <pt x="450" y="1633" on="0"/>
        <pt x="630" y="1712" on="0"/>
        <pt x="835" y="1767" on="0"/>
        <pt x="1056" y="1801" on="0"/>
        <pt x="1273" y="1820" on="0"/>
        <pt x="1474" y="1826" on="0"/>
        <pt x="1557" y="1826" on="1"/>
        <pt x="1653" y="1826" on="0"/>
        <pt x="1870" y="1817" on="0"/>
        <pt x="2094" y="1795" on="0"/>
        <pt x="2315" y="1759" on="0"/>
        <pt x="2517" y="1706" on="0"/>
        <pt x="2690" y="1635" on="0"/>
        <pt x="2817" y="1543" on="0"/>
        <pt x="2889" y="1427" on="0"/>
        <pt x="2889" y="1356" on="1"/>
        <pt x="2889" y="1272" on="0"/>
        <pt x="2813" y="1135" on="0"/>
        <pt x="2682" y="1025" on="0"/>
        <pt x="2503" y="940" on="0"/>
        <pt x="2297" y="876" on="0"/>
        <pt x="2072" y="830" on="0"/>
        <pt x="1849" y="798" on="0"/>
        <pt x="1637" y="778" on="0"/>
        <pt x="1546" y="772" on="1"/>
        <pt x="1527" y="749" on="0"/>
        <pt x="1472" y="637" on="0"/>
        <pt x="1404" y="484" on="0"/>
        <pt x="1326" y="303" on="0"/>
        <pt x="1285" y="212" on="1"/>
        <pt x="1312" y="179" on="0"/>
        <pt x="1389" y="150" on="0"/>
        <pt x="1435" y="150" on="1"/>
        <pt x="1488" y="150" on="0"/>
        <pt x="1605" y="172" on="0"/>
        <pt x="1724" y="209" on="0"/>
        <pt x="1841" y="256" on="0"/>
        <pt x="1895" y="280" on="1"/>
        <pt x="1962" y="309" on="0"/>
        <pt x="2098" y="376" on="0"/>
      </contour>
      <contour>
        <pt x="1320" y="844" on="1"/>
        <pt x="1341" y="889" on="0"/>
        <pt x="1394" y="990" on="0"/>
        <pt x="1441" y="1092" on="0"/>
        <pt x="1473" y="1188" on="0"/>
        <pt x="1473" y="1229" on="1"/>
        <pt x="1473" y="1285" on="0"/>
        <pt x="1418" y="1354" on="0"/>
        <pt x="1348" y="1354" on="1"/>
        <pt x="1289" y="1354" on="0"/>
        <pt x="1182" y="1314" on="0"/>
        <pt x="1101" y="1239" on="0"/>
        <pt x="1054" y="1133" on="0"/>
        <pt x="1054" y="1067" on="1"/>
        <pt x="1054" y="1013" on="0"/>
        <pt x="1094" y="930" on="0"/>
        <pt x="1164" y="873" on="0"/>
        <pt x="1262" y="844" on="0"/>
      </contour>
    </TTGlyph>
</ttFont>
